<svg xmlns="http://www.w3.org/2000/svg" viewBox="0 0 900 900" height="900" width="900"><defs><linearGradient id="a"><stop offset="0" stop-color="#8c8c8c"/><stop offset="1" stop-color="#e0e0e0" stop-opacity="0.09803922"/></linearGradient><linearGradient id="b"><stop offset="0" stop-color="#eee"/><stop offset="1" stop-color="#eee" stop-opacity="0"/></linearGradient></defs><path d="M822.65252 69.3598a25.803342 25.803342 0 0 0-19.14905 10.48187L292.93063 752.878354 99.828014 269.31571a25.826929 25.826929 0 1 0-47.973261 19.14892L261.88905 814.35681a25.803342 25.803342 0 0 0 44.54665 6.0494l538.18774-709.52096a25.803342 25.803342 0 0 0-21.97092-41.52294zM652.12558 658.746278c-23.75818 0-43.13562 19.175852-43.13562 42.9338451 0 23.7579939 19.37744 42.9338509 43.13562 42.9338509 23.75818 0 42.9341-19.175857 42.9341-42.9338509 0-23.7579931-19.17592-42.9338451-42.9341-42.9338451zm0 107.435746c-28.70335 0-86.06971 14.33821-86.06971 42.933846v21.56806h171.9379v-21.56806c0-28.595636-57.16484-42.933846-85.86819-42.933846z" style="line-height:normal;-inkscape-font-specification:Sans;text-indent:0;text-align:start;text-decoration-line:none;text-transform:none;block-progression:tb" color="#000" font-family="Sans" overflow="visible"/></svg>