<?xml version="1.0" encoding="UTF-8" standalone="no"?>
<svg
   xmlns:dc="http://purl.org/dc/elements/1.1/"
   xmlns:cc="http://creativecommons.org/ns#"
   xmlns:rdf="http://www.w3.org/1999/02/22-rdf-syntax-ns#"
   xmlns:svg="http://www.w3.org/2000/svg"
   xmlns="http://www.w3.org/2000/svg"
   xmlns:xlink="http://www.w3.org/1999/xlink"
   enable-background="new"
   version="1.1"
   id="svg2"
   viewBox="0 0 192 192"
   height="192"
   width="192">
  <defs
     id="defs4">
    <linearGradient
       id="linearGradient4642">
      <stop
         id="stop4644"
         offset="0"
         style="stop-color:#ff1744;stop-opacity:1;" />
      <stop
         id="stop4646"
         offset="1"
         style="stop-color:#ff177a;stop-opacity:0.57232702" />
    </linearGradient>
    <linearGradient
       gradientUnits="userSpaceOnUse"
       y2="206.22209"
       x2="208.66977"
       y1="103.22675"
       x1="108.90465"
       id="linearGradient4648"
       xlink:href="#linearGradient4642" />
  </defs>
  <metadata
     id="metadata7">
    <rdf:RDF>
      <cc:Work
         rdf:about="">
        <dc:format>image/svg+xml</dc:format>
        <dc:type
           rdf:resource="http://purl.org/dc/dcmitype/StillImage" />
        <dc:title></dc:title>
      </cc:Work>
    </rdf:RDF>
  </metadata>
  <g
     style="display:inline"
     id="layer1"
     transform="translate(0,-860.36216)">
    <path
       style="opacity:1;fill:#00c853;fill-opacity:1;fill-rule:nonzero;stroke:none;stroke-width:1.5;stroke-linecap:round;stroke-linejoin:round;stroke-miterlimit:4;stroke-dasharray:none;stroke-dashoffset:0;stroke-opacity:1"
       d="m 0,860.3622 192,0 0,192 -192,0 z"
       id="rect4136" />
  </g>
  <g
     style="display:inline;opacity:1"
     id="g4172">
    <path
       id="path4174"
       d="M 51.962891,8.5 C 48.382351,8.5 45.5,11.382351 45.5,14.962891 l 0,162.074219 c 0,1.93014 0.84271,3.65171 2.175781,4.83398 3.375921,3.37869 6.752646,6.75084 10.128907,10.12891 L 188.5957,192 C 190.48166,192 192,190.36212 192,188.32812 L 192,57.804688 C 176.28884,42.097397 160.57471,26.379277 144.87109,10.675781 143.68882,9.34271 141.96725,8.5 140.03711,8.5 l -88.074219,0 z"
       style="opacity:1;fill:url(#linearGradient4648);fill-opacity:1;fill-rule:nonzero;stroke:none;stroke-width:2.79999995;stroke-linecap:round;stroke-linejoin:round;stroke-miterlimit:4;stroke-dasharray:none;stroke-dashoffset:0;stroke-opacity:1" />
    <path
       id="path5234"
       d="m 151.38477,16.484375 a 1.250125,1.250125 0 0 0 -0.85743,2.150391 l 11.8125,11.666015 a 1.2505828,1.2505828 0 1 0 1.75782,-1.779297 l -11.8125,-11.664062 a 1.250125,1.250125 0 0 0 -0.90039,-0.373047 z m 17.95507,17.730469 a 1.250125,1.250125 0 0 0 -0.85742,2.15039 l 0.0371,0.03711 a 1.250125,1.250125 0 1 0 1.75586,-1.779297 l -0.0352,-0.03516 a 1.250125,1.250125 0 0 0 -0.90039,-0.373047 z m 7.4668,7.373047 a 1.250125,1.250125 0 0 0 -0.85742,2.152343 L 186.33789,54 a 1.2505792,1.2505792 0 1 0 1.75781,-1.779297 L 177.70703,41.960938 a 1.250125,1.250125 0 0 0 -0.90039,-0.373047 z"
       style="color:#000000;font-style:normal;font-variant:normal;font-weight:normal;font-stretch:normal;font-size:medium;line-height:normal;font-family:sans-serif;text-indent:0;text-align:start;text-decoration:none;text-decoration-line:none;text-decoration-style:solid;text-decoration-color:#000000;letter-spacing:normal;word-spacing:normal;text-transform:none;direction:ltr;block-progression:tb;writing-mode:lr-tb;baseline-shift:baseline;text-anchor:start;white-space:normal;clip-rule:nonzero;display:inline;overflow:visible;visibility:visible;opacity:1;isolation:auto;mix-blend-mode:normal;color-interpolation:sRGB;color-interpolation-filters:linearRGB;solid-color:#000000;solid-opacity:1;fill:#b3e5fc;fill-opacity:1;fill-rule:evenodd;stroke:none;stroke-width:2.5;stroke-linecap:round;stroke-linejoin:round;stroke-miterlimit:4;stroke-dasharray:none;stroke-dashoffset:0;stroke-opacity:1;color-rendering:auto;image-rendering:auto;shape-rendering:auto;text-rendering:auto;enable-background:accumulate" />
  </g>
  <g
     style="display:inline"
     id="g4168">
    <path
       style="opacity:1;fill:#ff1100;fill-opacity:1;fill-rule:nonzero;stroke:none;stroke-width:2.79999995;stroke-linecap:round;stroke-linejoin:round;stroke-miterlimit:4;stroke-dasharray:none;stroke-dashoffset:0;stroke-opacity:1"
       d="m 51.963068,8.5 88.073862,0 c 3.58054,0 6.46307,2.882528 6.46307,6.463068 l 0,144.585492 C 146.5,172.72558 135.88837,183.5 122.47414,183.5 l -70.511072,0 C 48.382528,183.5 45.5,180.61747 45.5,177.03693 l 0,-162.073862 C 45.5,11.382528 48.382528,8.5 51.963068,8.5 Z"
       id="path4170" />
  </g>
  <g
     id="g5261"
     style="display:inline">
    <path
       id="rect4213-5"
       d="m 51.888672,8.7226562 c -3.58054,0 -6.462891,2.8823508 -6.462891,6.4628908 l 0,2.228515 100.999999,0 0,-2.228515 c 0,-3.58054 -2.88235,-6.4628907 -6.46289,-6.4628908 l -88.074218,0 z m 5.375,15.9394528 c -2.493,0 -4.5,2.007 -4.5,4.5 0,21.756589 6e-5,43.512943 0,65.269532 0,2.493 2.007,4.5 4.5,4.5 l 63.892578,0 c 9.96978,0 18.00781,-8.075355 18.00781,-17.970703 l 0,-51.798829 c 0,-2.493 -2.007,-4.5 -4.5,-4.5 l -77.400388,0 z m 89.146488,127.474611 -49.919926,31.58594 25.910156,0 c 9.585,0 17.73896,-5.5013 21.61328,-13.44922 1.65108,-3.2878 2.39406,-6.49896 2.39453,-9.84375 l 0.002,-8.29297 z"
       style="display:inline;opacity:1;fill:#d50000;fill-opacity:1;fill-rule:nonzero;stroke:none;stroke-width:2;stroke-linecap:round;stroke-linejoin:round;stroke-miterlimit:4;stroke-dasharray:none;stroke-dashoffset:0;stroke-opacity:1" />
    <path
       id="rect5328"
       d="m 69.62558,35.572094 55.87442,0 c 1.385,0 2.5,1.115 2.5,2.5 l 0,47.241859 c 0,1.385 -1.115,2.5 -2.5,2.5 l -55.87442,0 c -1.385,0 -2.5,-1.115 -2.5,-2.5 l 0,-47.241859 c 0,-1.385 1.115,-2.5 2.5,-2.5 z"
       style="opacity:1;fill:#263238;fill-opacity:1;fill-rule:nonzero;stroke:none;stroke-width:0;stroke-linecap:round;stroke-linejoin:round;stroke-miterlimit:4;stroke-dasharray:none;stroke-dashoffset:0;stroke-opacity:1" />
  </g>
  <g
     id="layer2"
     style="display:inline">
    <path
       id="rect4140"
       d="m 51.962891,7.0996094 c -4.331924,0 -7.863282,3.5313576 -7.863282,7.8632816 l 0,96.869139 a 1.400391,1.400391 0 0 0 2.800782,0 l 0,-96.869139 c 0,-2.829157 2.233343,-5.0625004 5.0625,-5.0625004 l 88.074219,0 c 2.82916,0 5.0625,2.2333444 5.0625,5.0625004 l 0,28.539062 a 1.40039,1.40039 0 0 0 2.80078,0 l 0,-28.539062 c 0,-4.331925 -3.53136,-7.8632816 -7.86328,-7.8632816 l -88.074219,0 z M 146.47852,48.658203 a 1.40014,1.40014 0 0 0 -1.37891,1.419922 l 0,0.210937 a 1.40039,1.40039 0 0 0 2.80078,0 l 0,-0.210937 a 1.40014,1.40014 0 0 0 -1.42187,-1.419922 z m 0,6.263672 a 1.40014,1.40014 0 0 0 -1.37891,1.417969 l 0,103.208986 a 1.40039,1.40039 0 0 0 2.80078,0 l 0,-103.208986 a 1.40014,1.40014 0 0 0 -1.42187,-1.417969 z M 45.478516,122.09766 a 1.40014,1.40014 0 0 0 -1.378907,1.41992 l 0,15.6543 a 1.400391,1.400391 0 0 0 2.800782,0 l 0,-15.6543 a 1.40014,1.40014 0 0 0 -1.421875,-1.41992 z m 0,25.76172 a 1.40014,1.40014 0 0 0 -1.378907,1.41992 l 0,27.75781 c 0,4.33192 3.531357,7.86328 7.863282,7.86328 l 70.511719,0 c 10.12066,0 18.76925,-5.82165 22.87109,-14.23633 a 1.4002373,1.4002373 0 0 0 -2.51758,-1.22656 c -3.64679,7.48117 -11.30417,12.66211 -20.35351,12.66211 l -70.511719,0 c -2.829156,0 -5.0625,-2.23334 -5.0625,-5.0625 l 0,-27.75781 a 1.40014,1.40014 0 0 0 -1.421875,-1.41992 z m 100.310544,15.62304 a 1.40014,1.40014 0 0 0 -0.18945,0.0176 c -0.007,-7.9e-4 -0.0605,-0.006 -0.0606,-0.006 0,0 -0.0556,0.0266 -0.0742,0.0352 a 1.40014,1.40014 0 0 0 -1.02343,1.10156 c -0.0199,0.10187 -0.0327,0.17323 -0.0449,0.25976 -0.002,0.0147 -0.004,0.052 -0.006,0.0684 -0.004,0.0318 -0.01,0.0504 -0.0117,0.13282 -7.5e-4,0.0312 -0.002,0.0685 0.002,0.12695 0.004,0.0584 0.0447,0.27657 0.0449,0.27734 1.1e-4,3.9e-4 0.11315,0.29077 0.11328,0.29102 4e-5,8e-5 0.0695,0.0814 0.1211,0.14258 a 1.40014,1.40014 0 0 0 0.1289,0.15234 1.40014,1.40014 0 0 0 0.0195,0.0215 c 0.0511,0.0606 0.11909,0.14254 0.11914,0.14257 9e-5,7e-5 0.39249,0.21091 0.39258,0.21094 9e-5,3e-5 0.47061,0.0781 0.47071,0.0781 5e-5,0 0.11481,-0.0316 0.19336,-0.0527 a 1.40014,1.40014 0 0 0 0.32031,-0.0859 c 0.0636,-0.0171 0.16987,-0.0468 0.16992,-0.0469 2.2e-4,-1.2e-4 0.29663,-0.22437 0.29687,-0.22461 2.5e-4,-2.4e-4 0.10037,-0.1116 0.13086,-0.15234 0.061,-0.0815 0.0877,-0.13219 0.10938,-0.17188 0.0433,-0.0794 0.0592,-0.1164 0.0723,-0.14844 0.0262,-0.0641 0.035,-0.0965 0.0449,-0.12695 0.02,-0.0609 0.0339,-0.10544 0.0469,-0.15234 0.013,-0.0469 0.0239,-0.0903 0.0352,-0.13672 0.006,-0.0232 0.01,-0.0469 0.0176,-0.084 0.004,-0.0186 0.009,-0.0388 0.0156,-0.082 0.003,-0.0216 0.008,-0.0471 0.0117,-0.0957 0.002,-0.0243 0.003,-0.0552 0.004,-0.0996 5.2e-4,-0.0444 -0.0117,-0.20291 -0.0117,-0.20312 -2e-5,-1.1e-4 -0.0449,-0.205 -0.0449,-0.20508 -2e-5,-8e-5 -0.16403,-0.36519 -0.16406,-0.36524 -1e-5,-1e-5 -0.1074,-0.0942 -0.19336,-0.16992 a 1.40014,1.40014 0 0 0 -0.22265,-0.19531 c -0.0661,-0.0582 -0.16405,-0.14257 -0.16407,-0.14258 0,0 -0.0933,-0.0107 -0.12109,-0.0137 -4.4e-4,-5e-5 -0.001,5e-5 -0.002,0 a 1.40014,1.40014 0 0 0 -0.54688,-0.0977 z"
       style="color:#000000;font-style:normal;font-variant:normal;font-weight:normal;font-stretch:normal;font-size:medium;line-height:normal;font-family:sans-serif;text-indent:0;text-align:start;text-decoration:none;text-decoration-line:none;text-decoration-style:solid;text-decoration-color:#000000;letter-spacing:normal;word-spacing:normal;text-transform:none;direction:ltr;block-progression:tb;writing-mode:lr-tb;baseline-shift:baseline;text-anchor:start;white-space:normal;clip-rule:nonzero;display:inline;overflow:visible;visibility:visible;opacity:1;isolation:auto;mix-blend-mode:normal;color-interpolation:sRGB;color-interpolation-filters:linearRGB;solid-color:#000000;solid-opacity:1;fill:#b3e5fc;fill-opacity:1;fill-rule:nonzero;stroke:none;stroke-width:2.79999995;stroke-linecap:round;stroke-linejoin:round;stroke-miterlimit:4;stroke-dasharray:none;stroke-dashoffset:0;stroke-opacity:1;color-rendering:auto;image-rendering:auto;shape-rendering:auto;text-rendering:auto;enable-background:accumulate" />
  </g>
  <g
     style="display:inline"
     id="layer4">
    <path
       id="path5237"
       d="m 85.9395,67.805693 21.7303,0 c 0,15.865266 -21.7303,15.317149 -21.7303,0 z"
       style="fill:#f41c09;fill-opacity:1;fill-rule:evenodd;stroke:none;stroke-width:3;stroke-linecap:round;stroke-linejoin:round;stroke-miterlimit:4;stroke-dasharray:none;stroke-opacity:1" />
    <path
       id="path5247"
       d="m 88.3,54.123135 a 5.0499997,5.05 0 0 1 -5.05,5.05 5.0499997,5.05 0 0 1 -5.05,-5.05 5.0499997,5.05 0 0 1 5.05,-5.05 5.0499997,5.05 0 0 1 5.05,5.05 z"
       style="opacity:1;fill:#f41c09;fill-opacity:1;fill-rule:nonzero;stroke:none;stroke-width:2.39999986;stroke-linecap:round;stroke-linejoin:round;stroke-miterlimit:4;stroke-dasharray:none;stroke-dashoffset:0;stroke-opacity:1" />
    <path
       style="opacity:1;fill:#f41c09;fill-opacity:1;fill-rule:nonzero;stroke:none;stroke-width:2.39999986;stroke-linecap:round;stroke-linejoin:round;stroke-miterlimit:4;stroke-dasharray:none;stroke-dashoffset:0;stroke-opacity:1"
       d="m 114.6442,54.123135 a 5.0499997,5.05 0 0 1 -5.05,5.05 5.0499997,5.05 0 0 1 -5.05,-5.05 5.0499997,5.05 0 0 1 5.05,-5.05 5.0499997,5.05 0 0 1 5.05,5.05 z"
       id="path5259" />
  </g>
  <g
     style="display:inline"
     id="layer5">
    <path
       id="path5316"
       d="m 64.763672,11.822266 c -0.880769,0 -1.589844,0.709073 -1.589844,1.589843 l 0,0.414063 c 0,0.88077 0.709075,1.589844 1.589844,1.589844 l 24.072266,0 c 0.880759,0 1.589843,-0.709074 1.589843,-1.589844 l 0,-0.414063 c 0,-0.88077 -0.709085,-1.589843 -1.589843,-1.589843 l -24.072266,0 z m -15.810547,5.216796 a 1.0001,1.0001 0 0 0 -0.986328,1.013672 l 0,30.876954 a 1.0001,1.0001 0 1 0 2,0 l 0,-30.876954 a 1.0001,1.0001 0 0 0 -1.013672,-1.013672 z m 6.720703,2.314454 a 1.10011,1.10011 0 1 0 0,2.199218 l 79.564452,0 a 1.10011,1.10011 0 1 0 0,-2.199218 l -79.564452,0 z m 7.507813,7.902343 a 0.80008001,0.80008001 0 1 0 0,1.59961 l 48.595699,0 a 0.80008001,0.80008001 0 1 0 0,-1.59961 l -48.595699,0 z m 8.279297,12.404297 a 1.0001,1.0001 0 0 0 -1,1 l 0,43.886719 a 1.0001,1.0001 0 1 0 2,0 l 0,-42.886719 51.621092,0 a 1.0001,1.0001 0 1 0 0,-2 l -52.621092,0 z M 83.125,47.361328 c -3.437566,0 -6.25,2.812434 -6.25,6.25 0,3.437566 2.812434,6.25 6.25,6.25 3.437567,10e-7 6.25,-2.812433 6.25,-6.25 0,-3.437567 -2.812433,-6.250001 -6.25,-6.25 z m 26.3457,0 c -3.43756,0 -6.25,2.812434 -6.25,6.25 0,3.437566 2.81244,6.25 6.25,6.25 3.43757,0 6.25,-2.812434 6.25,-6.25 0,-3.437566 -2.81243,-6.25 -6.25,-6.25 z M 83.125,49.761719 c 2.14051,-10e-7 3.849609,1.709099 3.849609,3.849609 0,2.14051 -1.709099,3.851563 -3.849609,3.851563 -2.14051,0 -3.849609,-1.711053 -3.849609,-3.851563 0,-2.14051 1.709099,-3.849609 3.849609,-3.849609 z m 26.3457,0 c 2.14051,0 3.84961,1.709099 3.84961,3.849609 0,2.14051 -1.7091,3.851563 -3.84961,3.851563 -2.14051,0 -3.85156,-1.711053 -3.85156,-3.851563 0,-2.14051 1.71105,-3.849609 3.85156,-3.849609 z m -60.517575,7.828125 a 1.0001,1.0001 0 0 0 -0.986328,1.015625 l 0,117.134761 c 0,1.51671 0.454576,2.91824 1.417969,3.93165 0.963392,1.01339 2.397576,1.57031 4.085937,1.57031 a 1.0001,1.0001 0 1 0 0,-2 c -1.269512,0 -2.088416,-0.37246 -2.636719,-0.94922 -0.548302,-0.57677 -0.867187,-1.42546 -0.867187,-2.55274 l 0,-117.134761 a 1.0001,1.0001 0 0 0 -1.013672,-1.015625 z m 36.861328,8.205078 a 1.50015,1.50015 0 0 0 -1.5,1.5 c 0,8.36792 6.197766,13.115798 12.347656,13.193359 3.074945,0.03878 6.177331,-1.027082 8.521481,-3.259765 2.34416,-2.232684 3.86133,-5.624858 3.86133,-9.933594 a 1.50015,1.50015 0 0 0 -1.5,-1.5 l -21.730467,0 z m 1.767578,3 18.197269,0 c -0.31145,2.733587 -1.21464,4.881215 -2.66407,6.261719 -1.73027,1.64799 -4.058382,2.461374 -6.416011,2.43164 -4.323667,-0.05453 -8.435354,-2.890529 -9.117188,-8.693359 z M 64.349609,118.19141 a 0.50005,0.50005 0 0 0 -0.492187,0.50586 l 0,4.07812 -3.816406,0 a 0.50005,0.50005 0 1 0 0,1 l 4.316406,0 a 0.50005,0.50005 0 0 0 0.5,-0.5 l 0,-4.57812 a 0.50005,0.50005 0 0 0 -0.507813,-0.50586 z m 63.187501,1.12304 a 3.8499999,3.8499999 0 0 0 -1.83399,0.51367 3.8499999,3.8499999 0 0 0 -1.41015,5.25977 3.8499999,3.8499999 0 0 0 5.25976,1.4082 3.8499999,3.8499999 0 0 0 1.41016,-5.25781 3.8499999,3.8499999 0 0 0 -3.42578,-1.92383 z m -60.783204,0.0762 c -0.3324,0 -0.599609,0.26721 -0.599609,0.59961 l 0,5.40039 -5.400391,0 c -0.3324,0 -0.599609,0.26721 -0.599609,0.59961 l 0,4.67579 c 0,0.3324 0.267209,0.5996 0.599609,0.5996 l 5.400391,0 0,5.4004 c 0,0.3324 0.267209,0.5996 0.599609,0.5996 l 4.675782,0 c 0.3324,0 0.599609,-0.2672 0.599609,-0.5996 l 0,-5.4004 5.400391,0 c 0.3324,0 0.599609,-0.2672 0.599609,-0.5996 l 0,-4.67579 c 0,-0.3324 -0.267209,-0.59959 -0.599609,-0.59961 l -5.400391,0 0,-5.40039 c 0,-0.3324 -0.267209,-0.59959 -0.599609,-0.59961 l -4.675782,0 z m 2.275391,6.71094 a 2.3,2.3 0 0 1 2.298828,2.30078 2.3,2.3 0 0 1 -2.298828,2.30078 2.3,2.3 0 0 1 -2.300781,-2.30078 2.3,2.3 0 0 1 2.300781,-2.30078 z m 45.306643,1.29688 a 3.8499999,3.8499999 0 0 0 -1.83399,0.51562 3.8499999,3.8499999 0 0 0 -1.41015,5.25977 3.8499999,3.8499999 0 0 0 5.25976,1.4082 3.8499999,3.8499999 0 0 0 1.40821,-5.25976 3.8499999,3.8499999 0 0 0 -3.42383,-1.92383 z m -40.564456,4.92383 a 0.50005,0.50005 0 0 0 -0.5,0.5 l 0,4.57812 a 0.50005,0.50005 0 1 0 1,0 l 0,-4.07812 3.816407,0 a 0.50005,0.50005 0 1 0 0,-1 l -4.316407,0 z m 20.939454,4.96875 c -0.273612,-0.006 -0.550553,0.002 -0.830079,0.0273 -1.1181,0.10046 -2.27565,0.45684 -3.416015,1.11523 a 1.10011,1.10011 0 1 0 1.099609,1.9043 c 1.783887,-1.02993 3.337242,-1.05446 4.720703,-0.53711 1.383462,0.51735 2.598959,1.64755 3.392578,3.05078 0.793616,1.40323 1.147576,3.05522 0.921876,4.51367 -0.2257,1.45846 -0.963125,2.73159 -2.541016,3.64258 l -15.300782,8.67383 a 1.10011,1.10011 0 0 0 -0.0078,0.006 c -2.467166,1.42442 -3.900365,3.48438 -4.371094,5.64062 -0.470729,2.15626 -0.012,4.36815 1.074219,6.19727 1.086223,1.82912 2.815244,3.30118 4.951172,3.94336 2.135928,0.64218 4.661724,0.41092 7.15625,-1.0293 a 1.1003328,1.1003328 0 0 0 -1.099609,-1.90625 c -2.040286,1.17796 -3.863647,1.29662 -5.421876,0.82813 -1.558227,-0.46849 -2.869051,-1.56763 -3.695312,-2.95899 -0.826261,-1.39136 -1.153929,-3.05046 -0.814453,-4.60546 0.339475,-1.55503 1.31357,-3.04649 3.320312,-4.20508 l 15.300782,-8.67383 a 1.10011,1.10011 0 0 0 0.0078,-0.004 c 2.123497,-1.226 3.302517,-3.17951 3.617187,-5.21289 0.31467,-2.03338 -0.16762,-4.1387 -1.18164,-5.93164 -1.01402,-1.79293 -2.577936,-3.29666 -4.537109,-4.0293 -0.734691,-0.27473 -1.524874,-0.43054 -2.345703,-0.44921 z m -6.330079,8.27929 c -0.362973,0.0238 -0.72714,0.12697 -1.066406,0.31836 l -10.800781,6.09375 c -1.206281,0.68052 -1.629742,2.19802 -0.949219,3.4043 0.680523,1.20628 2.199969,1.62974 3.40625,0.94922 l 10.800781,-6.0918 c 1.206281,-0.68052 1.629742,-2.19997 0.949219,-3.40625 -0.425327,-0.75392 -1.179189,-1.20174 -1.978515,-1.26562 -0.1199,-0.01 -0.240338,-0.01 -0.361329,-0.002 z m 14.628911,8.68164 c -0.36298,0.0243 -0.72715,0.12892 -1.06641,0.32032 l -10.800782,6.09179 c -1.206281,0.68053 -1.629741,2.19997 -0.949219,3.40625 0.680523,1.20628 2.199969,1.62974 3.40625,0.94922 l 10.800781,-6.09375 c 1.20628,-0.68052 1.62974,-2.19801 0.94922,-3.4043 -0.42533,-0.75392 -1.17919,-1.20369 -1.97852,-1.26757 -0.11989,-0.01 -0.24033,-0.0101 -0.36132,-0.002 z"
       style="color:#000000;font-style:normal;font-variant:normal;font-weight:normal;font-stretch:normal;font-size:medium;line-height:normal;font-family:sans-serif;text-indent:0;text-align:start;text-decoration:none;text-decoration-line:none;text-decoration-style:solid;text-decoration-color:#000000;letter-spacing:normal;word-spacing:normal;text-transform:none;direction:ltr;block-progression:tb;writing-mode:lr-tb;baseline-shift:baseline;text-anchor:start;white-space:normal;clip-rule:nonzero;display:inline;overflow:visible;visibility:visible;opacity:1;isolation:auto;mix-blend-mode:normal;color-interpolation:sRGB;color-interpolation-filters:linearRGB;solid-color:#000000;solid-opacity:1;fill:#2196f3;fill-opacity:1;fill-rule:evenodd;stroke:none;stroke-width:2;stroke-linecap:round;stroke-linejoin:round;stroke-miterlimit:4;stroke-dasharray:none;stroke-dashoffset:0;stroke-opacity:1;color-rendering:auto;image-rendering:auto;shape-rendering:auto;text-rendering:auto;enable-background:accumulate" />
    <path
       style="display:inline;opacity:1;fill:#2196f3;fill-opacity:1;fill-rule:nonzero;stroke:none;stroke-width:0;stroke-linecap:round;stroke-linejoin:round;stroke-miterlimit:4;stroke-dasharray:none;stroke-dashoffset:0;stroke-opacity:1"
       d="m 121.43992,175.37235 -6.73125,-10.47231 c -0.23229,-0.3614 -0.0424,-0.89459 0.42573,-1.1955 l 0.0764,-0.0491 c 0.46815,-0.3009 1.03205,-0.2522 1.26434,0.10919 l 6.73117,10.47233 c 0.2323,0.36142 0.0424,0.89461 -0.42572,1.19552 l -0.0764,0.0491 c -0.46814,0.30091 -1.03204,0.25222 -1.26434,-0.1092 z"
       id="rect4276-9" />
    <use
       x="0"
       y="0"
       xlink:href="#rect4276-9"
       id="use4257-1"
       width="100%"
       height="100%"
       style="display:inline;fill:#2196f3;fill-opacity:1;stroke:none;stroke-width:0;stroke-miterlimit:4;stroke-dasharray:none;stroke-opacity:1"
       transform="translate(2.5505384e-6,3.3013749e-6)" />
    <use
       x="0"
       y="0"
       xlink:href="#rect4276-9"
       transform="translate(3.2807326,-2.1087367)"
       id="use4259-3"
       width="100%"
       height="100%"
       style="display:inline;fill:#2196f3;fill-opacity:1;stroke:none;stroke-width:0;stroke-miterlimit:4;stroke-dasharray:none;stroke-opacity:1" />
    <use
       x="0"
       y="0"
       xlink:href="#rect4276-9"
       transform="translate(6.5614726,-4.2174867)"
       id="use4261-5"
       width="100%"
       height="100%"
       style="display:inline;fill:#2196f3;fill-opacity:1;stroke:none;stroke-width:0;stroke-miterlimit:4;stroke-dasharray:none;stroke-opacity:1" />
    <use
       x="0"
       y="0"
       xlink:href="#rect4276-9"
       transform="translate(9.8422026,-6.3262267)"
       id="use4263-3"
       width="100%"
       height="100%"
       style="display:inline;fill:#2196f3;fill-opacity:1;stroke:none;stroke-width:0;stroke-miterlimit:4;stroke-dasharray:none;stroke-opacity:1" />
    <use
       x="0"
       y="0"
       xlink:href="#rect4276-9"
       transform="translate(13.122945,-8.4349667)"
       id="use4265-7"
       width="100%"
       height="100%"
       style="display:inline;fill:#2196f3;fill-opacity:1;stroke:none;stroke-width:0;stroke-miterlimit:4;stroke-dasharray:none;stroke-opacity:1" />
    <use
       x="0"
       y="0"
       xlink:href="#rect4276-9"
       transform="translate(16.403675,-10.543717)"
       id="use4267-2"
       width="100%"
       height="100%"
       style="display:inline;fill:#2196f3;fill-opacity:1;stroke:none;stroke-width:0;stroke-miterlimit:4;stroke-dasharray:none;stroke-opacity:1" />
  </g>
  <g
     id="layer3"
     style="display:inline">
    <path
       id="rect4213"
       d="m 51.962891,7.4511719 c -4.144044,0 -7.513672,3.3676751 -7.513672,7.5117191 l 0,3.058593 A 1.050105,1.050105 0 0 0 45.5,19.070312 l 13.390625,0 74.195315,0 13.41406,0 a 1.050105,1.050105 0 0 0 1.05078,-1.048828 l 0,-3.058593 c 0,-4.144043 -3.36963,-7.5117191 -7.51367,-7.5117191 l -6.97656,0 -74.255862,0 -6.841797,0 z m 0,2.0996093 5.800781,0 0.06641,7.4199218 -11.279297,0 0,-2.007812 c 0,-3.017037 2.395073,-5.4121095 5.41211,-5.4121098 z m 7.90039,0 8.128907,0 0,1.1738278 -3.00586,0 c -1.310133,0 -2.388672,1.07854 -2.388672,2.388672 l 0,0.414063 c 0,1.310132 1.078545,2.390625 2.388672,2.390625 l 24.072266,0 c 1.310122,0 2.390625,-1.080492 2.390625,-2.390625 l 0,-0.414063 c 0,-1.310133 -1.080497,-2.388672 -2.390625,-2.388672 l -6.835938,0 0,-1.1738278 49.791014,0 0.0215,7.4199218 -72.105472,0 -0.06641,-7.4199218 z m 11.128907,0 2.78125,0 0,1.1738278 -2.78125,0 0,-1.1738278 z m 5.78125,0 2.449218,0 0,1.1738278 -2.449218,0 0,-1.1738278 z m 57.339842,0 5.92383,0 c 3.01704,0 5.41211,2.3950728 5.41211,5.4121098 l 0,2.007812 -11.31445,0 -0.0215,-7.4199218 z m -69.126952,2.7734378 24.072266,0 c 0.451391,0 0.791015,0.337656 0.791015,0.789062 l 0,0.414063 c 0,0.451406 -0.339618,0.791015 -0.791015,0.791015 l -24.072266,0 c -0.451411,0 -0.789062,-0.339608 -0.789062,-0.791015 l 0,-0.414063 c 0,-0.451407 0.337657,-0.789062 0.789062,-0.789062 z m -7.685547,11.234375 c -3.029703,0 -5.5,2.470297 -5.5,5.5 l 0,7.183594 a 1.0001,1.0001 0 1 0 2,0 l 0,-7.183594 c 0,-1.956297 1.543703,-3.5 3.5,-3.5 l 77.398439,0 c 1.9563,0 3.5,1.543703 3.5,3.5 l 0,51.798828 c 0,9.353869 -7.57601,16.970703 -17.00586,16.970703 l -6.88672,0 a 1.0001,1.0001 0 1 0 0,2 l 6.88672,0 c 10.50971,0 19.00586,-8.533874 19.00586,-18.970703 l 0,-51.798828 c 0,-3.029703 -2.4703,-5.5 -5.5,-5.5 l -77.398439,0 z m 4.779297,6.251953 a 0.90008998,0.90008998 0 1 0 0,1.798828 l 28.261719,0 a 0.90008998,0.90008998 0 1 0 0,-1.798828 l -28.261719,0 z m 41.523442,0 a 0.90008998,0.90008998 0 1 0 0,1.798828 l 0.0371,0 a 0.90008998,0.90008998 0 1 0 0,-1.798828 l -0.0371,0 z m 2.33593,0 a 0.90008998,0.90008998 0 1 0 0,1.798828 l 0.041,0 a 0.90008998,0.90008998 0 1 0 0,-1.798828 l -0.041,0 z m 2.31836,0 a 0.90008998,0.90008998 0 1 0 0,1.798828 l 0.041,0 a 0.90008998,0.90008998 0 1 0 0,-1.798828 l -0.041,0 z m 2.28516,0 a 0.90008998,0.90008998 0 1 0 0,1.798828 l 0.0508,0 a 0.90008998,0.90008998 0 1 0 0,-1.798828 l -0.0508,0 z m 4.63086,0 a 0.90008998,0.90008998 0 1 0 0,1.798828 l 13.71679,0 a 0.90008998,0.90008998 0 1 0 0,-1.798828 l -13.71679,0 z m -47.181642,5.203125 c -0.994772,0 -1.824219,0.827494 -1.824219,1.822266 l 0,50.800781 c 0,0.99477 0.829447,1.824219 1.824219,1.824219 l 39.685542,0 a 0.900391,0.900391 0 0 0 0,-1.800782 l -39.685542,0 c -0.02871,0 -0.02344,0.0053 -0.02344,-0.02344 l 0,-50.800781 c 0,-0.02871 -0.0053,-0.02344 0.02344,-0.02344 l 17.068359,0 a 0.90008998,0.90008998 0 1 0 0,-1.798828 l -17.068359,0 z m 20.90039,0 a 0.90008998,0.90008998 0 1 0 0,1.798828 l 4.578125,0 a 0.90008998,0.90008998 0 1 0 0,-1.798828 l -4.578125,0 z m 8.373047,0 a 0.90008998,0.90008998 0 1 0 0,1.798828 l 30.013675,0 c 0.0287,0 0.0234,-0.0053 0.0234,0.02344 l 0,50.800781 c 0,0.0287 0.005,0.02344 -0.0234,0.02344 l -9.87891,0 a 0.900391,0.900391 0 1 0 0,1.800782 l 9.87891,0 c 0.99477,0 1.82422,-0.829445 1.82422,-1.824219 l 0,-50.800781 c 0,-0.994775 -0.82945,-1.822266 -1.82422,-1.822266 l -30.013675,0 z m -44.480469,8.996094 a 1.0001,1.0001 0 0 0 -0.984375,1.013672 l 0,49.304687 c 0,3.029703 2.470297,5.5 5.5,5.5 l 43.855469,0 a 1.0001,1.0001 0 1 0 0,-2 l -43.855469,0 c -1.956297,0 -3.5,-1.543703 -3.5,-3.5 l 0,-49.304687 A 1.0001,1.0001 0 0 0 52.785156,44.009766 Z M 59.642578,55.75 a 1.30013,1.30013 0 0 0 -0.128906,0.01172 1.30013,1.30013 0 0 0 -0.128906,0.02539 1.30013,1.30013 0 0 0 -0.357422,0.148438 1.30013,1.30013 0 0 0 -0.300782,0.248047 1.30013,1.30013 0 0 0 -0.08008,0.101562 1.30013,1.30013 0 0 0 -0.130859,0.22461 1.30013,1.30013 0 0 0 -0.04883,0.121093 1.30013,1.30013 0 0 0 -0.03516,0.125 1.30013,1.30013 0 0 0 -0.02344,0.126953 1.30013,1.30013 0 0 0 -0.0098,0.13086 1.30013,1.30013 0 0 0 0,0.01758 l 0,0.02734 a 1.30013,1.30013 0 0 0 0.238281,0.730468 1.30013,1.30013 0 0 0 0.267578,0.279297 1.30013,1.30013 0 0 0 0.851562,0.269532 1.30013,1.30013 0 0 0 0.128907,-0.01172 1.30013,1.30013 0 0 0 0.126953,-0.02539 1.30013,1.30013 0 0 0 0.24414,-0.08594 1.30013,1.30013 0 0 0 0.322266,-0.21875 1.30013,1.30013 0 0 0 0.173828,-0.19336 1.30013,1.30013 0 0 0 0.177735,-0.345703 1.30013,1.30013 0 0 0 0.03516,-0.125 1.30013,1.30013 0 0 0 0.02344,-0.126953 1.30013,1.30013 0 0 0 0.0098,-0.146484 l 0,-0.02734 a 1.30013,1.30013 0 0 0 -0.0293,-0.257812 1.30013,1.30013 0 0 0 -0.207031,-0.47461 1.30013,1.30013 0 0 0 -0.490235,-0.416016 1.30013,1.30013 0 0 0 -0.11914,-0.05273 1.30013,1.30013 0 0 0 -0.123047,-0.03906 1.30013,1.30013 0 0 0 -0.126953,-0.02539 A 1.30013,1.30013 0 0 0 59.642578,55.75 Z m -2.736328,4.582031 a 1.30013,1.30013 0 0 0 -0.257812,0.0293 1.30013,1.30013 0 0 0 -0.248047,0.08008 1.30013,1.30013 0 0 0 -0.328125,0.208985 1.30013,1.30013 0 0 0 -0.251954,0.294921 1.30013,1.30013 0 0 0 -0.0625,0.113282 1.30013,1.30013 0 0 0 -0.0918,0.24414 1.30013,1.30013 0 0 0 -0.02539,0.126954 1.30013,1.30013 0 0 0 -0.0039,0.388671 1.30013,1.30013 0 0 0 0.02539,0.126953 1.30013,1.30013 0 0 0 0.03711,0.125 1.30013,1.30013 0 0 0 0.05078,0.119141 1.30013,1.30013 0 0 0 0.216797,0.322266 1.30013,1.30013 0 0 0 0.193359,0.173828 1.30013,1.30013 0 0 0 0.345703,0.177734 1.30013,1.30013 0 0 0 0.400391,0.06836 l 5.705078,0 a 1.30013,1.30013 0 0 0 0.382813,-0.0625 1.30013,1.30013 0 0 0 0.121093,-0.04687 1.30013,1.30013 0 0 0 0.421875,-0.296875 1.30013,1.30013 0 0 0 0.158203,-0.207032 1.30013,1.30013 0 0 0 0.06445,-0.113281 1.30013,1.30013 0 0 0 0.05078,-0.11914 1.30013,1.30013 0 0 0 0.03906,-0.123047 1.30013,1.30013 0 0 0 0.04102,-0.257813 1.30013,1.30013 0 0 0 0,-0.128906 1.30013,1.30013 0 0 0 -0.03711,-0.257813 1.30013,1.30013 0 0 0 -0.03711,-0.123047 1.30013,1.30013 0 0 0 -0.04883,-0.121093 1.30013,1.30013 0 0 0 -0.21875,-0.322266 1.30013,1.30013 0 0 0 -0.0918,-0.08984 1.30013,1.30013 0 0 0 -0.101562,-0.08203 1.30013,1.30013 0 0 0 -0.109375,-0.07227 1.30013,1.30013 0 0 0 -0.115235,-0.05859 1.30013,1.30013 0 0 0 -0.121093,-0.04883 1.30013,1.30013 0 0 0 -0.125,-0.03516 1.30013,1.30013 0 0 0 -0.25586,-0.0332 1.30013,1.30013 0 0 0 -0.01758,0 l -5.705078,0 z m 55.80859,27.328125 a 0.900391,0.900391 0 1 0 0,1.800782 l 0.0508,0 a 0.900391,0.900391 0 0 0 0,-1.800782 l -0.0508,0 z m -4.80468,10.167969 a 1.0001,1.0001 0 1 0 0,2 l 0.0703,0 a 1.0001,1.0001 0 1 0 0,-2 l -0.0703,0 z m -51.919926,5.730465 a 1.30013,1.30013 0 1 0 0,2.59961 l 11.681641,0 a 1.30013,1.30013 0 1 0 0,-2.59961 l -11.681641,0 z m 19.902344,0 a 1.30013,1.30013 0 1 0 0,2.59961 l 0.07422,0 a 1.30013,1.30013 0 1 0 0,-2.59961 l -0.07422,0 z m 3.382813,0 a 1.30013,1.30013 0 1 0 0,2.59961 l 0.05469,0 a 1.30013,1.30013 0 1 0 0,-2.59961 l -0.05469,0 z m 3.308593,0 a 1.30013,1.30013 0 1 0 0,2.59961 l 0.03906,0 a 1.30013,1.30013 0 1 0 0,-2.59961 l -0.03906,0 z m 3.339844,0 a 1.30013,1.30013 0 1 0 0,2.59961 l 0.03906,0 a 1.30013,1.30013 0 1 0 0,-2.59961 l -0.03906,0 z m 8.919922,0 a 1.30013,1.30013 0 1 0 0,2.59961 l 39.6582,0 a 1.30013,1.30013 0 1 0 0,-2.59961 l -39.6582,0 z m -25.773438,10.49805 c -1.614372,-0.009 -3.250636,0.26375 -4.839843,0.8418 a 1.250125,1.250125 0 1 0 0.855469,2.34765 c 5.232836,-1.90335 11.055879,0.21633 13.839843,5.03516 2.783964,4.81883 1.708942,10.91722 -2.55664,14.49414 -4.265583,3.57692 -10.464887,3.57692 -14.730469,0 -4.265583,-3.57692 -5.340605,-9.67531 -2.556641,-14.49414 a 1.250412,1.250412 0 1 0 -2.166015,-1.25 c -3.382768,5.85531 -2.065212,13.31444 3.117187,17.66016 5.182399,4.34571 12.759008,4.34571 17.941406,0 5.182399,-4.34572 6.499956,-11.80485 3.117188,-17.66016 -2.537076,-4.39148 -7.178366,-6.94718 -12.021485,-6.97461 z M 128,114.87305 c -1.33017,0.0338 -2.66931,0.3908 -3.90039,1.10156 l -13.85547,8 c -3.93945,2.27444 -5.29592,7.33009 -3.02148,11.26953 2.27444,3.93945 7.33203,5.29397 11.27148,3.01953 l 13.85547,-8 c 3.93945,-2.27444 5.29397,-7.33008 3.01953,-11.26953 -1.56368,-2.70836 -4.44277,-4.19549 -7.36914,-4.12109 z m 0.0781,2.48437 c 2.03635,-0.0597 4.02451,0.97723 5.12696,2.88672 1.60356,2.77745 0.67198,6.24996 -2.10547,7.85352 l -13.85547,8 c -2.77745,1.60356 -6.25191,0.67393 -7.85547,-2.10352 -1.60356,-2.77744 -0.67198,-6.25191 2.10547,-7.85547 l 13.85547,-8 c 0.86795,-0.50111 1.8029,-0.75413 2.72851,-0.78125 z m -61.353511,1.24219 c -0.680748,0 -1.25,0.56925 -1.25,1.25 l 0,4.75 -4.75,0 c -0.680748,0 -1.25,0.56925 -1.25,1.25 l 0,4.67578 c 0,0.68075 0.569252,1.25 1.25,1.25 l 4.75,0 0,4.75 c 0,0.68075 0.569252,1.25 1.25,1.25 l 4.675782,0 c 0.680748,0 1.25,-0.56925 1.25,-1.25 l 0,-4.75 4.75,0 c 0.680748,0 1.25,-0.56925 1.25,-1.25 l 0,-4.67578 c 0,-0.68075 -0.569252,-1.25 -1.25,-1.25 l -4.75,0 0,-4.75 c 0,-0.68075 -0.569252,-1.25 -1.25,-1.25 l -4.675782,0 z m 61.683591,0.16992 c -0.8751,-0.0626 -1.77645,0.12414 -2.58984,0.59375 -2.16905,1.2523 -2.91636,4.04776 -1.66406,6.2168 1.2523,2.16906 4.04384,2.91636 6.21289,1.66406 2.16905,-1.2523 2.92027,-4.04579 1.66797,-6.21484 -0.78269,-1.35566 -2.16845,-2.15545 -3.62696,-2.25977 z m -61.632809,1.13086 4.574218,0 0,5.34961 A 0.65006498,0.65006498 0 0 0 72,125.90039 l 5.349609,0 0,4.57422 -5.349609,0 a 0.65006498,0.65006498 0 0 0 -0.650391,0.65039 l 0,5.34961 -4.574218,0 0,-5.34961 A 0.65006498,0.65006498 0 0 0 66.125,130.47461 l -5.349609,0 0,-4.57422 5.349609,0 A 0.65006498,0.65006498 0 0 0 66.775391,125.25 l 0,-5.34961 z m 61.539059,0.25781 c 1.00765,0.0701 1.96157,0.62614 2.50782,1.57227 0.87399,1.51381 0.3595,3.42678 -1.1543,4.30078 -1.5138,0.87399 -3.42678,0.36146 -4.30078,-1.15234 -0.87399,-1.51381 -0.36341,-3.42875 1.15039,-4.30274 0.56767,-0.32774 1.19229,-0.46 1.79687,-0.41797 z m 0.40625,0.55469 a 0.50004997,0.50004997 0 0 0 -0.13281,0.98047 c 0.69586,0.20409 1.18383,0.82688 1.2168,1.55469 0.033,0.7278 -0.39764,1.39166 -1.07227,1.6582 -0.67463,0.26654 -1.43765,0.0737 -1.9082,-0.48047 a 0.50017292,0.50017292 0 1 0 -0.76172,0.64844 c 0.74467,0.87703 1.96764,1.18425 3.03711,0.76172 1.06947,-0.42254 1.75522,-1.48483 1.70312,-2.63477 -0.0521,-1.14993 -0.83023,-2.1432 -1.93359,-2.46679 a 0.50004997,0.50004997 0 0 0 -0.14844,-0.0215 z M 69,125.46289 c -1.540475,0 -2.800781,1.25835 -2.800781,2.79883 0,1.54047 1.260306,2.80078 2.800781,2.80078 1.540475,0 2.800781,-1.26031 2.800781,-2.80078 0,-1.54048 -1.260306,-2.79883 -2.800781,-2.79883 z m 0,1 c 1.000035,0 1.800781,0.79879 1.800781,1.79883 0,1.00003 -0.800746,1.80078 -1.800781,1.80078 -1.000035,0 -1.800781,-0.80075 -1.800781,-1.80078 0,-1.00004 0.800746,-1.79883 1.800781,-1.79883 z m 45.91797,0.0937 c -0.8751,-0.0626 -1.77645,0.12609 -2.58985,0.5957 -2.16904,1.25231 -2.91636,4.0458 -1.66406,6.21485 1.2523,2.16905 4.0458,2.91831 6.21485,1.66601 2.16905,-1.25231 2.91831,-4.04578 1.66601,-6.21484 -0.78269,-1.35565 -2.16845,-2.1574 -3.62695,-2.26172 z m -0.0937,1.39063 c 1.00764,0.0701 1.96156,0.62418 2.50781,1.57031 0.87399,1.5138 0.3595,3.42874 -1.1543,4.30273 -1.5138,0.874 -3.42678,0.36147 -4.30078,-1.15234 -0.87399,-1.5138 -0.36145,-3.42875 1.15235,-4.30274 0.56767,-0.32775 1.19033,-0.46 1.79492,-0.41796 z m 0.42773,0.56054 a 0.50004997,0.50004997 0 0 0 -0.13476,0.98047 c 0.69586,0.20409 1.18382,0.82689 1.21679,1.55469 0.033,0.7278 -0.39568,1.39166 -1.07031,1.6582 -0.67463,0.26654 -1.4396,0.0757 -1.91015,-0.47851 a 0.50004997,0.50004997 0 1 0 -0.76172,0.64648 c 0.74467,0.87703 1.96959,1.18425 3.03906,0.76172 1.06947,-0.42254 1.75522,-1.48288 1.70312,-2.63281 -0.0521,-1.14994 -0.83218,-2.14515 -1.93554,-2.46875 a 0.50004997,0.50004997 0 0 0 -0.14649,-0.0215 z m -26.255856,15.58985 c -0.653384,-0.0538 -1.329335,0.0796 -1.939453,0.42382 l -10.798829,6.09375 c -1.626982,0.91787 -2.208876,3.00388 -1.291015,4.63086 0.91786,1.62698 3.003876,2.20693 4.630859,1.28907 l 10.800782,-6.0918 c 1.626983,-0.91786 2.206922,-3.00388 1.289062,-4.63086 -0.573663,-1.01686 -1.602433,-1.62523 -2.691406,-1.71484 z m -0.136719,1.78125 c 0.509463,0.0389 0.984728,0.32737 1.261719,0.81836 0.443184,0.78558 0.178157,1.7365 -0.607422,2.17968 l -10.800781,6.0918 c -0.785578,0.44318 -1.73455,0.17816 -2.177735,-0.60742 -0.443185,-0.78558 -0.180109,-1.7365 0.605469,-2.17969 l 10.800781,-6.09375 c 0.294592,-0.1662 0.612291,-0.23234 0.917969,-0.20898 z m -0.169922,0.48047 c -0.141481,-0.0143 -0.288843,-0.003 -0.439453,0.0371 a 0.40004001,0.40004001 0 0 0 -0.09375,0.0391 l -11.283203,6.36914 a 0.4000903,0.4000903 0 1 0 0.392578,0.69726 L 88.4688,147.17576 c 0.224888,-0.0526 0.413431,0.0563 0.513672,0.23047 0.102572,0.17818 0.126049,0.3207 -0.08984,0.48047 a 0.40004001,0.40004001 0 1 0 0.476563,0.64258 c 0.518763,-0.38391 0.568081,-1.06732 0.30664,-1.52149 -0.196081,-0.34062 -0.561884,-0.60564 -0.986328,-0.64843 z m 4.203125,4.16796 a 0.750075,0.750075 0 0 0 -0.07813,0.002 0.750075,0.750075 0 0 0 -0.333984,0.10547 l -13.146485,7.58984 a 0.750075,0.750075 0 1 0 0.75,1.29883 l 13.146485,-7.58985 a 0.750075,0.750075 0 0 0 -0.337891,-1.40625 z m 10.527342,2.40235 c -0.65401,-0.0468 -1.32693,0.0931 -1.93359,0.44336 l -10.738283,6.20117 c -1.617764,0.93401 -2.178161,3.02481 -1.244141,4.64258 0.934015,1.61776 3.024814,2.17816 4.642578,1.24414 l 10.740236,-6.19922 c 1.61776,-0.93402 2.17815,-3.02677 1.24414,-4.64453 -0.58376,-1.01111 -1.62092,-1.60952 -2.71094,-1.6875 z m -0.11914,1.7832 c 0.50954,0.0334 0.98767,0.31648 1.26953,0.80469 0.45098,0.78112 0.19715,1.73455 -0.58398,2.18554 l -10.738283,6.20118 c -0.781127,0.45099 -1.73652,0.19323 -2.1875,-0.58789 -0.450985,-0.78113 -0.19519,-1.73457 0.585937,-2.18555 l 10.740236,-6.19922 c 0.29292,-0.16912 0.60834,-0.23877 0.91406,-0.21875 z m 0.0703,0.38281 c -0.14166,-0.0144 -0.29079,-0.005 -0.4414,0.0352 a 0.40004001,0.40004001 0 0 0 -0.0918,0.0391 l -11.283202,6.3711 a 0.40004001,0.40004001 0 1 0 0.392578,0.69531 l 11.205074,-6.32617 c 0.22395,-0.0514 0.41179,0.0588 0.51172,0.23242 0.10257,0.17818 0.12602,0.31874 -0.0898,0.47851 a 0.40004001,0.40004001 0 1 0 0.47656,0.64258 c 0.51876,-0.38391 0.56808,-1.06537 0.30664,-1.51953 -0.19608,-0.34062 -0.56133,-0.6051 -0.98633,-0.64844 z m 4.00782,4.32032 a 0.750075,0.750075 0 0 0 -0.40821,0.10546 l -13.146481,7.58985 a 0.750075,0.750075 0 1 0 0.75,1.29883 l 13.146481,-7.58985 a 0.750075,0.750075 0 0 0 -0.34179,-1.40429 z"
       style="color:#000000;font-style:normal;font-variant:normal;font-weight:normal;font-stretch:normal;font-size:medium;line-height:normal;font-family:sans-serif;text-indent:0;text-align:start;text-decoration:none;text-decoration-line:none;text-decoration-style:solid;text-decoration-color:#000000;letter-spacing:normal;word-spacing:normal;text-transform:none;direction:ltr;block-progression:tb;writing-mode:lr-tb;baseline-shift:baseline;text-anchor:start;white-space:normal;clip-rule:nonzero;display:inline;overflow:visible;visibility:visible;opacity:1;isolation:auto;mix-blend-mode:normal;color-interpolation:sRGB;color-interpolation-filters:linearRGB;solid-color:#000000;solid-opacity:1;fill:#b3e5fc;fill-opacity:1;fill-rule:nonzero;stroke:none;stroke-width:2;stroke-linecap:round;stroke-linejoin:round;stroke-miterlimit:4;stroke-dasharray:none;stroke-dashoffset:0;stroke-opacity:1;color-rendering:auto;image-rendering:auto;shape-rendering:auto;text-rendering:auto;enable-background:accumulate" />
    <path
       id="rect4276"
       d="m 115.9668,163.0625 c -0.327,-0.0282 -0.66888,0.0606 -0.97266,0.25586 l -0.0762,0.0488 c -0.30377,0.19526 -0.52466,0.46815 -0.63477,0.77734 -0.11011,0.30919 -0.10148,0.67499 0.0899,0.97266 l 6.7207,10.45703 a 0.40004001,0.40004001 0 0 0 0.01,0.0137 c 0.19133,0.29768 0.51869,0.45809 0.8457,0.48633 0.327,0.0282 0.66888,-0.0606 0.97266,-0.25586 l 0.0762,-0.0488 c 0.30376,-0.19526 0.52465,-0.46815 0.63476,-0.77734 0.11011,-0.3092 0.10149,-0.67303 -0.0898,-0.97071 l -6.73047,-10.47265 c -0.19133,-0.29767 -0.5187,-0.45809 -0.8457,-0.48633 z m -0.0684,0.79688 c 0.13006,0.0112 0.19927,0.0574 0.24023,0.12109 l 6.73242,10.47265 c 0.041,0.0637 0.0516,0.14655 0.008,0.26954 -0.0438,0.12298 -0.1501,0.26739 -0.31446,0.37304 l -0.0762,0.0488 c -0.16436,0.10565 -0.34065,0.14405 -0.4707,0.13281 -0.13006,-0.0112 -0.19927,-0.0574 -0.24024,-0.12109 l -6.73242,-10.47266 c -0.041,-0.0637 -0.0516,-0.14655 -0.008,-0.26953 0.0438,-0.12298 0.15009,-0.26739 0.31445,-0.37304 l 0.0762,-0.0488 c 0.16437,-0.10565 0.34065,-0.14405 0.47071,-0.13281 z"
       style="color:#000000;font-style:normal;font-variant:normal;font-weight:normal;font-stretch:normal;font-size:medium;line-height:normal;font-family:sans-serif;text-indent:0;text-align:start;text-decoration:none;text-decoration-line:none;text-decoration-style:solid;text-decoration-color:#000000;letter-spacing:normal;word-spacing:normal;text-transform:none;direction:ltr;block-progression:tb;writing-mode:lr-tb;baseline-shift:baseline;text-anchor:start;white-space:normal;clip-rule:nonzero;display:inline;overflow:visible;visibility:visible;opacity:1;isolation:auto;mix-blend-mode:normal;color-interpolation:sRGB;color-interpolation-filters:linearRGB;solid-color:#000000;solid-opacity:1;fill:#b2ebf2;fill-opacity:1;fill-rule:nonzero;stroke:none;stroke-width:0.80000001;stroke-linecap:round;stroke-linejoin:round;stroke-miterlimit:4;stroke-dasharray:none;stroke-dashoffset:0;stroke-opacity:1;color-rendering:auto;image-rendering:auto;shape-rendering:auto;text-rendering:auto;enable-background:accumulate" />
    <use
       x="0"
       y="0"
       xlink:href="#rect4276"
       id="use4257"
       width="100%"
       height="100%"
       style="display:inline;fill:#b2ebf2;stroke:#651fff;stroke-width:0.80000001;stroke-miterlimit:4;stroke-dasharray:none;stroke-opacity:1" />
    <use
       x="0"
       y="0"
       xlink:href="#rect4276"
       transform="translate(3.2807357,-2.1087399)"
       id="use4259"
       width="100%"
       height="100%"
       style="display:inline;fill:#b2ebf2;stroke:#651fff;stroke-width:0.80000001;stroke-miterlimit:4;stroke-dasharray:none;stroke-opacity:1" />
    <use
       x="0"
       y="0"
       xlink:href="#rect4276"
       transform="translate(6.5614707,-4.2174893)"
       id="use4261"
       width="100%"
       height="100%"
       style="display:inline;fill:#b2ebf2;stroke:#651fff;stroke-width:0.80000001;stroke-miterlimit:4;stroke-dasharray:none;stroke-opacity:1" />
    <use
       x="0"
       y="0"
       xlink:href="#rect4276"
       transform="translate(9.8422057,-6.3262293)"
       id="use4263"
       width="100%"
       height="100%"
       style="display:inline;fill:#b2ebf2;stroke:#651fff;stroke-width:0.80000001;stroke-miterlimit:4;stroke-dasharray:none;stroke-opacity:1" />
    <use
       x="0"
       y="0"
       xlink:href="#rect4276"
       transform="translate(13.12294,-8.4349693)"
       id="use4265"
       width="100%"
       height="100%"
       style="display:inline;fill:#b2ebf2;stroke:#651fff;stroke-width:0.80000001;stroke-miterlimit:4;stroke-dasharray:none;stroke-opacity:1" />
    <use
       x="0"
       y="0"
       xlink:href="#rect4276"
       transform="translate(16.403674,-10.543719)"
       id="use4267"
       width="100%"
       height="100%"
       style="display:inline;fill:#b2ebf2;stroke:#651fff;stroke-width:0.80000001;stroke-miterlimit:4;stroke-dasharray:none;stroke-opacity:1" />
  </g>
</svg>
