<?xml version="1.0" encoding="UTF-8" standalone="no"?>
<!-- Created with Inkscape (http://www.inkscape.org/) -->

<svg
   xmlns:dc="http://purl.org/dc/elements/1.1/"
   xmlns:cc="http://creativecommons.org/ns#"
   xmlns:rdf="http://www.w3.org/1999/02/22-rdf-syntax-ns#"
   xmlns:svg="http://www.w3.org/2000/svg"
   xmlns="http://www.w3.org/2000/svg"
   xmlns:sodipodi="http://sodipodi.sourceforge.net/DTD/sodipodi-0.dtd"
   xmlns:inkscape="http://www.inkscape.org/namespaces/inkscape"
   width="576"
   height="192"
   viewBox="0 0 576 192"
   id="svg2"
   version="1.1"
   inkscape:version="0.91 r"
   sodipodi:docname="75.svg"
   inkscape:export-filename="/home/vali/Documents/doc/Design/75.png"
   inkscape:export-xdpi="900"
   inkscape:export-ydpi="900">
  <defs
     id="defs4" />
  <sodipodi:namedview
     id="base"
     pagecolor="#ffffff"
     bordercolor="#666666"
     borderopacity="1.0"
     inkscape:pageopacity="0.0"
     inkscape:pageshadow="2"
     inkscape:zoom="1.6284722"
     inkscape:cx="357.11579"
     inkscape:cy="95.837155"
     inkscape:document-units="px"
     inkscape:current-layer="layer2"
     showgrid="false"
     units="px"
     inkscape:showpageshadow="false"
     showborder="false"
     inkscape:snap-center="true"
     showguides="true"
     inkscape:guide-bbox="true" />
  <metadata
     id="metadata7">
    <rdf:RDF>
      <cc:Work
         rdf:about="">
        <dc:format>image/svg+xml</dc:format>
        <dc:type
           rdf:resource="http://purl.org/dc/dcmitype/StillImage" />
        <dc:title></dc:title>
      </cc:Work>
    </rdf:RDF>
  </metadata>
  <g
     inkscape:label="Back"
     inkscape:groupmode="layer"
     id="layer1"
     transform="translate(0,-860.36216)"
     sodipodi:insensitive="true">
    <path
       style="opacity:1;fill:#90a4ae;fill-opacity:1;fill-rule:nonzero;stroke:none;stroke-width:2.4000001;stroke-linecap:round;stroke-linejoin:round;stroke-miterlimit:4;stroke-dasharray:9.6, 9.6;stroke-dashoffset:0;stroke-opacity:1"
       d="m 0,860.36212 576,0 0,192.00008 -576,0 z"
       id="rect4155"
       inkscape:connector-curvature="0" />
  </g>
  <g
     inkscape:groupmode="layer"
     id="layer2"
     inkscape:label="Console1"
     sodipodi:insensitive="true">
    <path
       id="path4408"
       d="m 201.35621,31.541016 a 3.50035,3.50035 0 0 1 3.5,3.5 l 0,57.458984 12.87695,0 0,-1.201172 c 0,-1.472058 1.18615,-2.65625 2.65821,-2.65625 l 5.46679,0 c 1.47206,0 2.65625,1.184192 2.65625,2.65625 l 0,9.402342 c 0,1.47206 -1.18419,2.65625 -2.65625,2.65625 l -5.46679,0 c -1.47207,0 -2.65821,-1.18419 -2.65821,-2.65625 l 0,-1.20117 -16.37695,0 a 3.50035,3.50035 0 0 1 -3.5,-3.5 l 0,-57.458984 -127.412112,0 0,17.02539 11.58008,0 c 3.78144,0 6.82617,3.042784 6.82617,6.824219 l 0,3.314453 c 0,3.781435 -3.04473,6.826172 -6.82617,6.826172 l -24.87696,0 c -3.78144,0 -6.82617,-3.044737 -6.82617,-6.826172 l 0,-3.314453 c 0,-3.781435 3.04473,-6.824219 6.82617,-6.824219 l 6.29688,0 0,-20.52539 a 3.50035,3.50035 0 0 1 3.5,-3.5 l 134.412112,0 z"
       style="opacity:1;fill:#212121;fill-opacity:1;fill-rule:nonzero;stroke:none;stroke-width:5;stroke-linecap:round;stroke-linejoin:round;stroke-miterlimit:4;stroke-dasharray:none;stroke-dashoffset:0;stroke-opacity:1"
       inkscape:connector-curvature="0" />
    <path
       style="opacity:1;fill:#212121;fill-opacity:1;fill-rule:nonzero;stroke:none;stroke-width:5;stroke-linecap:round;stroke-linejoin:round;stroke-miterlimit:4;stroke-dasharray:none;stroke-dashoffset:0;stroke-opacity:1"
       d="m 375.48828,31.541016 a 3.50035,3.50035 0 0 0 -3.5,3.5 l 0,57.458984 -12.87695,0 0,-1.201172 c 0,-1.472058 -1.18615,-2.65625 -2.65821,-2.65625 l -5.46679,0 c -1.47206,0 -2.65625,1.184192 -2.65625,2.65625 l 0,9.402342 c 0,1.47206 1.18419,2.65625 2.65625,2.65625 l 5.46679,0 c 1.47207,0 2.65821,-1.18419 2.65821,-2.65625 l 0,-1.20117 16.37695,0 a 3.50035,3.50035 0 0 0 3.5,-3.5 l 0,-57.458984 127.41211,0 0,17.02539 -11.58008,0 c -3.78144,0 -6.82617,3.042784 -6.82617,6.824219 l 0,3.314453 c 0,3.781435 3.04473,6.826172 6.82617,6.826172 l 24.87696,0 c 3.78144,0 6.82617,-3.044737 6.82617,-6.826172 l 0,-3.314453 c 0,-3.781435 -3.04473,-6.824219 -6.82617,-6.824219 l -6.29688,0 0,-20.52539 a 3.50035,3.50035 0 0 0 -3.5,-3.5 l -134.41211,0 z"
       id="rect4391"
       inkscape:connector-curvature="0" />
    <g
       id="g4416">
      <path
         sodipodi:nodetypes="csssccccsssccscssssccccsscc"
         inkscape:connector-curvature="0"
         id="rect4159"
         d="m 94.859046,63.42689 c -14.242771,0.03408 -28.485431,1.17443 -42.284538,3.317518 -3.36217,0.522167 -5.23675,2.562538 -7.353281,4.220861 -2.116532,1.658322 -4.507288,3.110272 -9.419416,3.110273 -8.938705,0 -15.384331,7.276815 -16.155702,16.07502 l -3.793711,43.263808 c -0.789226,9.00186 7.218579,16.24588 16.157285,16.24588 l -0.03639,0 c 3.312744,0.12417 5.216729,0.75064 6.483164,1.55197 1.266436,0.80134 1.962867,1.82024 2.79545,2.98846 0.832583,1.16822 1.810786,2.48084 3.554824,3.43617 1.744038,0.95533 4.179168,1.53299 7.916484,1.53298 l -0.121816,-0.006 c 0,0 28.787893,3.63868 43.393537,3.63868 15.230234,0 40.900074,-3.61228 41.042644,-3.63235 4.02039,-0.21771 6.48616,-0.93739 8.15695,-1.99494 1.67079,-1.05754 2.45038,-2.43921 3.09129,-3.57222 0.64091,-1.13302 1.13329,-2.00431 2.35248,-2.70369 1.21918,-0.69939 3.28738,-1.23873 7.05585,-1.23873 8.93909,0 17.00147,-7.24705 16.15572,-16.25062 L 169.7872,90.145841 C 168.96189,81.359974 162.569,74.075568 153.62993,74.075568 l 0.0507,0 c -5.11092,-0.270443 -7.48,-1.720988 -9.49536,-3.303282 -2.01537,-1.582292 -3.74962,-3.48214 -7.04162,-4.026269 -13.79967,-2.280923 -28.04177,-3.353185 -42.284534,-3.319101 z"
         style="color:#000000;font-style:normal;font-variant:normal;font-weight:normal;font-stretch:normal;font-size:medium;line-height:normal;font-family:sans-serif;text-indent:0;text-align:start;text-decoration:none;text-decoration-line:none;text-decoration-style:solid;text-decoration-color:#000000;letter-spacing:normal;word-spacing:normal;text-transform:none;direction:ltr;block-progression:tb;writing-mode:lr-tb;baseline-shift:baseline;text-anchor:start;white-space:normal;clip-rule:nonzero;display:inline;overflow:visible;visibility:visible;opacity:1;isolation:auto;mix-blend-mode:normal;color-interpolation:sRGB;color-interpolation-filters:linearRGB;solid-color:#000000;solid-opacity:1;fill:#212121;fill-opacity:1;fill-rule:nonzero;stroke:none;stroke-width:2.4000001;stroke-linecap:round;stroke-linejoin:round;stroke-miterlimit:4;stroke-dasharray:none;stroke-dashoffset:0;stroke-opacity:1;color-rendering:auto;image-rendering:auto;shape-rendering:auto;text-rendering:auto;enable-background:accumulate" />
      <path
         inkscape:connector-curvature="0"
         id="path4246"
         d="m 94.860716,65.374574 c -13.908611,0.03327 -27.818681,1.145589 -41.294179,3.238418 -5.954199,0.924725 -6.557864,7.195078 -16.582852,7.195078 -8.246232,0 -14.163536,6.670616 -14.88375,14.885332 l -3.717773,42.398438 c -0.720214,8.21471 6.637517,14.88534 14.88375,14.88534 13.415477,0.5028 6.043038,9.31974 20.300625,9.31974 0,0 28.250938,3.55958 42.404769,3.55958 14.814484,0 40.170934,-3.55958 40.170934,-3.55958 15.38854,-0.83333 5.16724,-9.31974 20.29588,-9.31974 8.24625,0 15.65498,-6.67525 14.88375,-14.88534 L 167.3399,90.693402 C 166.56868,82.483312 160.70082,75.80807 152.45457,75.80807 142.09098,75.259685 142.00542,69.582107 136.14224,68.612992 122.67528,66.387061 108.76933,65.341299 94.860716,65.374574 Z m -0.27844,15.994337 c 15.662814,0 31.316844,1.011409 37.168254,1.43332 1.79723,0.183939 2.49319,1.348898 2.55814,2.263886 l 3.93293,53.382473 c 0.0798,3.91175 -1.2028,5.35442 -4.24301,5.95319 -6.23135,1.31543 -19.03265,3.2843 -39.819724,3.2843 -21.553091,0 -33.876812,-2.11807 -39.438462,-3.42826 -3.474808,-1.35362 -3.417282,-3.7309 -3.319102,-5.38049 l 3.760489,-53.472658 c 0.208594,-1.80728 1.485593,-2.49652 3.156152,-2.64832 6.190272,-0.444443 21.113282,-1.387441 36.244333,-1.387441 z m 57.657134,8.927401 a 4.455,4.455 0 0 1 4.455,4.455 4.455,4.455 0 0 1 -4.455,4.455 4.455,4.455 0 0 1 -4.455,-4.455 4.455,4.455 0 0 1 4.455,-4.455 z m -117.150998,0.259454 2.43,0 c 1.563584,0 2.835,1.271414 2.835,2.835 l 0,5.151093 c -2.3e-5,0.223667 -0.181335,0.404978 -0.405,0.405 l -7.29,0 c -0.223666,-2.2e-5 -0.404977,-0.181333 -0.405,-0.405 l 0,-5.151093 c 0,-1.563586 1.271416,-2.835 2.835,-2.835 z m 108.791548,8.1 a 4.455,4.455 0 0 1 4.455,4.455004 4.455,4.455 0 0 1 -4.455,4.455 4.455,4.455 0 0 1 -4.455,-4.455 4.455,4.455 0 0 1 4.455,-4.455004 z m 16.71891,0 a 4.455,4.455 0 0 1 4.455,4.455004 4.455,4.455 0 0 1 -4.455,4.455 4.455,4.455 0 0 1 -4.455,-4.455 4.455,4.455 0 0 1 4.455,-4.455004 z m -134.015458,0.405 5.151093,0 c 0.223667,2.3e-5 0.404978,0.181334 0.405,0.405 l 0,7.290004 c -2.2e-5,0.22366 -0.181333,0.40497 -0.405,0.405 l -5.151093,0 c -1.563584,0 -2.835,-1.27142 -2.835,-2.835 l 0,-2.43 c 0,-1.56359 1.271416,-2.835004 2.835,-2.835004 z m 14.288906,0 5.151094,0 c 1.563584,0 2.835,1.271414 2.835,2.835004 l 0,2.43 c 0,1.56358 -1.271415,2.835 -2.835,2.835 l -5.151094,0 c -0.223666,-3e-5 -0.404978,-0.18134 -0.405,-0.405 l 0,-7.290004 c 2.2e-5,-0.223666 0.181334,-0.404977 0.405,-0.405 z m 111.367092,7.954454 a 4.455,4.455 0 0 1 4.455,4.455 4.455,4.455 0 0 1 -4.455,4.455 4.455,4.455 0 0 1 -4.455,-4.455 4.455,4.455 0 0 1 4.455,-4.455 z m -119.580998,0.25945 7.29,0 c 0.223665,2e-5 0.404977,0.18134 0.405,0.405 l 0,5.1511 c 0,1.56358 -1.271416,2.835 -2.835,2.835 l -2.43,0 c -1.563584,0 -2.835,-1.27142 -2.835,-2.835 l 0,-5.1511 c 2.3e-5,-0.22366 0.181334,-0.40498 0.405,-0.405 z m 2.233827,12.61196 c 0.166412,-0.0101 0.333665,-0.007 0.499923,0.008 0.443354,0.0413 0.881781,0.17603 1.289355,0.41134 l 10.289531,5.94052 c 1.630298,0.94126 2.096619,3.11556 1.099512,4.8426 -0.997105,1.72704 -3.114214,2.41096 -4.744512,1.4697 l -10.289531,-5.94053 c -1.630297,-0.94124 -2.096617,-3.11713 -1.099512,-4.84417 0.654351,-1.13337 1.790356,-1.81711 2.955234,-1.88736 z m 125.538931,0.36386 c 0.29695,-0.0424 0.59884,0.0844 0.7483,0.3433 0.19928,0.3452 0.0597,0.80625 -0.3085,1.01884 l -15.48966,8.94322 c -0.36822,0.21258 -0.83854,0.10313 -1.03782,-0.24206 -0.19927,-0.34514 -0.0597,-0.80781 0.3085,-1.0204 l 15.48967,-8.94323 c 0.0921,-0.0531 0.19053,-0.0856 0.28951,-0.0997 z m -125.505707,0.44139 c -0.886436,0.0547 -1.764026,0.58022 -2.287618,1.48712 -0.797854,1.38192 -0.415912,3.03419 0.803672,3.73833 l 10.289531,5.94054 c 1.219585,0.70411 2.840818,0.20805 3.638672,-1.17387 0.797854,-1.38193 0.415913,-3.03264 -0.803672,-3.73676 L 36.276517,121.0067 c -0.304896,-0.17602 -0.635432,-0.27749 -0.971367,-0.30849 -0.125976,-0.0116 -0.253054,-0.0141 -0.379687,-0.006 z m 125.505707,1.60418 c 0.29695,-0.0424 0.59884,0.0844 0.7483,0.3433 0.19928,0.34516 0.0597,0.80624 -0.3085,1.01883 l -15.48966,8.94322 c -0.36822,0.21259 -0.83854,0.10311 -1.03782,-0.24205 -0.19927,-0.34515 -0.0597,-0.80782 0.3085,-1.02041 l 15.48967,-8.94322 c 0.0921,-0.0531 0.19053,-0.0856 0.28951,-0.0997 z m 0,1.99969 c 0.29695,-0.0424 0.59884,0.0844 0.7483,0.34331 0.19928,0.34515 0.0597,0.80781 -0.3085,1.0204 l -15.48966,8.94163 c -0.36822,0.2126 -0.83854,0.10312 -1.03782,-0.24203 -0.19927,-0.34515 -0.0597,-0.80783 0.3085,-1.02042 l 15.48967,-8.94322 c 0.0921,-0.0531 0.19053,-0.0856 0.28951,-0.0997 z m 0,2.02183 c 0.29695,-0.0424 0.59884,0.0844 0.7483,0.34331 0.19928,0.34516 0.0597,0.80783 -0.3085,1.0204 l -15.48966,8.94164 c -0.36822,0.2126 -0.83854,0.10312 -1.03782,-0.24204 -0.19927,-0.34515 -0.0597,-0.80782 0.3085,-1.02042 l 15.48967,-8.94164 c 0.0921,-0.0531 0.19053,-0.0871 0.28951,-0.10125 z M 44.715072,126.827 c 0.467295,-0.0334 0.949991,0.0672 1.384278,0.31799 1.158096,0.66863 1.557727,2.161 0.889101,3.3191 -0.668627,1.15808 -2.161005,1.55931 -3.319101,0.89069 -1.158098,-0.66863 -1.559311,-2.16261 -0.890684,-3.32069 0.417891,-0.72381 1.157581,-1.15136 1.936406,-1.20709 z m 115.716098,1.48078 c 0.29695,-0.0424 0.59884,0.0844 0.7483,0.3433 0.19928,0.34516 0.0597,0.80623 -0.3085,1.01882 l -15.48966,8.94323 c -0.36822,0.2126 -0.83854,0.10311 -1.03782,-0.24205 -0.19927,-0.34514 -0.0597,-0.80781 0.3085,-1.02041 l 15.48967,-8.94322 c 0.0921,-0.0532 0.19053,-0.0856 0.28951,-0.0997 z m -126.309379,0.25471 c 0.166411,-0.0101 0.333664,-0.007 0.499922,0.008 0.443353,0.0413 0.881781,0.17601 1.289355,0.41132 l 10.289532,5.94054 c 1.630297,0.94124 2.096617,3.11713 1.099511,4.84418 -0.997106,1.72703 -3.114214,2.40937 -4.744511,1.46812 l -10.289532,-5.94043 c -1.630298,-0.94126 -2.096618,-3.11556 -1.099512,-4.84259 0.65435,-1.13338 1.790356,-1.8184 2.955235,-1.88895 z m 0.03322,0.80683 c -0.886437,0.055 -1.764027,0.58022 -2.287617,1.48712 -0.797855,1.38192 -0.415913,3.03262 0.803671,3.73675 l 10.289532,5.94052 c 1.219585,0.70413 2.840817,0.20965 3.638672,-1.17227 0.797854,-1.38193 0.415913,-3.03422 -0.803672,-3.73835 l -10.289532,-5.94052 c -0.304895,-0.17603 -0.635431,-0.27749 -0.971367,-0.3085 -0.125976,-0.0116 -0.253054,-0.0126 -0.379687,-0.005 z m 9.789609,6.13355 c 0.467295,-0.0335 0.949991,0.0672 1.384278,0.31798 1.158096,0.66862 1.557728,2.16258 0.889101,3.32068 -0.668627,1.15808 -2.161005,1.55773 -3.319101,0.8891 -1.158097,-0.66862 -1.559311,-2.16102 -0.890684,-3.3191 0.417891,-0.72381 1.157581,-1.15295 1.936406,-1.20866 z"
         style="opacity:1;fill:#f44336;fill-opacity:1;fill-rule:nonzero;stroke:none;stroke-width:2.4000001;stroke-linecap:round;stroke-linejoin:round;stroke-miterlimit:4;stroke-dasharray:none;stroke-dashoffset:0;stroke-opacity:1" />
      <rect
         y="88.004974"
         x="58.404381"
         height="50.220001"
         width="72.900002"
         id="rect4167"
         style="opacity:1;fill:#eeeeee;fill-opacity:1;fill-rule:nonzero;stroke:none;stroke-width:2.4000001;stroke-linecap:round;stroke-linejoin:round;stroke-miterlimit:4;stroke-dasharray:none;stroke-dashoffset:0;stroke-opacity:1" />
      <path
         sodipodi:nodetypes="cccccccccccccccccccccccccccccccccccccccccccccccccccccccccccccccccccccccccccccccccccccccccccccccccccccccccccccccccccccccc"
         inkscape:connector-curvature="0"
         id="path4279"
         d="m 121.44479,118.78933 4.05311,0 0,-1.89146 -4.05311,0 0,-1.48614 -1.62123,0 0,-5.94456 1.75634,0 0,5.53925 3.918,0 0,-5.53925 1.75635,0 0,9.72747 -1.62125,0 0,1.48614 -4.18821,0 z m -57.639235,-3.3776 -1.35104,0 0,-8.37642 1.35104,0 0,-1.35104 5.94455,0 0,1.77321 -5.47169,0.0507 -0.0718,7.49826 3.78718,0 0,-3.78291 1.89144,0 0,5.67436 -6.07966,0 z m 9.12314,0 -1.48614,0 0,-2.69659 5.69102,-0.073 -0.003,-1.41859 -4.20233,0 0,-1.75634 4.32332,0 0,1.35103 1.62124,0 0,6.07967 -5.94456,0 z m 4.18821,-1.89145 -3.918,0 0,1.48614 3.918,0 z m 3.4709,-4.05311 7.74261,0 0.0149,1.28349 1.69967,0.0249 0,6.12233 -1.75635,0 0,-5.67436 -2.02655,0 0,5.67436 -1.75635,0 0,-5.67436 -2.02655,0 0,5.67436 -1.89146,0 z m 12.784921,5.94456 -1.48614,0 0,-4.63555 1.64318,-0.0255 -0.002,-1.28348 4.16814,0 0,1.35104 1.48614,0 0,2.74423 -5.6068,0.0254 0,1.35104 4.12066,-0.0152 0,1.97425 -4.32332,0 z m 4.05311,-4.13948 -3.85046,0.0188 -8.1e-4,1.43491 3.8512,-0.0163 z m 3.767704,5.48 0,-11.20308 1.74892,0 0.075,3.85045 3.98556,0.0748 0,1.34382 1.62124,0 0,4.65377 -1.74539,-0.008 0.0215,1.33011 z m 5.6068,-5.46118 -3.7829,0 -0.007,3.54281 3.79004,0.0165 0,-3.55932 z m 5.59642,4.18822 -1.64217,-0.0221 0,-4.64261 1.62124,0.004 0,-1.35104 4.17341,0 0.002,1.28349 1.63481,0.022 0,4.71939 -1.61269,-0.0128 0.0215,1.41859 -4.20421,0 z m 4.03218,-4.25577 -3.918,0 0,3.7829 3.918,0 z"
         style="fill:#f44336" />
    </g>
    <g
       id="g4410">
      <path
         style="color:#000000;font-style:normal;font-variant:normal;font-weight:normal;font-stretch:normal;font-size:medium;line-height:normal;font-family:sans-serif;text-indent:0;text-align:start;text-decoration:none;text-decoration-line:none;text-decoration-style:solid;text-decoration-color:#000000;letter-spacing:normal;word-spacing:normal;text-transform:none;direction:ltr;block-progression:tb;writing-mode:lr-tb;baseline-shift:baseline;text-anchor:start;white-space:normal;clip-rule:nonzero;display:inline;overflow:visible;visibility:visible;opacity:1;isolation:auto;mix-blend-mode:normal;color-interpolation:sRGB;color-interpolation-filters:linearRGB;solid-color:#000000;solid-opacity:1;fill:#f44336;fill-opacity:1;fill-rule:nonzero;stroke:none;stroke-width:2.4000001;stroke-linecap:round;stroke-linejoin:round;stroke-miterlimit:4;stroke-dasharray:none;stroke-dashoffset:0;stroke-opacity:1;color-rendering:auto;image-rendering:auto;shape-rendering:auto;text-rendering:auto;enable-background:accumulate"
         d="m 483.78212,63.42689 c -14.24277,0.03408 -28.48543,1.17443 -42.28454,3.317518 -3.36217,0.522167 -5.23675,2.562538 -7.35328,4.220861 -2.11653,1.658322 -4.50729,3.110272 -9.41942,3.110273 -8.9387,0 -15.38433,7.276815 -16.1557,16.07502 l -3.79371,43.263808 c -0.78923,9.00186 7.21858,16.24588 16.15729,16.24588 l -0.0364,0 c 3.31274,0.12417 5.21672,0.75064 6.48316,1.55197 1.26644,0.80134 1.96287,1.82024 2.79545,2.98846 0.83258,1.16822 1.81079,2.48084 3.55482,3.43617 1.74404,0.95533 4.17917,1.53299 7.91649,1.53298 l -0.12182,-0.006 c 0,0 28.78789,3.63868 43.39353,3.63868 15.23023,0 40.90007,-3.61228 41.04264,-3.63235 4.02039,-0.21771 6.48616,-0.93739 8.15695,-1.99494 1.67079,-1.05754 2.45038,-2.43921 3.09129,-3.57222 0.64091,-1.13302 1.13329,-2.00431 2.35248,-2.70369 1.21918,-0.69939 3.28738,-1.23873 7.05585,-1.23873 8.93909,0 17.00147,-7.24705 16.15572,-16.25062 L 558.71027,90.145841 C 557.88496,81.359974 551.49207,74.075568 542.553,74.075568 l 0.0507,0 c -5.11092,-0.270443 -7.48,-1.720988 -9.49536,-3.303282 -2.01537,-1.582292 -3.74962,-3.48214 -7.04162,-4.026269 -13.79967,-2.280923 -28.04177,-3.353185 -42.28453,-3.319101 z"
         id="path4346"
         inkscape:connector-curvature="0"
         sodipodi:nodetypes="csssccccsssccscssssccccsscc" />
      <path
         style="opacity:1;fill:#212121;fill-opacity:1;fill-rule:nonzero;stroke:none;stroke-width:2.4000001;stroke-linecap:round;stroke-linejoin:round;stroke-miterlimit:4;stroke-dasharray:none;stroke-dashoffset:0;stroke-opacity:1"
         d="m 483.78379,65.374574 c -13.90861,0.03327 -27.81868,1.145589 -41.29418,3.238418 -5.9542,0.924725 -6.55786,7.195078 -16.58285,7.195078 -8.24623,0 -14.16354,6.670616 -14.88375,14.885332 l -3.71778,42.398438 c -0.72021,8.21471 6.63752,14.88534 14.88375,14.88534 13.41548,0.5028 6.04304,9.31974 20.30063,9.31974 0,0 28.25094,3.55958 42.40477,3.55958 14.81448,0 40.17093,-3.55958 40.17093,-3.55958 15.38854,-0.83333 5.16724,-9.31974 20.29588,-9.31974 8.24625,0 15.65498,-6.67525 14.88375,-14.88534 L 556.26297,90.693402 C 555.49175,82.483312 549.62389,75.80807 541.37764,75.80807 531.01405,75.259685 530.92849,69.582107 525.06531,68.612992 511.59835,66.387061 497.6924,65.341299 483.78379,65.374574 Z m -0.27844,15.994337 c 15.66281,0 31.31684,1.011409 37.16825,1.43332 1.79723,0.183939 2.49319,1.348898 2.55814,2.263886 l 3.93293,53.382473 c 0.0798,3.91175 -1.2028,5.35442 -4.24301,5.95319 -6.23135,1.31543 -19.03265,3.2843 -39.81972,3.2843 -21.55309,0 -33.87681,-2.11807 -39.43846,-3.42826 -3.47481,-1.35362 -3.41729,-3.7309 -3.31911,-5.38049 l 3.76049,-53.472658 c 0.2086,-1.80728 1.4856,-2.49652 3.15616,-2.64832 6.19027,-0.444443 21.11328,-1.387441 36.24433,-1.387441 z m 57.65713,8.927401 a 4.455,4.455 0 0 1 4.455,4.455 4.455,4.455 0 0 1 -4.455,4.455 4.455,4.455 0 0 1 -4.455,-4.455 4.455,4.455 0 0 1 4.455,-4.455 z m -117.151,0.259454 2.43,0 c 1.56359,0 2.835,1.271414 2.835,2.835 l 0,5.151093 c -2e-5,0.223667 -0.18133,0.404978 -0.405,0.405 l -7.29,0 c -0.22366,-2.2e-5 -0.40497,-0.181333 -0.405,-0.405 l 0,-5.151093 c 0,-1.563586 1.27142,-2.835 2.835,-2.835 z m 108.79155,8.1 a 4.455,4.455 0 0 1 4.455,4.455004 4.455,4.455 0 0 1 -4.455,4.455 4.455,4.455 0 0 1 -4.455,-4.455 4.455,4.455 0 0 1 4.455,-4.455004 z m 16.71891,0 a 4.455,4.455 0 0 1 4.455,4.455004 4.455,4.455 0 0 1 -4.455,4.455 4.455,4.455 0 0 1 -4.455,-4.455 4.455,4.455 0 0 1 4.455,-4.455004 z m -134.01546,0.405 5.1511,0 c 0.22366,2.3e-5 0.40498,0.181334 0.405,0.405 l 0,7.290004 c -2e-5,0.22366 -0.18134,0.40497 -0.405,0.405 l -5.1511,0 c -1.56358,0 -2.835,-1.27142 -2.835,-2.835 l 0,-2.43 c 0,-1.56359 1.27142,-2.835004 2.835,-2.835004 z m 14.28891,0 5.15109,0 c 1.56359,0 2.835,1.271414 2.835,2.835004 l 0,2.43 c 0,1.56358 -1.27141,2.835 -2.835,2.835 l -5.15109,0 c -0.22367,-3e-5 -0.40498,-0.18134 -0.405,-0.405 l 0,-7.290004 c 2e-5,-0.223666 0.18133,-0.404977 0.405,-0.405 z m 111.36709,7.954454 a 4.455,4.455 0 0 1 4.455,4.455 4.455,4.455 0 0 1 -4.455,4.455 4.455,4.455 0 0 1 -4.455,-4.455 4.455,4.455 0 0 1 4.455,-4.455 z m -119.581,0.25945 7.29,0 c 0.22367,2e-5 0.40498,0.18134 0.405,0.405 l 0,5.1511 c 0,1.56358 -1.27141,2.835 -2.835,2.835 l -2.43,0 c -1.56358,0 -2.835,-1.27142 -2.835,-2.835 l 0,-5.1511 c 3e-5,-0.22366 0.18134,-0.40498 0.405,-0.405 z m 2.23383,12.61196 c 0.16641,-0.0101 0.33367,-0.007 0.49992,0.008 0.44336,0.0413 0.88179,0.17603 1.28936,0.41134 l 10.28953,5.94052 c 1.6303,0.94126 2.09662,3.11556 1.09951,4.8426 -0.9971,1.72704 -3.11421,2.41096 -4.74451,1.4697 l -10.28953,-5.94053 c -1.6303,-0.94124 -2.09662,-3.11713 -1.09951,-4.84417 0.65435,-1.13337 1.79035,-1.81711 2.95523,-1.88736 z m 125.53893,0.36386 c 0.29695,-0.0424 0.59884,0.0844 0.7483,0.3433 0.19928,0.3452 0.0597,0.80625 -0.3085,1.01884 l -15.48966,8.94322 c -0.36822,0.21258 -0.83854,0.10313 -1.03782,-0.24206 -0.19927,-0.34514 -0.0597,-0.80781 0.3085,-1.0204 l 15.48967,-8.94323 c 0.0921,-0.0531 0.19053,-0.0856 0.28951,-0.0997 z m -125.5057,0.44139 c -0.88644,0.0547 -1.76403,0.58022 -2.28762,1.48712 -0.79786,1.38192 -0.41591,3.03419 0.80367,3.73833 l 10.28953,5.94054 c 1.21959,0.70411 2.84082,0.20805 3.63867,-1.17387 0.79786,-1.38193 0.41592,-3.03264 -0.80367,-3.73676 l -10.28953,-5.94054 c -0.3049,-0.17602 -0.63543,-0.27749 -0.97137,-0.30849 -0.12597,-0.0116 -0.25305,-0.0141 -0.37968,-0.006 z m 125.5057,1.60418 c 0.29695,-0.0424 0.59884,0.0844 0.7483,0.3433 0.19928,0.34516 0.0597,0.80624 -0.3085,1.01883 l -15.48966,8.94322 c -0.36822,0.21259 -0.83854,0.10311 -1.03782,-0.24205 -0.19927,-0.34515 -0.0597,-0.80782 0.3085,-1.02041 l 15.48967,-8.94322 c 0.0921,-0.0531 0.19053,-0.0856 0.28951,-0.0997 z m 0,1.99969 c 0.29695,-0.0424 0.59884,0.0844 0.7483,0.34331 0.19928,0.34515 0.0597,0.80781 -0.3085,1.0204 l -15.48966,8.94163 c -0.36822,0.2126 -0.83854,0.10312 -1.03782,-0.24203 -0.19927,-0.34515 -0.0597,-0.80783 0.3085,-1.02042 l 15.48967,-8.94322 c 0.0921,-0.0531 0.19053,-0.0856 0.28951,-0.0997 z m 0,2.02183 c 0.29695,-0.0424 0.59884,0.0844 0.7483,0.34331 0.19928,0.34516 0.0597,0.80783 -0.3085,1.0204 l -15.48966,8.94164 c -0.36822,0.2126 -0.83854,0.10312 -1.03782,-0.24204 -0.19927,-0.34515 -0.0597,-0.80782 0.3085,-1.02042 l 15.48967,-8.94164 c 0.0921,-0.0531 0.19053,-0.0871 0.28951,-0.10125 z m -115.7161,0.50942 c 0.4673,-0.0334 0.95,0.0672 1.38428,0.31799 1.1581,0.66863 1.55773,2.161 0.8891,3.3191 -0.66862,1.15808 -2.161,1.55931 -3.3191,0.89069 -1.1581,-0.66863 -1.55931,-2.16261 -0.89068,-3.32069 0.41789,-0.72381 1.15758,-1.15136 1.9364,-1.20709 z m 115.7161,1.48078 c 0.29695,-0.0424 0.59884,0.0844 0.7483,0.3433 0.19928,0.34516 0.0597,0.80623 -0.3085,1.01882 l -15.48966,8.94323 c -0.36822,0.2126 -0.83854,0.10311 -1.03782,-0.24205 -0.19927,-0.34514 -0.0597,-0.80781 0.3085,-1.02041 l 15.48967,-8.94322 c 0.0921,-0.0532 0.19053,-0.0856 0.28951,-0.0997 z m -126.30938,0.25471 c 0.16641,-0.0101 0.33367,-0.007 0.49993,0.008 0.44335,0.0413 0.88178,0.17601 1.28935,0.41132 l 10.28953,5.94054 c 1.6303,0.94124 2.09662,3.11713 1.09951,4.84418 -0.9971,1.72703 -3.11421,2.40937 -4.74451,1.46812 l -10.28953,-5.94043 c -1.6303,-0.94126 -2.09662,-3.11556 -1.09951,-4.84259 0.65435,-1.13338 1.79035,-1.8184 2.95523,-1.88895 z m 0.0332,0.80683 c -0.88643,0.055 -1.76402,0.58022 -2.28761,1.48712 -0.79786,1.38192 -0.41592,3.03262 0.80367,3.73675 l 10.28953,5.94052 c 1.21958,0.70413 2.84082,0.20965 3.63867,-1.17227 0.79786,-1.38193 0.41591,-3.03422 -0.80367,-3.73835 l -10.28953,-5.94052 c -0.3049,-0.17603 -0.63543,-0.27749 -0.97137,-0.3085 -0.12598,-0.0116 -0.25305,-0.0126 -0.37969,-0.005 z m 9.78961,6.13355 c 0.4673,-0.0335 0.94999,0.0672 1.38428,0.31798 1.1581,0.66862 1.55773,2.16258 0.8891,3.32068 -0.66863,1.15808 -2.161,1.55773 -3.3191,0.8891 -1.1581,-0.66862 -1.55931,-2.16102 -0.89068,-3.3191 0.41789,-0.72381 1.15758,-1.15295 1.9364,-1.20866 z"
         id="path4348"
         inkscape:connector-curvature="0" />
      <rect
         style="opacity:1;fill:#212121;fill-opacity:1;fill-rule:nonzero;stroke:none;stroke-width:2.4000001;stroke-linecap:round;stroke-linejoin:round;stroke-miterlimit:4;stroke-dasharray:none;stroke-dashoffset:0;stroke-opacity:1"
         id="rect4350"
         width="72.900002"
         height="50.220001"
         x="447.32748"
         y="88.004974" />
      <path
         style="fill:#eeeeee"
         d="m 510.36786,118.78933 4.05311,0 0,-1.89146 -4.05311,0 0,-1.48614 -1.62123,0 0,-5.94456 1.75634,0 0,5.53925 3.918,0 0,-5.53925 1.75635,0 0,9.72747 -1.62125,0 0,1.48614 -4.18821,0 z m -57.63923,-3.3776 -1.35104,0 0,-8.37642 1.35104,0 0,-1.35104 5.94455,0 0,1.77321 -5.47169,0.0507 -0.0718,7.49826 3.78718,0 0,-3.78291 1.89144,0 0,5.67436 -6.07966,0 z m 9.12314,0 -1.48614,0 0,-2.69659 5.69102,-0.073 -0.003,-1.41859 -4.20233,0 0,-1.75634 4.32332,0 0,1.35103 1.62124,0 0,6.07967 -5.94456,0 z m 4.18821,-1.89145 -3.918,0 0,1.48614 3.918,0 z m 3.4709,-4.05311 7.74261,0 0.0149,1.28349 1.69967,0.0249 0,6.12233 -1.75635,0 0,-5.67436 -2.02655,0 0,5.67436 -1.75635,0 0,-5.67436 -2.02655,0 0,5.67436 -1.89146,0 z m 12.78492,5.94456 -1.48614,0 0,-4.63555 1.64318,-0.0255 -0.002,-1.28348 4.16814,0 0,1.35104 1.48614,0 0,2.74423 -5.6068,0.0254 0,1.35104 4.12066,-0.0152 0,1.97425 -4.32332,0 z m 4.05311,-4.13948 -3.85046,0.0188 -8.1e-4,1.43491 3.8512,-0.0163 z m 3.7677,5.48 0,-11.20308 1.74892,0 0.075,3.85045 3.98556,0.0748 0,1.34382 1.62124,0 0,4.65377 -1.74539,-0.008 0.0215,1.33011 z m 5.6068,-5.46118 -3.7829,0 -0.007,3.54281 3.79004,0.0165 0,-3.55932 z m 5.59642,4.18822 -1.64217,-0.0221 0,-4.64261 1.62124,0.004 0,-1.35104 4.17341,0 0.002,1.28349 1.63481,0.022 0,4.71939 -1.61269,-0.0128 0.0215,1.41859 -4.20421,0 z m 4.03218,-4.25577 -3.918,0 0,3.7829 3.918,0 z"
         id="path4352"
         inkscape:connector-curvature="0"
         sodipodi:nodetypes="cccccccccccccccccccccccccccccccccccccccccccccccccccccccccccccccccccccccccccccccccccccccccccccccccccccccccccccccccccccccc" />
    </g>
    <g
       id="g4384">
      <circle
         r="60"
         cy="96.000023"
         cx="288"
         id="path4356"
         style="opacity:1;fill:#ffca28;fill-opacity:1;fill-rule:nonzero;stroke:#212121;stroke-width:5;stroke-linecap:round;stroke-linejoin:round;stroke-miterlimit:4;stroke-dasharray:none;stroke-dashoffset:0;stroke-opacity:1" />
      <path
         id="path4377"
         d="m 288,33.5 c -34.48819,0 -62.5,28.011815 -62.5,62.5 0,34.48819 28.01181,62.5 62.5,62.5 34.48819,0 62.5,-28.01181 62.5,-62.5 0,-34.488185 -28.01181,-62.5 -62.5,-62.5 z"
         style="color:#000000;font-style:normal;font-variant:normal;font-weight:normal;font-stretch:normal;font-size:medium;line-height:normal;font-family:sans-serif;text-indent:0;text-align:start;text-decoration:none;text-decoration-line:none;text-decoration-style:solid;text-decoration-color:#000000;letter-spacing:normal;word-spacing:normal;text-transform:none;direction:ltr;block-progression:tb;writing-mode:lr-tb;baseline-shift:baseline;text-anchor:start;white-space:normal;clip-rule:nonzero;display:inline;overflow:visible;visibility:visible;opacity:1;isolation:auto;mix-blend-mode:normal;color-interpolation:sRGB;color-interpolation-filters:linearRGB;solid-color:#000000;solid-opacity:1;fill:#212121;fill-opacity:1;fill-rule:nonzero;stroke:none;stroke-width:5;stroke-linecap:round;stroke-linejoin:round;stroke-miterlimit:4;stroke-dasharray:none;stroke-dashoffset:0;stroke-opacity:1;color-rendering:auto;image-rendering:auto;shape-rendering:auto;text-rendering:auto;enable-background:accumulate"
         inkscape:connector-curvature="0" />
      <path
         id="path4375"
         d="m 288,38.5 c -30.77937,0 -55.86389,24.112095 -57.42188,54.5 l 32.62305,0 A 25,25 0 0 1 288,71 25,25 0 0 1 312.78906,93 l 32.63282,0 C 343.86388,62.612095 318.77937,38.5 288,38.5 Z"
         style="color:#000000;font-style:normal;font-variant:normal;font-weight:normal;font-stretch:normal;font-size:medium;line-height:normal;font-family:sans-serif;text-indent:0;text-align:start;text-decoration:none;text-decoration-line:none;text-decoration-style:solid;text-decoration-color:#000000;letter-spacing:normal;word-spacing:normal;text-transform:none;direction:ltr;block-progression:tb;writing-mode:lr-tb;baseline-shift:baseline;text-anchor:start;white-space:normal;clip-rule:nonzero;display:inline;overflow:visible;visibility:visible;opacity:1;isolation:auto;mix-blend-mode:normal;color-interpolation:sRGB;color-interpolation-filters:linearRGB;solid-color:#000000;solid-opacity:1;fill:#f44336;fill-opacity:1;fill-rule:nonzero;stroke:none;stroke-width:5;stroke-linecap:round;stroke-linejoin:round;stroke-miterlimit:4;stroke-dasharray:none;stroke-dashoffset:0;stroke-opacity:1;color-rendering:auto;image-rendering:auto;shape-rendering:auto;text-rendering:auto;enable-background:accumulate"
         inkscape:connector-curvature="0" />
      <path
         id="circle4360"
         d="m 230.57812,99 c 1.55799,30.3879 26.64251,54.5 57.42188,54.5 30.77937,0 55.86389,-24.1121 57.42188,-54.5 l -32.62305,0 A 25,25 0 0 1 288,121 25,25 0 0 1 263.21094,99 l -32.63282,0 z"
         style="color:#000000;font-style:normal;font-variant:normal;font-weight:normal;font-stretch:normal;font-size:medium;line-height:normal;font-family:sans-serif;text-indent:0;text-align:start;text-decoration:none;text-decoration-line:none;text-decoration-style:solid;text-decoration-color:#000000;letter-spacing:normal;word-spacing:normal;text-transform:none;direction:ltr;block-progression:tb;writing-mode:lr-tb;baseline-shift:baseline;text-anchor:start;white-space:normal;clip-rule:nonzero;display:inline;overflow:visible;visibility:visible;opacity:1;isolation:auto;mix-blend-mode:normal;color-interpolation:sRGB;color-interpolation-filters:linearRGB;solid-color:#000000;solid-opacity:1;fill:#eeeeee;fill-opacity:1;fill-rule:nonzero;stroke:none;stroke-width:5;stroke-linecap:round;stroke-linejoin:round;stroke-miterlimit:4;stroke-dasharray:none;stroke-dashoffset:0;stroke-opacity:1;color-rendering:auto;image-rendering:auto;shape-rendering:auto;text-rendering:auto;enable-background:accumulate"
         inkscape:connector-curvature="0" />
      <path
         id="path4369"
         d="M 288,77.25 A 18.75,18.75 0 0 0 269.25,96 18.75,18.75 0 0 0 288,114.75 18.75,18.75 0 0 0 306.75,96 18.75,18.75 0 0 0 288,77.25 Z m 0,6 A 12.75,12.75 0 0 1 300.75,96 12.75,12.75 0 0 1 288,108.75 12.75,12.75 0 0 1 275.25,96 12.75,12.75 0 0 1 288,83.25 Z"
         style="opacity:1;fill:#eeeeee;fill-opacity:1;fill-rule:nonzero;stroke:none;stroke-width:5;stroke-linecap:round;stroke-linejoin:round;stroke-miterlimit:4;stroke-dasharray:none;stroke-dashoffset:0;stroke-opacity:1"
         inkscape:connector-curvature="0" />
    </g>
  </g>
</svg>
