<?xml version="1.0" encoding="UTF-8" standalone="no"?>
<svg
   xmlns:dc="http://purl.org/dc/elements/1.1/"
   xmlns:cc="http://creativecommons.org/ns#"
   xmlns:rdf="http://www.w3.org/1999/02/22-rdf-syntax-ns#"
   xmlns:svg="http://www.w3.org/2000/svg"
   xmlns="http://www.w3.org/2000/svg"
   version="1.1"
   id="svg2"
   viewBox="0 0 192 192"
   height="192"
   width="192">
  <defs
     id="defs4" />
  <metadata
     id="metadata7">
    <rdf:RDF>
      <cc:Work
         rdf:about="">
        <dc:format>image/svg+xml</dc:format>
        <dc:type
           rdf:resource="http://purl.org/dc/dcmitype/StillImage" />
        <dc:title></dc:title>
      </cc:Work>
    </rdf:RDF>
  </metadata>
  <g
     style="display:inline"
     transform="translate(0,-860.36216)"
     id="layer1">
    <path
       id="rect4155"
       d="m 0.30939226,860.3622 191.38121774,0 c 0.1714,0 0.30939,0.13054 0.30939,0.29268 l 0,191.41462 c 0,0.1622 -0.13799,0.2927 -0.30939,0.2927 l -191.38121774,0 C 0.13798895,1052.3622 0,1052.2317 0,1052.0695 L 0,860.65488 c 0,-0.16214 0.13798895,-0.29268 0.30939226,-0.29268 z"
       style="opacity:1;fill:#00695c;fill-opacity:1;fill-rule:nonzero;stroke:none;stroke-width:1.79999995;stroke-linecap:round;stroke-linejoin:round;stroke-miterlimit:4;stroke-dasharray:none;stroke-dashoffset:0;stroke-opacity:1" />
    <path
       id="path4254"
       d="m 19.646757,1020.8934 -1.507813,0.6856 -0.474609,1.5859 0.882812,1.4004 1.09961,0.3281 16,0 1.505859,-0.6855 0.474609,-1.586 -0.882812,-1.4004 -1.097656,-0.3281 -16,0 z m 32,0 -1.507813,0.6856 -0.474609,1.5859 0.882812,1.4004 1.09961,0.3281 16,0 1.505859,-0.6855 0.474609,-1.586 -0.882812,-1.4004 -1.097656,-0.3281 -16,0 z m 32,0 -1.507813,0.6856 -0.474609,1.5859 0.882812,1.4004 1.09961,0.3281 13.853515,0 1.507813,-0.6855 0.474609,-1.586 -0.882812,-1.4004 -1.09961,-0.3281 -13.853515,0 z m 70.779303,0.1055 a 2,2 0 0 0 -2,2 2,2 0 0 0 2,2 2,2 0 0 0 2,-2 2,2 0 0 0 -2,-2 z m -93.037116,7.3359 -1.505859,0.6856 -0.47461,1.5859 0.882813,1.4004 1.097656,0.3281 16,0 1.507813,-0.6855 0.474609,-1.586 -0.882812,-1.4004 -1.09961,-0.3281 -16,0 z m 32,0 -1.505859,0.6856 -0.47461,1.5859 0.882813,1.4004 1.097656,0.3281 16.000006,0 1.50781,-0.6855 0.47461,-1.586 -0.88281,-1.4004 -1.09961,-0.3281 -16.000006,0 z m 32.000006,0 -1.50586,0.6856 -0.47461,1.5859 0.88281,1.4004 1.09766,0.3281 13.85351,0 1.50782,-0.6855 0.47461,-1.586 -0.88282,-1.4004 -1.09961,-0.3281 -13.85351,0 z m -25.599615,6.8477 -1.507813,0.6836 -0.474609,1.5859 0.882812,1.4004 1.09961,0.3301 16.000005,0 1.50586,-0.6856 0.47656,-1.5859 -0.88476,-1.4004 -1.09766,-0.3281 -16.000005,0 z m 32.000005,0 -1.50781,0.6836 -0.47461,1.5859 0.88281,1.4004 1.09961,0.3301 16,0 1.50586,-0.6856 0.47656,-1.5859 -0.88476,-1.4004 -1.09766,-0.3281 -16,0 z m 32,0 -1.50781,0.6836 -0.47461,1.5859 0.88281,1.4004 1.09961,0.3301 13.85351,0 1.50782,-0.6856 0.47461,-1.5859 -0.88282,-1.4004 -1.09961,-0.3281 -13.85351,0 z m -120.173833,0.7617 a 2,2 0 0 0 -2,2 2,2 0 0 0 2,2 2,2 0 0 0 2,-2 2,2 0 0 0 -2,-2 z"
       style="color:#000000;font-style:normal;font-variant:normal;font-weight:normal;font-stretch:normal;font-size:medium;line-height:normal;font-family:sans-serif;text-indent:0;text-align:start;text-decoration:none;text-decoration-line:none;text-decoration-style:solid;text-decoration-color:#000000;letter-spacing:normal;word-spacing:normal;text-transform:none;direction:ltr;block-progression:tb;writing-mode:lr-tb;baseline-shift:baseline;text-anchor:start;white-space:normal;clip-rule:nonzero;display:inline;overflow:visible;visibility:visible;opacity:1;isolation:auto;mix-blend-mode:normal;color-interpolation:sRGB;color-interpolation-filters:linearRGB;solid-color:#000000;solid-opacity:1;fill:#76ff03;fill-opacity:1;fill-rule:evenodd;stroke:none;stroke-width:4;stroke-linecap:round;stroke-linejoin:round;stroke-miterlimit:4;stroke-dasharray:16, 16;stroke-dashoffset:0;stroke-opacity:1;color-rendering:auto;image-rendering:auto;shape-rendering:auto;text-rendering:auto;enable-background:accumulate" />
  </g>
  <g
     id="g4221"
     style="display:inline">
    <path
       id="path4223"
       d="m 38.455078,31.941406 c -3.244224,0 -5.855469,2.611243 -5.855469,5.855469 l 0,37.087891 c 0,3.244224 2.611245,5.855468 5.855469,5.855468 l 12.533203,0 c 3.978867,0 5.873448,1.901957 5.91211,5.371094 0.0086,0.77416 0.0084,1.724843 0.01367,2.488281 l -18.601562,0 c -3.718327,0 -6.712891,3.040353 -6.712891,6.816407 l 0,43.167964 c 0,3.77607 2.994564,6.81641 6.712891,6.81641 l 115.375001,0 c 3.71832,0 6.71289,-3.04034 6.71289,-6.81641 l 0,-43.167964 c 0,-3.776054 -2.99457,-6.816407 -6.71289,-6.816407 l -18.57031,0 c -0.005,-0.7709 -0.0146,-1.630753 -0.0176,-2.458984 -0.0135,-3.745793 2.82151,-5.400391 5.40039,-5.400391 l 13.04492,0 c 3.24423,0 5.85547,-2.611244 5.85547,-5.855468 l 0,-37.087891 c 0,-3.244226 -2.61124,-5.855469 -5.85547,-5.855469 l -115.089843,0 z"
       style="opacity:1;fill:#212121;fill-opacity:1;fill-rule:nonzero;stroke:none;stroke-width:1;stroke-linecap:round;stroke-linejoin:round;stroke-miterlimit:4;stroke-dasharray:none;stroke-dashoffset:0;stroke-opacity:1" />
    <path
       id="path4229"
       d="M 65.5,39.5 C 65.223,39.5 65,39.723 65,40 l 0,33 c 0,0.277 0.223,0.5 0.5,0.5 l 61,0 c 0.277,0 0.5,-0.223 0.5,-0.5 l 0,-33 c 0,-0.277 -0.223,-0.5 -0.5,-0.5 l -61,0 z m 0,63 c -0.277,0 -0.5,0.223 -0.5,0.5 l 0,33 c 0,0.277 0.223,0.5 0.5,0.5 l 61,0 c 0.277,0 0.5,-0.223 0.5,-0.5 l 0,-33 c 0,-0.277 -0.223,-0.5 -0.5,-0.5 l -61,0 z"
       style="opacity:1;fill:#607d8b;fill-opacity:1;fill-rule:nonzero;stroke:none;stroke-width:1;stroke-linecap:round;stroke-linejoin:round;stroke-miterlimit:4;stroke-dasharray:none;stroke-dashoffset:0;stroke-opacity:1" />
  </g>
  <g
     style="display:inline"
     id="layer4">
    <path
       id="path4151"
       d="m 76.039062,49.638672 c -3.665283,-0.02379 -4.63992,3.64e-4 -4.65039,0.115234 -0.0072,0.07992 -0.0053,0.457731 0.0039,0.837891 0.023,0.95181 -0.04503,1.019934 -0.960937,0.990234 -0.860385,-0.02787 -0.832344,-0.05309 -0.958985,0.962891 -0.09396,0.75378 -0.194789,0.833122 -1.080078,0.857422 -0.229842,0.0063 -0.482277,0.08735 -0.560547,0.18164 -0.09984,0.1203 -0.159905,0.980689 -0.203125,2.88086 l -0.0625,2.708984 0.935547,0 0.935547,0 -0.0059,0.800781 c -0.0041,0.44031 0.02527,0.855305 0.06641,0.921875 0.04143,0.06702 0.456912,0.121094 0.931641,0.121094 l 0.857421,0 0,0.853516 c 0,0.57573 0.0475,0.872959 0.144532,0.912109 0.242502,0.09771 9.004657,0.07917 9.160156,-0.01953 0.1134,-0.07206 0.138964,-0.915755 0.115234,-3.828125 l -0.03125,-3.736328 -2.851562,-0.03125 -2.851563,-0.03125 0,1.154297 0,1.154296 0.865235,0 0.863281,0 0,1.554688 0,1.556641 -1.613281,0 -1.611329,0 0,-0.865235 0,-0.863281 -0.921874,0 -0.921876,0 0,-2.529297 0,-2.529297 c 0.595199,-0.02243 1.189955,-0.01275 1.785157,-0.03516 0.02241,-0.594111 -0.03214,-1.220342 -0.0098,-1.814453 l 3.671875,-0.03125 3.595703,-0.03125 0,-1.09375 0,-1.09375 -4.636719,-0.03125 z m 9.804688,0.08398 -0.02539,1.837891 c -0.600277,0.02252 -1.200506,0.04385 -1.800781,0.06641 l -0.06836,1.671875 -1.695313,0.02734 -0.138672,9.417969 4.033204,0 0,-3.570313 5.068359,0 0,3.570313 3.916015,0 c 3.9e-4,-3.160074 0.0081,-6.320401 0.01563,-9.480469 l -1.742188,0.0078 0,-1.701172 -1.84375,0 L 91.535156,49.75 85.84375,49.722656 Z m 23.74805,0.02539 -3.98633,0.02148 c 0.007,0.600465 0.0157,1.200263 0.0117,1.800781 l -1.67383,0.05664 -0.0254,1.761719 -1.48438,-0.01953 -0.043,-1.798829 -1.71679,0 c -0.0224,-0.595199 -0.046,-1.189956 -0.0684,-1.785156 l -3.916017,0 c -0.02123,4.622034 -0.03984,8.451395 -0.06055,12.958985 l 3.919927,0 c 0,-1.965672 -0.0336,-3.506166 0.0684,-5.357422 l 1.42773,-0.05664 0,1.84375 2.16016,-0.06836 0.0293,-1.716797 1.40624,0.03711 0.0332,5.261719 3.91797,0 0,-12.939453 z m 1.58398,0.01563 -0.0664,12.904297 12.99609,0.01953 c 0.0222,-0.671109 0.0463,-1.342563 0.0684,-2.013672 -3.01738,-0.0201 -6.03537,-0.04048 -9.05274,-0.06055 l 0,-3.224609 c 2.3808,-0.03841 4.76178,0.05598 7.14258,0.01758 0.0222,-0.672 0.0442,-1.478391 0.0664,-2.150391 l -7.27344,0 c 0.0213,-1.0944 0.0431,-2.321615 0.0644,-3.416015 l 8.98438,0.01758 0,-2.072266 -12.92969,-0.02148 z m -23.214842,2.130859 1.412109,0.0098 0,1.855469 1.84375,0 0,3.224609 -5.068359,0 0,-3.214844 1.785156,-0.06836 c 0.0096,-0.602304 0.01904,-1.204316 0.02734,-1.806641 z m 34.433592,61.914059 -11.10156,0.14258 0.002,13.0625 3.89844,0 0,-3.6875 1.49805,0 0,1.84375 1.84375,0 0,1.84375 5.72461,-0.01 -0.0215,-2.125 c -0.59203,-0.0223 -1.18531,-0.0439 -1.77734,-0.0664 -0.0223,-0.59202 -0.044,-1.18532 -0.0664,-1.77734 -0.5952,-0.0225 -1.18995,-0.044 -1.78515,-0.0664 l 0,-1.48242 c 1.20959,-0.0212 2.4193,-0.0414 3.6289,-0.0625 l -0.0859,-5.60742 c -0.54372,-0.1102 -1.12805,-0.0996 -1.6914,-0.0977 -0.024,-0.6366 -0.0471,-1.2734 -0.0664,-1.91016 z m -43.431639,0.12696 c -3.1104,0.005 -6.219678,0.009 -9.330079,0.0137 l -0.06836,1.77148 c -0.638887,0 -1.082463,-0.10542 -1.638672,0.13672 l -0.02148,9.25196 c 0.595201,0.0224 1.189957,0.0459 1.785156,0.0683 l 0,1.83399 9.193359,0.0508 0.138672,-2.05273 1.714844,0 0.07031,-9.23047 -1.775391,-0.0664 -0.06836,-1.77734 z m 17.857421,0.0488 0.0293,13.02734 12.740228,-0.14649 0.13282,-1.98437 -9.05078,-0.0605 0.0644,-3.28125 7.19922,-0.0605 0,-2.07032 -7.25586,0 0,-3.33789 9.04297,-0.0605 c 0.0271,-0.7257 0.0961,-1.25867 -0.0488,-1.9375 l -12.853515,-0.0879 z m -10.628906,0.0566 -3.791015,0.0371 -0.0957,7.46094 c 0.595198,0.0225 1.189955,0.044 1.785156,0.0664 l 0,1.71875 1.84375,0 0,1.84375 c 0.598562,0.011 1.057489,0.0268 1.640625,0.006 l 0.203125,1.83789 2.072265,0 0,-1.84375 1.84375,0 0,-1.83399 c 0.5952,-0.0224 1.189958,-0.044 1.785157,-0.0664 l 0.115234,-1.72852 c 0.554573,-0.0226 1.109489,-0.0459 1.664062,-0.0684 l -0.05273,-7.41992 -3.857422,0.0527 0,7.0332 -1.84375,0 0,1.8418 -1.373047,0 -0.06641,-1.78516 -1.785156,0 -0.08789,-7.15234 z m -14.427734,2.14062 5.068359,0 0,8.64063 -5.068359,0 0,-8.64063 z m 43.429688,0 5.07031,0 0,3.22656 -1.71875,0 c -0.0224,0.5952 -0.046,1.18996 -0.0684,1.78516 -1.20651,0.0247 -2.0736,0.0814 -3.20312,-0.0156 -0.1724,-1.64072 -0.0283,-3.33913 -0.0801,-4.99609 z"
       style="display:inline;fill:#03ffff;fill-opacity:1" />
  </g>
  <g
     id="g4296"
     style="display:inline">
    <path
       id="path4298"
       d="m 38.455078,31.519531 c -2.994475,0 -5.444418,2.22544 -5.804687,5.119141 l 126.699219,0 c -0.36027,-2.893701 -2.81021,-5.119141 -5.80469,-5.119141 l -115.089842,0 z M 38.3125,88.599609 c -3.718327,0 -6.712891,3.040353 -6.712891,6.816407 l 0,1.654296 128.800781,0 0,-1.654296 c 0,-3.776054 -2.99457,-6.816407 -6.71289,-6.816407 l -115.375,0 z"
       style="opacity:1;fill:#616161;fill-opacity:1;fill-rule:nonzero;stroke:none;stroke-width:2.5;stroke-linecap:round;stroke-linejoin:round;stroke-miterlimit:4;stroke-dasharray:none;stroke-dashoffset:0;stroke-opacity:1" />
  </g>
  <g
     style="display:inline"
     id="layer2">
    <path
       id="rect4159"
       d="m 38.455078,30.691406 c -3.914965,0 -7.105469,3.190501 -7.105469,7.105469 l 0,37.087891 c 0,3.914966 3.190503,7.105468 7.105469,7.105468 l 12.533203,0 c 1.790261,0 2.904733,0.417829 3.582031,1.048828 0.677299,0.631001 1.063255,1.576334 1.080079,3.085938 0.0042,0.380192 0.0045,0.849037 0.0078,1.224609 l -17.316406,0 -0.0293,0 c -4.399623,0 -7.962891,3.62973 -7.962891,8.066407 a 1.250125,1.250125 0 0 0 0,0.0039 l 0,43.164054 c 0,4.43669 3.56327,8.06641 7.962891,8.06641 l 115.374995,0 c 4.39962,0 7.96289,-3.62971 7.96289,-8.06641 l 0,-41.255851 a 1.250125,1.250125 0 0 0 0.002,-0.04297 l -0.002,-1.871094 c -6e-5,-0.276578 -0.0139,-0.550693 -0.041,-0.820312 0,0 0,-0.002 0,-0.002 -0.0544,-0.540483 -0.1613,-1.06412 -0.31641,-1.568359 -0.15504,-0.504355 -0.35841,-0.988229 -0.60352,-1.445313 -0.24486,-0.45651 -0.53333,-0.886809 -0.85741,-1.285156 0,0 0,-0.002 0,-0.002 -0.32419,-0.398316 -0.68729,-0.76461 -1.08009,-1.09375 -0.39277,-0.329025 -0.81879,-0.622222 -1.26953,-0.871094 -1.1282,-0.622619 -2.42025,-0.976563 -3.79491,-0.976563 l -17.32813,0 c -0.002,-0.391371 -0.008,-0.806333 -0.01,-1.214843 -0.006,-1.556885 0.52603,-2.495057 1.29101,-3.150391 0.765,-0.655334 1.83727,-0.994141 2.85938,-0.994141 l 13.04492,0 c 3.91497,0 7.10547,-3.190504 7.10547,-7.105468 l 0,-37.087891 c 0,-3.914966 -3.1905,-7.105469 -7.10547,-7.105469 l -115.089837,0 z m 0,2.5 115.089842,0 c 2.57349,0 4.60547,2.031983 4.60547,4.605469 l 0,9.503906 -14.43945,0 c -1.35232,-0.01913 -1.35232,2.019126 0,2 l 14.43945,0 0,0.736328 -14.43945,0 c -1.35232,-0.01913 -1.35232,2.019125 0,2 l 14.43945,0 0,0.789063 -14.43945,0 c -1.35232,-0.01913 -1.35232,2.019125 0,2 l 14.43945,0 0,0.789062 -14.43945,0 c -1.35232,-0.01912 -1.35232,2.019125 0,2 l 14.43945,0 0,0.789063 -14.43945,0 c -1.35232,-0.01913 -1.35232,2.019125 0,2 l 14.43945,0 0,0.683594 -14.43945,0 c -1.35232,-0.01913 -1.35232,2.019125 0,2 l 14.43945,0 0,0.789062 -14.43945,0 c -1.35232,-0.01913 -1.35232,2.019125 0,2 l 14.43945,0 0,9.007813 c 0,2.573483 -2.03198,4.605468 -4.60547,4.605468 l -13.04492,0 c -1.55677,0 -3.19246,0.48729 -4.48633,1.595704 -1.29387,1.108412 -2.17195,2.869685 -2.16406,5.058593 10e-4,0.406492 0.008,0.81037 0.01,1.205078 l -75.701177,0 c -0.0034,-0.391672 -0.0035,-0.863023 -0.0078,-1.253906 -0.02184,-1.959533 -0.602581,-3.699457 -1.876953,-4.886719 -1.274375,-1.187262 -3.09655,-1.71875 -5.285157,-1.71875 l -12.533203,0 c -2.573482,0 -4.605469,-2.031986 -4.605469,-4.605468 l 0,-37.087891 c 0,-2.573484 2.031987,-4.605469 4.605469,-4.605469 z M 65.5,38.25 c -0.09985,0 -0.197125,0.01422 -0.292969,0.03125 l -2.076172,0 c -0.939372,0 -1.740234,0.792902 -1.740234,1.738281 l 0,36.728516 c 0,0.945379 0.794855,1.740234 1.740234,1.740234 l 65.783201,0 c 0.94538,0 1.73828,-0.800864 1.73828,-1.740234 l 0,-36.728516 c 0,-0.93937 -0.7989,-1.738281 -1.73828,-1.738281 l -2.12109,0 C 126.69712,38.264217 126.59985,38.25 126.5,38.25 l -61,0 z m 0.75,2.5 59.5,0 0,31.5 -59.5,0 0,-31.5 z m -25.574219,0.908203 c -1.458804,0 -2.630859,1.232003 -2.630859,2.685547 0,1.453544 1.172055,2.683594 2.630859,2.683594 1.458805,0 2.632813,-1.23005 2.632813,-2.683594 0,-1.453544 -1.174008,-2.685547 -2.632813,-2.685547 z m 7.263672,0 c -1.458804,0 -2.632813,1.232003 -2.632812,2.685547 -10e-7,1.453544 1.174008,2.683594 2.632812,2.683594 1.458804,0 2.63086,-1.23005 2.630859,-2.683594 10e-7,-1.453544 -1.172055,-2.685547 -2.630859,-2.685547 z m -9.525391,7.669922 c -2.704644,-0.03825 -2.704644,2.735516 0,2.697266 l 12.103516,0 c 2.704645,0.03825 2.704645,-2.735517 0,-2.697266 l -12.103516,0 z m 0,3.867187 c -2.704644,-0.03825 -2.704644,2.47575 0,2.4375 l 12.103516,0 c 2.704645,0.03825 2.704645,-2.47575 0,-2.4375 l -12.103516,0 z m -0.101562,36.654297 17.359375,0 c 0.01038,1.915475 0.02139,3.836482 0.0332,6.183594 l -22.853516,0 -0.002,-0.621094 c 1.31e-4,-0.193278 0.009,-0.384535 0.02734,-0.572265 1.27e-4,-0.0013 -1.28e-4,-0.0026 0,-0.0039 0.03711,-0.37664 0.111507,-0.74074 0.216797,-1.089844 0.0533,-0.176633 0.114193,-0.349327 0.183594,-0.517578 0.06854,-0.166309 0.145121,-0.327118 0.228515,-0.484375 0,0 0,-0.002 0,-0.002 0.04955,-0.09336 0.107573,-0.181559 0.16211,-0.271485 0.03723,-0.0614 0.07184,-0.127777 0.111328,-0.1875 0.195048,-0.294751 0.416377,-0.568527 0.662109,-0.818359 0,0 0.002,-0.002 0.002,-0.002 0.246003,-0.249762 0.516967,-0.475972 0.806641,-0.673829 0.144443,-0.09861 0.295233,-0.190974 0.449219,-0.27539 0,0 0.002,-0.002 0.002,-0.002 0.309106,-0.169255 0.636275,-0.309132 0.978516,-0.416016 0,0 0.002,0 0.002,0 0.17093,-0.05327 0.34752,-0.09834 0.52539,-0.134765 0.177891,-0.03636 0.359019,-0.06534 0.542969,-0.08398 0.184519,-0.0187 0.372767,-0.02734 0.5625,-0.02734 z m 19.859375,0 75.705075,0 c 0.0152,1.970935 0.0284,3.860625 0.0449,6.16211 l -75.716802,0 c -0.01174,-2.332509 -0.02286,-4.187963 -0.0332,-6.16211 z m 78.205075,0 17.31055,0 c 3.03702,0 5.46289,2.450976 5.46289,5.566407 a 1.250125,1.250125 0 0 0 0,0.002 l 0,0.617187 -22.72851,0 c -0.0166,-2.320163 -0.0297,-4.269662 -0.0449,-6.185547 z m -103.527341,8.681641 126.300781,0.0039 0,40.04882 c 0,3.11545 -2.42587,5.56641 -5.46289,5.56641 l -115.375,0 c -3.037033,0 -5.462891,-2.45096 -5.462891,-5.56641 l 0,-40.052726 z M 65.5,101.25 c -0.04393,0 -0.08567,0.0103 -0.128906,0.0137 l -2.240235,0 c -0.945398,0 -1.740234,0.79486 -1.740234,1.74024 l 0,36.72851 c 0,0.94538 0.800865,1.73828 1.740234,1.73828 l 65.783201,0 c 0.93937,0 1.73828,-0.79891 1.73828,-1.73828 l 0,-36.72851 c 0,-0.93937 -0.79288,-1.74024 -1.73828,-1.74024 l -2.28515,0 c -0.0432,-0.003 -0.085,-0.0137 -0.12891,-0.0137 l -61,0 z m 0.75,2.5 59.5,0 0,31.5 -59.5,0 0,-31.5 z m 79.30859,7.87891 c -1.92411,0 -3.5,1.57588 -3.5,3.5 0,1.92411 1.57589,3.5 3.5,3.5 1.92412,0 3.5,-1.57589 3.5,-3.5 0,-1.92412 -1.57588,-3.5 -3.5,-3.5 z m -100.824215,0.1875 c -0.625007,0 -1.148443,0.52978 -1.148437,1.15039 l 0,4.72461 c 4.1e-5,0.4142 0.335804,0.74996 0.75,0.75 l 4,0 c 0.414194,-4e-5 0.749959,-0.3358 0.75,-0.75 l 0,-4.72461 c 0,-0.62501 -0.525384,-1.15039 -1.150391,-1.15039 l -3.201172,0 z m 94.796875,5.83984 c -1.92411,0 -3.5,1.57589 -3.5,3.5 0,1.92411 1.57589,3.5 3.5,3.5 1.92411,0 3.5,-1.57589 3.5,-3.5 0,-1.92411 -1.57589,-3.5 -3.5,-3.5 z m 12.2793,0 c -1.92412,0 -3.5,1.57589 -3.5,3.5 0,1.92411 1.57588,3.5 3.5,3.5 1.92411,0 3.5,-1.57589 3.5,-3.5 0,-1.92411 -1.57589,-3.5 -3.5,-3.5 z m -113.576175,0.66016 c -0.625007,0 -1.148437,0.52979 -1.148437,1.15039 l 0,3.19922 c 0,0.6206 0.52343,1.15039 1.148437,1.15039 l 4.726563,0 c 0.414194,-4e-5 0.749959,-0.3358 0.75,-0.75 l 0,-4 c -4.3e-5,-0.4142 -0.335806,-0.74996 -0.75,-0.75 l -4.726563,0 z m 11.476563,0 c -0.414196,4e-5 -0.74996,0.3358 -0.75,0.75 l 0,4 c 4.1e-5,0.4142 0.335804,0.74996 0.75,0.75 l 4.724609,0 c 0.625007,0 1.150391,-0.52539 1.150391,-1.15039 l 0,-3.19922 c 0,-0.62501 -0.525384,-1.15039 -1.150391,-1.15039 l -4.724609,0 z m 95.847652,5.29297 c -1.92411,0 -3.5,1.57586 -3.5,3.5 0,1.9241 1.57589,3.5 3.5,3.5 1.92412,0 3.5,-1.57589 3.5,-3.5 0,-1.92414 -1.57588,-3.50002 -3.5,-3.5 z m -101.222652,0.082 c -0.414196,4e-5 -0.74996,0.3358 -0.75,0.75 l 0,4.72461 c 0,0.6206 0.52343,1.15039 1.148437,1.15039 l 3.201172,0 c 0.625007,0 1.150391,-0.52539 1.150391,-1.15039 l 0,-4.72461 c -4.3e-5,-0.4142 -0.335806,-0.74996 -0.75,-0.75 l -4,0 z"
       style="color:#000000;font-style:normal;font-variant:normal;font-weight:normal;font-stretch:normal;font-size:medium;line-height:normal;font-family:sans-serif;text-indent:0;text-align:start;text-decoration:none;text-decoration-line:none;text-decoration-style:solid;text-decoration-color:#000000;letter-spacing:normal;word-spacing:normal;text-transform:none;direction:ltr;block-progression:tb;writing-mode:lr-tb;baseline-shift:baseline;text-anchor:start;white-space:normal;clip-rule:nonzero;display:inline;overflow:visible;visibility:visible;opacity:1;isolation:auto;mix-blend-mode:normal;color-interpolation:sRGB;color-interpolation-filters:linearRGB;solid-color:#000000;solid-opacity:1;fill:#76ff03;fill-opacity:1;fill-rule:nonzero;stroke:none;stroke-width:2.5;stroke-linecap:round;stroke-linejoin:round;stroke-miterlimit:4;stroke-dasharray:none;stroke-dashoffset:0;stroke-opacity:1;color-rendering:auto;image-rendering:auto;shape-rendering:auto;text-rendering:auto;enable-background:accumulate" />
  </g>
  <g
     style="display:inline"
     id="layer3">
    <path
       id="path4152"
       d="m 137.43555,41.427734 a 0.80008001,0.80008001 0 0 0 -0.78711,0.810547 l 0,3.167969 a 0.80008001,0.80008001 0 1 0 1.59961,0 l 0,-3.167969 a 0.80008001,0.80008001 0 0 0 -0.8125,-0.810547 z m 2.85351,0.0098 a 0.80008001,0.80008001 0 1 0 0,1.599609 l 13.57813,0 a 0.80008001,0.80008001 0 1 0 0,-1.599609 l -13.57813,0 z m -76.449216,3.59375 a 0.80008001,0.80008001 0 0 0 -0.789063,0.810547 l 0,10.130859 a 0.80008001,0.80008001 0 1 0 1.59961,0 l 0,-10.130859 A 0.80008001,0.80008001 0 0 0 63.839844,45.03125 Z m 73.595706,3.724609 a 0.80008001,0.80008001 0 0 0 -0.78711,0.810547 l 0,0.03906 a 0.80008001,0.80008001 0 1 0 1.59961,0 l 0,-0.03906 a 0.80008001,0.80008001 0 0 0 -0.8125,-0.810547 z m 0,2.710938 a 0.80008001,0.80008001 0 0 0 -0.78711,0.810547 l 0,0.03711 a 0.80008001,0.80008001 0 1 0 1.59961,0 l 0,-0.03711 a 0.80008001,0.80008001 0 0 0 -0.8125,-0.810547 z m 0,2.945312 a 0.80008001,0.80008001 0 0 0 -0.78711,0.810547 l 0,0.03906 a 0.80008001,0.80008001 0 1 0 1.59961,0 l 0,-0.03906 a 0.80008001,0.80008001 0 0 0 -0.8125,-0.810547 z m 0,2.785157 a 0.80008001,0.80008001 0 0 0 -0.78711,0.810546 l 0,0.04297 a 0.80008001,0.80008001 0 1 0 1.59961,0 l 0,-0.04297 a 0.80008001,0.80008001 0 0 0 -0.8125,-0.810546 z m -73.595706,2.4902 a 0.80008001,0.80008001 0 0 0 -0.789063,0.810547 l 0,14.962891 a 0.80008001,0.80008001 0 0 0 0.800781,0.798828 l 19.423829,0 a 0.80008001,0.80008001 0 1 0 0,-1.59961 l -18.625,0 0,-14.162109 A 0.80008001,0.80008001 0 0 0 63.839844,59.6875 Z m 73.595706,0.130859 a 0.80008001,0.80008001 0 0 0 -0.78711,0.810547 l 0,0.02734 a 0.80008001,0.80008001 0 1 0 1.59961,0 l 0,-0.02734 a 0.80008001,0.80008001 0 0 0 -0.8125,-0.810547 z m -99.642581,0.542969 a 0.80008001,0.80008001 0 0 0 -0.789063,0.810547 l 0,1.851563 a 0.8007815,0.8007815 0 0 0 1.601563,0 l 0,-1.851563 a 0.80008001,0.80008001 0 0 0 -0.8125,-0.810547 z m 99.642581,2.125 a 0.80008001,0.80008001 0 0 0 -0.78711,0.810547 l 0,0.04297 a 0.80008001,0.80008001 0 1 0 1.59961,0 l 0,-0.04297 a 0.80008001,0.80008001 0 0 0 -0.8125,-0.810547 z m -99.642581,2.673828 a 0.80008001,0.80008001 0 0 0 -0.789063,0.810547 l 0,4.09375 c 0,2.298023 0.11516,3.81717 0.980469,4.904297 0.01014,0.0127 0.02127,0.02658 0.0332,0.04102 A 0.80008001,0.80008001 0 1 0 39.25,73.990234 c -0.004,-0.0049 -0.0084,-0.01103 -0.01367,-0.01758 l -0.002,-0.002 c -0.403592,-0.508656 -0.628906,-1.690591 -0.628906,-3.90625 l 0,-4.09375 a 0.80008001,0.80008001 0 0 0 -0.8125,-0.810547 z m 49.935547,9.5 a 0.80008001,0.80008001 0 1 0 0,1.59961 l 9.080078,0 a 0.80008001,0.80008001 0 1 0 0,-1.59961 l -9.080078,0 z m 13.480464,0 a 0.80008001,0.80008001 0 1 0 0,1.59961 l 7.68164,0 a 0.80008001,0.80008001 0 1 0 0,-1.59961 l -7.68164,0 z m 11.74414,0 a 0.80008001,0.80008001 0 1 0 0,1.59961 l 0.0313,0 a 0.80008001,0.80008001 0 1 0 0,-1.59961 l -0.0313,0 z m 3.53126,0 a 0.80008001,0.80008001 0 1 0 0,1.59961 l 5.41406,0 a 0.80008001,0.80008001 0 1 0 0,-1.59961 l -5.41406,0 z m -73.433599,0.111328 a 0.8007815,0.8007815 0 1 0 0,1.601563 l 10.679688,0 a 0.8007815,0.8007815 0 0 0 0,-1.601563 l -10.679688,0 z m 26.605469,8.074219 a 0.8007815,0.8007815 0 1 0 0,1.601563 l 19.347656,0 a 0.8007815,0.8007815 0 0 0 0,-1.601563 l -19.347656,0 z m 27.980469,0 a 0.8007815,0.8007815 0 1 0 0,1.601563 l 9.451171,0 a 0.8007815,0.8007815 0 0 0 0,-1.601563 l -9.451171,0 z m 18.531251,0 a 0.8007815,0.8007815 0 1 0 0,1.601563 l 14.21289,0 a 0.8007815,0.8007815 0 0 0 0,-1.601563 l -14.21289,0 z m 11.90234,21.412107 a 0.80008001,0.80008001 0 0 0 -0.78906,0.81055 l 0,6.85156 a 0.80008001,0.80008001 0 1 0 1.59961,0 l 0,-6.85156 a 0.80008001,0.80008001 0 0 0 -0.81055,-0.81055 z m 12.74805,5.08789 a 0.70006999,0.70006999 0 0 0 -0.38086,0.0996 c -1.83635,1.06022 -2.52463,3.13775 -2.08008,4.9336 -0.68301,-0.0822 -1.40143,-0.022 -2.07617,0.17968 -1.41554,0.42306 -2.75425,1.41873 -3.16016,2.9336 a 0.70045981,0.70045981 0 1 0 1.35352,0.36133 c 0.23962,-0.89427 1.1453,-1.63582 2.20703,-1.95313 1.06173,-0.31731 2.15451,-0.1619 2.68945,0.37305 a 0.70020542,0.70020542 0 1 0 0.99024,-0.99024 c -1.22343,-1.22342 -1.0129,-3.59448 0.77539,-4.62695 a 0.70006999,0.70006999 0 0 0 -0.31836,-1.31055 z m 9.29883,0 a 0.70006999,0.70006999 0 0 0 -0.29883,1.31055 c 1.78829,1.03247 2.00077,3.40353 0.77734,4.62695 a 0.70020542,0.70020542 0 0 0 0.99024,0.99024 c 0.53495,-0.53495 1.62772,-0.69036 2.68945,-0.37305 1.06173,0.31731 1.96741,1.05886 2.20703,1.95313 a 0.70006999,0.70006999 0 1 0 1.35156,-0.36133 c -0.40591,-1.51487 -1.74265,-2.51054 -3.1582,-2.9336 -0.67542,-0.20186 -1.3945,-0.2643 -2.07812,-0.18164 0.44357,-1.79542 -0.24242,-3.87179 -2.07813,-4.93164 a 0.70006999,0.70006999 0 0 0 -0.33203,-0.0996 0.70006999,0.70006999 0 0 0 -0.0703,0 z m -107.996096,2.37696 a 0.750075,0.750075 0 0 0 -0.740235,0.76172 l 0,3.71484 -3.529297,0 a 0.750075,0.750075 0 1 0 0,1.5 l 4.279297,0 a 0.750075,0.750075 0 0 0 0.75,-0.75 l 0,-4.46484 a 0.750075,0.750075 0 0 0 -0.759765,-0.76172 z m 8.324218,0 a 0.750075,0.750075 0 0 0 -0.740234,0.76172 l 0,4.46484 a 0.750075,0.750075 0 0 0 0.75,0.75 l 4.279297,0 a 0.750075,0.750075 0 1 0 0,-1.5 l -3.529297,0 0,-3.71484 a 0.750075,0.750075 0 0 0 -0.759766,-0.76172 z m 77.624998,7.69531 a 0.80008001,0.80008001 0 0 0 -0.78906,0.81055 l 0,17.29687 -4.97461,0 a 0.80008001,0.80008001 0 1 0 0,1.59961 l 5.77539,0 a 0.80008001,0.80008001 0 0 0 0.79883,-0.79883 l 0,-18.09765 a 0.80008001,0.80008001 0 0 0 -0.81055,-0.81055 z m -92.111326,6.53515 a 0.80008001,0.80008001 0 0 0 -0.789062,0.81055 l 0,3.32031 a 0.800781,0.800781 0 0 0 1.601562,0 l 0,-3.32031 a 0.80008001,0.80008001 0 0 0 -0.8125,-0.81055 z m 119.917966,2.12891 a 0.80008001,0.80008001 0 0 0 -0.78906,0.81055 l 0,6.76367 c 0,2.37691 -0.2511,3.52882 -0.7207,4.00977 -0.2348,0.24047 -0.57011,0.41385 -1.17578,0.5332 -0.60567,0.11934 -1.45258,0.16406 -2.54883,0.16406 l -2.73633,0 a 0.80008001,0.80008001 0 1 0 0,1.59961 l 2.73633,0 c 1.13609,0 2.0608,-0.0364 2.85742,-0.19336 0.79662,-0.15697 1.49298,-0.45505 2.01172,-0.98633 1.03748,-1.06255 1.17773,-2.66389 1.17773,-5.12695 l 0,-6.76367 a 0.80008001,0.80008001 0 0 0 -0.8125,-0.81055 z M 35.958984,134.8457 a 0.80008001,0.80008001 0 0 0 -0.789062,0.81055 c 0,2.46306 0.140254,4.0644 1.177734,5.12695 0.51874,0.53128 1.215103,0.82936 2.011719,0.98633 0.796616,0.15697 1.721328,0.19336 2.857422,0.19336 l 5.964844,0 a 0.80008001,0.80008001 0 1 0 0,-1.59961 l -5.964844,0 c -1.096255,0 -1.943158,-0.0447 -2.548828,-0.16406 -0.605671,-0.11935 -0.940981,-0.29273 -1.175781,-0.5332 -0.469603,-0.48095 -0.720704,-1.63286 -0.720704,-4.00977 a 0.80008001,0.80008001 0 0 0 -0.8125,-0.81055 z m 48.341797,2.67969 a 0.80008001,0.80008001 0 1 0 0,1.59961 l 8.208985,0 a 0.80008001,0.80008001 0 1 0 0,-1.59961 l -8.208985,0 z m 16.312499,0 a 0.80008001,0.80008001 0 1 0 0,1.59961 l 11.41992,0 a 0.80008001,0.80008001 0 1 0 0,-1.59961 l -11.41992,0 z m 16.59766,0 a 0.80008001,0.80008001 0 1 0 0,1.59961 l 0.0312,0 a 0.80008001,0.80008001 0 1 0 0,-1.59961 l -0.0312,0 z m -65.382815,2.83789 a 0.80008001,0.80008001 0 1 0 0,1.59961 l 0.06836,0 a 0.80008001,0.80008001 0 1 0 0,-1.59961 l -0.06836,0 z m 88.134765,0 a 0.80008001,0.80008001 0 1 0 0,1.59961 l 0.35352,0 a 0.80008001,0.80008001 0 1 0 0,-1.59961 l -0.35352,0 z m 3.70313,0 a 0.80008001,0.80008001 0 1 0 0,1.59961 l 0.85546,0 a 0.80008001,0.80008001 0 1 0 0,-1.59961 l -0.85546,0 z"
       style="color:#000000;font-style:normal;font-variant:normal;font-weight:normal;font-stretch:normal;font-size:medium;line-height:normal;font-family:sans-serif;text-indent:0;text-align:start;text-decoration:none;text-decoration-line:none;text-decoration-style:solid;text-decoration-color:#000000;letter-spacing:normal;word-spacing:normal;text-transform:none;direction:ltr;block-progression:tb;writing-mode:lr-tb;baseline-shift:baseline;text-anchor:start;white-space:normal;clip-rule:nonzero;display:inline;overflow:visible;visibility:visible;opacity:1;isolation:auto;mix-blend-mode:normal;color-interpolation:sRGB;color-interpolation-filters:linearRGB;solid-color:#000000;solid-opacity:1;fill:#1fbc00;fill-opacity:1;fill-rule:evenodd;stroke:none;stroke-width:1.60000002;stroke-linecap:round;stroke-linejoin:round;stroke-miterlimit:4;stroke-dasharray:none;stroke-dashoffset:0;stroke-opacity:1;color-rendering:auto;image-rendering:auto;shape-rendering:auto;text-rendering:auto;enable-background:accumulate" />
  </g>
</svg>
