<?xml version="1.0" encoding="utf-8"?>
<!-- Generated by IcoMoon.io -->
<!DOCTYPE svg PUBLIC "-//W3C//DTD SVG 1.1//EN" "http://www.w3.org/Graphics/SVG/1.1/DTD/svg11.dtd">
<svg version="1.1" xmlns="http://www.w3.org/2000/svg" xmlns:xlink="http://www.w3.org/1999/xlink" width="24" height="24" viewBox="0 0 24 24">
<path fill="#444" d="M12 0c-6.628 0-12 5.372-12 12s5.372 12 12 12 12-5.372 12-12-5.372-12-12-12zM9 18c-3.319 0-6-2.681-6-6s2.681-6 6-6c1.622 0 2.977 0.591 4.022 1.57l-1.631 1.566c-0.445-0.427-1.223-0.923-2.391-0.923-2.048 0-3.722 1.697-3.722 3.787s1.673 3.788 3.722 3.788c2.377 0 3.267-1.706 3.403-2.588h-3.403v-2.058h5.667c0.052 0.3 0.094 0.6 0.094 0.994 0 3.431-2.297 5.864-5.761 5.864zM19.5 12v1.5h-1.5v-1.5h-1.5v-1.5h1.5v-1.5h1.5v1.5h1.5v1.5h-1.5z"></path>
</svg>
