<?xml version="1.0" encoding="utf-8"?>
<!-- Generated by IcoMoon.io -->
<!DOCTYPE svg PUBLIC "-//W3C//DTD SVG 1.1//EN" "http://www.w3.org/Graphics/SVG/1.1/DTD/svg11.dtd">
<svg version="1.1" xmlns="http://www.w3.org/2000/svg" xmlns:xlink="http://www.w3.org/1999/xlink" width="24" height="24" viewBox="0 0 24 24">
<path fill="#212121" d="M9 9h4.151v2.128h0.059c0.577-1.036 1.991-2.128 4.098-2.128 4.382 0 5.192 2.728 5.192 6.275v7.225h-4.327v-6.405c0-1.528-0.031-3.493-2.251-3.493-2.253 0-2.597 1.664-2.597 3.382v6.516h-4.325v-13.5z"></path>
<path fill="#212121" d="M1.5 9h4.5v13.5h-4.5v-13.5z"></path>
<path fill="#212121" d="M6 5.25c0 1.243-1.007 2.25-2.25 2.25s-2.25-1.007-2.25-2.25c0-1.243 1.007-2.25 2.25-2.25s2.25 1.007 2.25 2.25z"></path>
</svg>
