<?xml version="1.0" encoding="utf-8"?>
<!-- Generated by IcoMoon.io -->
<!DOCTYPE svg PUBLIC "-//W3C//DTD SVG 1.1//EN" "http://www.w3.org/Graphics/SVG/1.1/DTD/svg11.dtd">
<svg version="1.1" xmlns="http://www.w3.org/2000/svg" xmlns:xlink="http://www.w3.org/1999/xlink" width="24" height="24" viewBox="0 0 24 24">
<path fill="#212121" d="M7.996 5.638v15.71q0 0.335-0.167 0.569t-0.489 0.234q-0.228 0-0.442-0.107l-6.228-3.121q-0.281-0.134-0.475-0.449t-0.194-0.623v-15.268q0-0.268 0.134-0.455t0.388-0.187q0.188 0 0.589 0.201l6.844 3.429q0.040 0.040 0.040 0.067zM8.853 6.991l7.152 11.598-7.152-3.563v-8.036zM24 7.232v14.116q0 0.335-0.188 0.542t-0.509 0.208-0.629-0.174l-5.906-2.946zM23.96 5.625q0 0.040-3.435 5.618t-4.025 6.529l-5.223-8.491 4.339-7.058q0.228-0.375 0.696-0.375 0.188 0 0.348 0.080l7.246 3.616q0.054 0.027 0.054 0.080z"></path>
</svg>
