<?xml version="1.0" encoding="utf-8"?>
<!-- Generated by IcoMoon.io -->
<!DOCTYPE svg PUBLIC "-//W3C//DTD SVG 1.1//EN" "http://www.w3.org/Graphics/SVG/1.1/DTD/svg11.dtd">
<svg version="1.1" xmlns="http://www.w3.org/2000/svg" xmlns:xlink="http://www.w3.org/1999/xlink" width="24" height="24" viewBox="0 0 24 24">
<path fill="#212121" d="M12 0c-6.628 0-12 5.373-12 12 0 5.084 3.163 9.426 7.627 11.174-0.105-0.949-0.2-2.406 0.042-3.442 0.218-0.936 1.407-5.965 1.407-5.965s-0.359-0.719-0.359-1.781c0-1.669 0.967-2.914 2.171-2.914 1.024 0 1.518 0.769 1.518 1.69 0 1.030-0.655 2.569-0.994 3.995-0.283 1.195 0.599 2.169 1.777 2.169 2.133 0 3.772-2.249 3.772-5.495 0-2.873-2.065-4.882-5.013-4.882-3.414 0-5.418 2.561-5.418 5.208 0 1.031 0.397 2.137 0.893 2.739 0.098 0.119 0.112 0.223 0.083 0.344-0.091 0.379-0.293 1.194-0.333 1.361-0.052 0.22-0.174 0.266-0.401 0.16-1.499-0.698-2.436-2.889-2.436-4.649 0-3.785 2.75-7.262 7.929-7.262 4.163 0 7.398 2.966 7.398 6.931 0 4.136-2.608 7.464-6.227 7.464-1.216 0-2.359-0.632-2.75-1.378 0 0-0.602 2.291-0.748 2.853-0.271 1.042-1.002 2.349-1.492 3.146 1.123 0.348 2.316 0.535 3.553 0.535 6.627-0 12-5.373 12-12s-5.373-12-12-12z"></path>
</svg>
