<?xml version="1.0" encoding="utf-8"?>
<!-- Generated by IcoMoon.io -->
<!DOCTYPE svg PUBLIC "-//W3C//DTD SVG 1.1//EN" "http://www.w3.org/Graphics/SVG/1.1/DTD/svg11.dtd">
<svg version="1.1" xmlns="http://www.w3.org/2000/svg" xmlns:xlink="http://www.w3.org/1999/xlink" width="24" height="24" viewBox="0 0 24 24">
<path fill="#212121" d="M12 0c-6.627 0-12 5.373-12 12s5.373 12 12 12 12-5.373 12-12-5.373-12-12-12zM12 6c-0.827 0-1.5 0.673-1.5 1.5v6c0 2.481-2.019 4.5-4.5 4.5s-4.5-2.019-4.5-4.5v-3h3v3c0 0.827 0.673 1.5 1.5 1.5s1.5-0.673 1.5-1.5v-6c0-2.481 2.019-4.5 4.5-4.5s4.5 2.019 4.5 4.172v1.453l-1.922 0.563-1.078-0.563v-1.453c0-0.499-0.673-1.172-1.5-1.172zM18 18c-2.481 0-4.5-2.019-4.5-4.828v-2.906l1.078 0.563 1.922-0.563v2.906c0 1.155 0.673 1.828 1.5 1.828s1.5-0.673 1.5-1.5v-3h3v3c0 2.481-2.019 4.5-4.5 4.5z"></path>
</svg>
