<?xml version="1.0" encoding="UTF-8" standalone="no"?>
<svg
   xmlns:dc="http://purl.org/dc/elements/1.1/"
   xmlns:cc="http://creativecommons.org/ns#"
   xmlns:rdf="http://www.w3.org/1999/02/22-rdf-syntax-ns#"
   xmlns:svg="http://www.w3.org/2000/svg"
   xmlns="http://www.w3.org/2000/svg"
   version="1.1"
   id="svg2"
   width="24"
   viewBox="0 0 24 24"
   height="24"
   fill="#000000">
  <metadata
     id="metadata12">
    <rdf:RDF>
      <cc:Work
         rdf:about="">
        <dc:format>image/svg+xml</dc:format>
        <dc:type
           rdf:resource="http://purl.org/dc/dcmitype/StillImage" />
        <dc:title></dc:title>
      </cc:Work>
    </rdf:RDF>
  </metadata>
  <defs
     id="defs10" />
  <path
     id="path6"
     d="m 21.6,5.4 -4.8,0 0,-2.4 c 0,-1.332 -1.068,-2.4 -2.4,-2.4 l -4.8,0 C 8.268,0.6 7.2,1.668 7.2,3 l 0,2.4 -4.8,0 C 1.068,5.4 0.012,6.468 0.012,7.8 L 0,21 c 0,1.332 1.068,2.4 2.4,2.4 l 19.2,0 C 22.932,23.4 24,22.332 24,21 L 24,7.8 C 24,6.468 22.932,5.4 21.6,5.4 Z m -7.2,0 -4.8,0 0,-2.4 4.8,0 0,2.4 z" />
</svg>
