<svg width="500" height="500" viewBox="0 0 500 500" fill="none" xmlns="http://www.w3.org/2000/svg">
<rect width="500" height="500" fill="#3429AA"/>
<path fill-rule="evenodd" clip-rule="evenodd" d="M336.02 141.274L407.454 141.274L316.718 276.505C327.367 282.143 334.915 293.153 334.915 306.746V343.057C334.915 358.963 347.808 371.856 363.713 371.858L377.891 371.855L377.891 268.804C377.891 255.263 368.546 243.905 355.954 240.826L367.833 223.122C385.802 230.502 398.455 248.175 398.455 268.804L398.455 392.415L363.715 392.422C336.452 392.422 314.35 370.321 314.35 343.057V306.746C314.35 300.663 310.551 295.686 305.119 293.792L238.918 392.455L70.3828 141.274H171.759L255.855 266.608C258.389 270.138 262.498 272.404 267.135 272.404L279.402 272.404L265.625 292.935C254.613 292.46 244.945 286.805 238.998 278.388L238.926 278.287L160.793 161.839H108.945L238.918 355.546L318.589 236.808C299.968 229.743 286.733 211.737 286.733 190.639C286.733 163.402 308.792 141.317 336.02 141.274ZM307.298 190.639C307.298 204.663 317.322 216.347 330.595 218.914L368.892 161.839H336.045C320.163 161.867 307.298 174.751 307.298 190.639Z" fill="white"/>
</svg>
