<svg xmlns="http://www.w3.org/2000/svg" width="1440" height="2560" xmlns:xlink="http://www.w3.org/1999/xlink">
  <path fill="#d6d6d6" d="M437 480c-55.4 0-100 44.6-100 100v1470c0 55.4 44.6 100 100 100h566c55.4 0 100-44.6 100-100V580c0-55.4-44.6-100-100-100H437zm-77 160h720v1280H360V640z"/>
  <path fill="#fff" d="M443 487c-55.4 0-100 44.6-100 100v1457c0 55.4 44.6 100 100 100h554c55.4 0 100-44.6 100-100V587c0-55.4-44.6-100-100-100H443zm-83 153h720v1280H360V640z"/>
  <path fill="#2b2b2b" d="M343 604v1422h754V604H343zm17 36h720v1280H360V640z"/>
  <g>
    <path fill="none" stroke="#c7c7c7" stroke-width="3.1" d="M515.5 1951.5l-19 19.5 19 19.5" stroke-linecap="round" stroke-linejoin="round"/>
    <path fill="none" stroke="#c7c7c7" stroke-width="3.4" d="M926.7 1964.6v25.7h34.6v-25.7l-17.3-13z" stroke-linecap="round" stroke-linejoin="round"/>
    <g fill="#c7c7c7">
      <path d="M773.4 1985.5h-15c-3.6-.4-6-2.7-6.3-6.2v-6c.4-3.2 3.2-6.4 6.4-6.6H784v-6.5H758c-3.5 0-6.5 1.4-9 3.7-2 2.2-3.4 5.7-3.6 9.3v6c.4 3.8 1.6 6.8 3.7 9 2.4 2.2 5.8 3.6 9 3.7h26v-6.6h-10.6M701.3 1960.5v6.6H717v25h6.7v-25h15.7v-6.5h-38zM694.4 1973c0-3.6-1.4-6.6-3.8-9-2.5-2.6-6.4-3.7-9-3.8-2.2-.2-11 0-13 0-2.8 0-5 1-6 1.7v-12H656v42h6.6v-19c.3-3.4 3-6 6-6.3 2.7-.2 10.6-.2 13 0 3.4.2 6 2.8 6 6.4.2 1.4 0 19 0 19h6.8v-19"/>
    </g>
    <g transform="translate(2 -.35)">
      <path id="a" fill="#333" d="M505 2053.5a3.5 3.5 0 1 1-7 0 3.5 3.5 0 1 1 7 0z"/>
      <use width="1440" height="2560" xlink:href="#a"/>
      <use width="1440" height="2560" transform="translate(0 9.45)" xlink:href="#a"/>
      <use width="1440" height="2560" transform="translate(0 18.9)" xlink:href="#a"/>
      <use width="1440" height="2560" transform="translate(0 28.35)" xlink:href="#a"/>
      <use width="1440" height="2560" transform="translate(9.45)" xlink:href="#a"/>
      <use width="1440" height="2560" transform="translate(9.45 9.45)" xlink:href="#a"/>
      <use width="1440" height="2560" transform="translate(9.45 18.9)" xlink:href="#a"/>
      <use width="1440" height="2560" transform="translate(9.45 28.35)" xlink:href="#a"/>
      <use width="1440" height="2560" transform="translate(18.9)" xlink:href="#a"/>
      <use width="1440" height="2560" transform="translate(18.9 9.45)" xlink:href="#a"/>
      <use width="1440" height="2560" transform="translate(18.9 18.9)" xlink:href="#a"/>
      <use width="1440" height="2560" transform="translate(18.9 28.35)" xlink:href="#a"/>
      <use width="1440" height="2560" transform="translate(28.35)" xlink:href="#a"/>
      <use width="1440" height="2560" transform="translate(28.35 9.45)" xlink:href="#a"/>
      <use width="1440" height="2560" transform="translate(28.35 18.9)" xlink:href="#a"/>
      <use width="1440" height="2560" transform="translate(28.35 28.35)" xlink:href="#a"/>
      <use width="1440" height="2560" transform="translate(37.8)" xlink:href="#a"/>
      <use width="1440" height="2560" transform="translate(37.8 9.45)" xlink:href="#a"/>
      <use width="1440" height="2560" transform="translate(37.8 18.9)" xlink:href="#a"/>
      <use width="1440" height="2560" transform="translate(37.8 28.35)" xlink:href="#a"/>
      <use width="1440" height="2560" transform="translate(47.25)" xlink:href="#a"/>
      <use width="1440" height="2560" transform="translate(47.25 9.45)" xlink:href="#a"/>
      <use width="1440" height="2560" transform="translate(47.25 18.9)" xlink:href="#a"/>
      <use width="1440" height="2560" transform="translate(47.25 28.35)" xlink:href="#a"/>
      <use width="1440" height="2560" transform="translate(56.7)" xlink:href="#a"/>
      <use width="1440" height="2560" transform="translate(56.7 9.45)" xlink:href="#a"/>
      <use width="1440" height="2560" transform="translate(56.7 18.9)" xlink:href="#a"/>
      <use width="1440" height="2560" transform="translate(56.7 28.35)" xlink:href="#a"/>
      <use width="1440" height="2560" transform="translate(66.15)" xlink:href="#a"/>
      <use width="1440" height="2560" transform="translate(66.15 9.45)" xlink:href="#a"/>
      <use width="1440" height="2560" transform="translate(66.15 18.9)" xlink:href="#a"/>
      <use width="1440" height="2560" transform="translate(66.15 28.35)" xlink:href="#a"/>
      <use width="1440" height="2560" transform="translate(75.6)" xlink:href="#a"/>
      <use width="1440" height="2560" transform="translate(75.6 9.45)" xlink:href="#a"/>
      <use width="1440" height="2560" transform="translate(75.6 18.9)" xlink:href="#a"/>
      <use width="1440" height="2560" transform="translate(75.6 28.35)" xlink:href="#a"/>
      <use width="1440" height="2560" transform="translate(85.05)" xlink:href="#a"/>
      <use width="1440" height="2560" transform="translate(85.05 9.45)" xlink:href="#a"/>
      <use width="1440" height="2560" transform="translate(85.05 18.9)" xlink:href="#a"/>
      <use width="1440" height="2560" transform="translate(85.05 28.35)" xlink:href="#a"/>
      <use width="1440" height="2560" transform="translate(94.5)" xlink:href="#a"/>
      <use width="1440" height="2560" transform="translate(94.5 9.45)" xlink:href="#a"/>
      <use width="1440" height="2560" transform="translate(94.5 18.9)" xlink:href="#a"/>
      <use width="1440" height="2560" transform="translate(94.5 28.35)" xlink:href="#a"/>
      <use width="1440" height="2560" transform="translate(103.95)" xlink:href="#a"/>
      <use width="1440" height="2560" transform="translate(103.95 9.45)" xlink:href="#a"/>
      <use width="1440" height="2560" transform="translate(103.95 18.9)" xlink:href="#a"/>
      <use width="1440" height="2560" transform="translate(103.95 28.35)" xlink:href="#a"/>
      <use width="1440" height="2560" transform="translate(113.4)" xlink:href="#a"/>
      <use width="1440" height="2560" transform="translate(113.4 9.45)" xlink:href="#a"/>
      <use width="1440" height="2560" transform="translate(113.4 18.9)" xlink:href="#a"/>
      <use width="1440" height="2560" transform="translate(113.4 28.35)" xlink:href="#a"/>
      <use width="1440" height="2560" transform="translate(122.85)" xlink:href="#a"/>
      <use width="1440" height="2560" transform="translate(122.85 9.45)" xlink:href="#a"/>
      <use width="1440" height="2560" transform="translate(122.85 18.9)" xlink:href="#a"/>
      <use width="1440" height="2560" transform="translate(122.85 28.35)" xlink:href="#a"/>
      <use width="1440" height="2560" transform="translate(132.3)" xlink:href="#a"/>
      <use width="1440" height="2560" transform="translate(132.3 9.45)" xlink:href="#a"/>
      <use width="1440" height="2560" transform="translate(132.3 18.9)" xlink:href="#a"/>
      <use width="1440" height="2560" transform="translate(132.3 28.35)" xlink:href="#a"/>
      <use width="1440" height="2560" transform="translate(141.75)" xlink:href="#a"/>
      <use width="1440" height="2560" transform="translate(141.75 9.45)" xlink:href="#a"/>
      <use width="1440" height="2560" transform="translate(141.75 18.9)" xlink:href="#a"/>
      <use width="1440" height="2560" transform="translate(141.75 28.35)" xlink:href="#a"/>
      <use width="1440" height="2560" transform="translate(151.2)" xlink:href="#a"/>
      <use width="1440" height="2560" transform="translate(151.2 9.45)" xlink:href="#a"/>
      <use width="1440" height="2560" transform="translate(151.2 18.9)" xlink:href="#a"/>
      <use width="1440" height="2560" transform="translate(151.2 28.35)" xlink:href="#a"/>
      <use width="1440" height="2560" transform="translate(160.65)" xlink:href="#a"/>
      <use width="1440" height="2560" transform="translate(160.65 9.45)" xlink:href="#a"/>
      <use width="1440" height="2560" transform="translate(160.65 18.9)" xlink:href="#a"/>
      <use width="1440" height="2560" transform="translate(160.65 28.35)" xlink:href="#a"/>
      <use width="1440" height="2560" transform="translate(170.1)" xlink:href="#a"/>
      <use width="1440" height="2560" transform="translate(170.1 9.45)" xlink:href="#a"/>
      <use width="1440" height="2560" transform="translate(170.1 18.9)" xlink:href="#a"/>
      <use width="1440" height="2560" transform="translate(170.1 28.35)" xlink:href="#a"/>
      <use width="1440" height="2560" transform="translate(179.55)" xlink:href="#a"/>
      <use width="1440" height="2560" transform="translate(179.55 9.45)" xlink:href="#a"/>
      <use width="1440" height="2560" transform="translate(179.55 18.9)" xlink:href="#a"/>
      <use width="1440" height="2560" transform="translate(179.55 28.35)" xlink:href="#a"/>
      <use width="1440" height="2560" transform="translate(189)" xlink:href="#a"/>
      <use width="1440" height="2560" transform="translate(189 9.45)" xlink:href="#a"/>
      <use width="1440" height="2560" transform="translate(189 18.9)" xlink:href="#a"/>
      <use width="1440" height="2560" transform="translate(189 28.35)" xlink:href="#a"/>
      <use width="1440" height="2560" transform="translate(198.45)" xlink:href="#a"/>
      <use width="1440" height="2560" transform="translate(198.45 9.45)" xlink:href="#a"/>
      <use width="1440" height="2560" transform="translate(198.45 18.9)" xlink:href="#a"/>
      <use width="1440" height="2560" transform="translate(198.45 28.35)" xlink:href="#a"/>
      <use width="1440" height="2560" transform="translate(207.9)" xlink:href="#a"/>
      <use width="1440" height="2560" transform="translate(207.9 9.45)" xlink:href="#a"/>
      <use width="1440" height="2560" transform="translate(207.9 18.9)" xlink:href="#a"/>
      <use width="1440" height="2560" transform="translate(207.9 28.35)" xlink:href="#a"/>
      <use width="1440" height="2560" transform="translate(217.35)" xlink:href="#a"/>
      <use width="1440" height="2560" transform="translate(217.35 9.45)" xlink:href="#a"/>
      <use width="1440" height="2560" transform="translate(217.35 18.9)" xlink:href="#a"/>
      <use width="1440" height="2560" transform="translate(217.35 28.35)" xlink:href="#a"/>
      <use width="1440" height="2560" transform="translate(226.8)" xlink:href="#a"/>
      <use width="1440" height="2560" transform="translate(226.8 9.45)" xlink:href="#a"/>
      <use width="1440" height="2560" transform="translate(226.8 18.9)" xlink:href="#a"/>
      <use width="1440" height="2560" transform="translate(226.8 28.35)" xlink:href="#a"/>
      <use width="1440" height="2560" transform="translate(236.25)" xlink:href="#a"/>
      <use width="1440" height="2560" transform="translate(236.25 9.45)" xlink:href="#a"/>
      <use width="1440" height="2560" transform="translate(236.25 18.9)" xlink:href="#a"/>
      <use width="1440" height="2560" transform="translate(236.25 28.35)" xlink:href="#a"/>
      <use width="1440" height="2560" transform="translate(245.7)" xlink:href="#a"/>
      <use width="1440" height="2560" transform="translate(245.7 9.45)" xlink:href="#a"/>
      <use width="1440" height="2560" transform="translate(245.7 18.9)" xlink:href="#a"/>
      <use width="1440" height="2560" transform="translate(245.7 28.35)" xlink:href="#a"/>
      <use width="1440" height="2560" transform="translate(255.15)" xlink:href="#a"/>
      <use width="1440" height="2560" transform="translate(255.15 9.45)" xlink:href="#a"/>
      <use width="1440" height="2560" transform="translate(255.15 18.9)" xlink:href="#a"/>
      <use width="1440" height="2560" transform="translate(255.15 28.35)" xlink:href="#a"/>
      <use width="1440" height="2560" transform="translate(264.6)" xlink:href="#a"/>
      <use width="1440" height="2560" transform="translate(264.6 9.45)" xlink:href="#a"/>
      <use width="1440" height="2560" transform="translate(264.6 18.9)" xlink:href="#a"/>
      <use width="1440" height="2560" transform="translate(264.6 28.35)" xlink:href="#a"/>
      <use width="1440" height="2560" transform="translate(274.05)" xlink:href="#a"/>
      <use width="1440" height="2560" transform="translate(274.05 9.45)" xlink:href="#a"/>
      <use width="1440" height="2560" transform="translate(274.05 18.9)" xlink:href="#a"/>
      <use width="1440" height="2560" transform="translate(274.05 28.35)" xlink:href="#a"/>
      <use width="1440" height="2560" transform="translate(283.5)" xlink:href="#a"/>
      <use width="1440" height="2560" transform="translate(283.5 9.45)" xlink:href="#a"/>
      <use width="1440" height="2560" transform="translate(283.5 18.9)" xlink:href="#a"/>
      <use width="1440" height="2560" transform="translate(283.5 28.35)" xlink:href="#a"/>
      <use width="1440" height="2560" transform="translate(292.95)" xlink:href="#a"/>
      <use width="1440" height="2560" transform="translate(292.95 9.45)" xlink:href="#a"/>
      <use width="1440" height="2560" transform="translate(292.95 18.9)" xlink:href="#a"/>
      <use width="1440" height="2560" transform="translate(292.95 28.35)" xlink:href="#a"/>
      <use width="1440" height="2560" transform="translate(302.4)" xlink:href="#a"/>
      <use width="1440" height="2560" transform="translate(302.4 9.45)" xlink:href="#a"/>
      <use width="1440" height="2560" transform="translate(302.4 18.9)" xlink:href="#a"/>
      <use width="1440" height="2560" transform="translate(302.4 28.35)" xlink:href="#a"/>
      <use width="1440" height="2560" transform="translate(311.85)" xlink:href="#a"/>
      <use width="1440" height="2560" transform="translate(311.85 9.45)" xlink:href="#a"/>
      <use width="1440" height="2560" transform="translate(311.85 18.9)" xlink:href="#a"/>
      <use width="1440" height="2560" transform="translate(311.85 28.35)" xlink:href="#a"/>
      <use width="1440" height="2560" transform="translate(321.3)" xlink:href="#a"/>
      <use width="1440" height="2560" transform="translate(321.3 9.45)" xlink:href="#a"/>
      <use width="1440" height="2560" transform="translate(321.3 18.9)" xlink:href="#a"/>
      <use width="1440" height="2560" transform="translate(321.3 28.35)" xlink:href="#a"/>
      <use width="1440" height="2560" transform="translate(330.75)" xlink:href="#a"/>
      <use width="1440" height="2560" transform="translate(330.75 9.45)" xlink:href="#a"/>
      <use width="1440" height="2560" transform="translate(330.75 18.9)" xlink:href="#a"/>
      <use width="1440" height="2560" transform="translate(330.75 28.35)" xlink:href="#a"/>
      <use width="1440" height="2560" transform="translate(340.2)" xlink:href="#a"/>
      <use width="1440" height="2560" transform="translate(340.2 9.45)" xlink:href="#a"/>
      <use width="1440" height="2560" transform="translate(340.2 18.9)" xlink:href="#a"/>
      <use width="1440" height="2560" transform="translate(340.2 28.35)" xlink:href="#a"/>
      <use width="1440" height="2560" transform="translate(349.65)" xlink:href="#a"/>
      <use width="1440" height="2560" transform="translate(349.65 9.45)" xlink:href="#a"/>
      <use width="1440" height="2560" transform="translate(349.65 18.9)" xlink:href="#a"/>
      <use width="1440" height="2560" transform="translate(349.65 28.35)" xlink:href="#a"/>
      <use width="1440" height="2560" transform="translate(359.1)" xlink:href="#a"/>
      <use width="1440" height="2560" transform="translate(359.1 9.45)" xlink:href="#a"/>
      <use width="1440" height="2560" transform="translate(359.1 18.9)" xlink:href="#a"/>
      <use width="1440" height="2560" transform="translate(359.1 28.35)" xlink:href="#a"/>
      <use width="1440" height="2560" transform="translate(368.55)" xlink:href="#a"/>
      <use width="1440" height="2560" transform="translate(368.55 9.45)" xlink:href="#a"/>
      <use width="1440" height="2560" transform="translate(368.55 18.9)" xlink:href="#a"/>
      <use width="1440" height="2560" transform="translate(368.55 28.35)" xlink:href="#a"/>
      <use width="1440" height="2560" transform="translate(378)" xlink:href="#a"/>
      <use width="1440" height="2560" transform="translate(378 9.45)" xlink:href="#a"/>
      <use width="1440" height="2560" transform="translate(378 18.9)" xlink:href="#a"/>
      <use width="1440" height="2560" transform="translate(378 28.35)" xlink:href="#a"/>
      <use width="1440" height="2560" transform="translate(387.45)" xlink:href="#a"/>
      <use width="1440" height="2560" transform="translate(387.45 9.45)" xlink:href="#a"/>
      <use width="1440" height="2560" transform="translate(387.45 18.9)" xlink:href="#a"/>
      <use width="1440" height="2560" transform="translate(387.45 28.35)" xlink:href="#a"/>
      <use width="1440" height="2560" transform="translate(396.9)" xlink:href="#a"/>
      <use width="1440" height="2560" transform="translate(396.9 9.45)" xlink:href="#a"/>
      <use width="1440" height="2560" transform="translate(396.9 18.9)" xlink:href="#a"/>
      <use width="1440" height="2560" transform="translate(396.9 28.35)" xlink:href="#a"/>
      <use width="1440" height="2560" transform="translate(406.35)" xlink:href="#a"/>
      <use width="1440" height="2560" transform="translate(406.35 9.45)" xlink:href="#a"/>
      <use width="1440" height="2560" transform="translate(406.35 18.9)" xlink:href="#a"/>
      <use width="1440" height="2560" transform="translate(406.35 28.35)" xlink:href="#a"/>
      <use width="1440" height="2560" transform="translate(415.8)" xlink:href="#a"/>
      <use width="1440" height="2560" transform="translate(415.8 9.45)" xlink:href="#a"/>
      <use width="1440" height="2560" transform="translate(415.8 18.9)" xlink:href="#a"/>
      <use width="1440" height="2560" transform="translate(415.8 28.35)" xlink:href="#a"/>
      <use width="1440" height="2560" transform="translate(425.25)" xlink:href="#a"/>
      <use width="1440" height="2560" transform="translate(425.25 9.45)" xlink:href="#a"/>
      <use width="1440" height="2560" transform="translate(425.25 18.9)" xlink:href="#a"/>
      <use width="1440" height="2560" transform="translate(425.25 28.35)" xlink:href="#a"/>
      <use width="1440" height="2560" transform="translate(434.7)" xlink:href="#a"/>
      <use width="1440" height="2560" transform="translate(434.7 9.45)" xlink:href="#a"/>
      <use width="1440" height="2560" transform="translate(434.7 18.9)" xlink:href="#a"/>
      <use width="1440" height="2560" transform="translate(434.7 28.35)" xlink:href="#a"/>
      <use width="1440" height="2560" transform="translate(444.15)" xlink:href="#a"/>
      <use width="1440" height="2560" transform="translate(444.15 9.45)" xlink:href="#a"/>
      <use width="1440" height="2560" transform="translate(444.15 18.9)" xlink:href="#a"/>
      <use width="1440" height="2560" transform="translate(444.15 28.35)" xlink:href="#a"/>
    </g>
    <g transform="translate(2 -1505.35)">
      <path id="b" fill="#333" d="M505 2053.5a3.5 3.5 0 1 1-7 0 3.5 3.5 0 1 1 7 0z"/>
      <use width="744.1" height="1052.4" xlink:href="#b"/>
      <use width="744.1" height="1052.4" transform="translate(0 9.45)" xlink:href="#b"/>
      <use width="744.1" height="1052.4" transform="translate(0 18.9)" xlink:href="#b"/>
      <use width="744.1" height="1052.4" transform="translate(0 28.35)" xlink:href="#b"/>
      <use width="744.1" height="1052.4" transform="translate(9.45)" xlink:href="#b"/>
      <use width="744.1" height="1052.4" transform="translate(9.45 9.45)" xlink:href="#b"/>
      <use width="744.1" height="1052.4" transform="translate(9.45 18.9)" xlink:href="#b"/>
      <use width="744.1" height="1052.4" transform="translate(9.45 28.35)" xlink:href="#b"/>
      <use width="744.1" height="1052.4" transform="translate(18.9)" xlink:href="#b"/>
      <use width="744.1" height="1052.4" transform="translate(18.9 9.45)" xlink:href="#b"/>
      <use width="744.1" height="1052.4" transform="translate(18.9 18.9)" xlink:href="#b"/>
      <use width="744.1" height="1052.4" transform="translate(18.9 28.35)" xlink:href="#b"/>
      <use width="744.1" height="1052.4" transform="translate(28.35)" xlink:href="#b"/>
      <use width="744.1" height="1052.4" transform="translate(28.35 9.45)" xlink:href="#b"/>
      <use width="744.1" height="1052.4" transform="translate(28.35 18.9)" xlink:href="#b"/>
      <use width="744.1" height="1052.4" transform="translate(28.35 28.35)" xlink:href="#b"/>
      <use width="744.1" height="1052.4" transform="translate(37.8)" xlink:href="#b"/>
      <use width="744.1" height="1052.4" transform="translate(37.8 9.45)" xlink:href="#b"/>
      <use width="744.1" height="1052.4" transform="translate(37.8 18.9)" xlink:href="#b"/>
      <use width="744.1" height="1052.4" transform="translate(37.8 28.35)" xlink:href="#b"/>
      <use width="744.1" height="1052.4" transform="translate(47.25)" xlink:href="#b"/>
      <use width="744.1" height="1052.4" transform="translate(47.25 9.45)" xlink:href="#b"/>
      <use width="744.1" height="1052.4" transform="translate(47.25 18.9)" xlink:href="#b"/>
      <use width="744.1" height="1052.4" transform="translate(47.25 28.35)" xlink:href="#b"/>
      <use width="744.1" height="1052.4" transform="translate(56.7)" xlink:href="#b"/>
      <use width="744.1" height="1052.4" transform="translate(56.7 9.45)" xlink:href="#b"/>
      <use width="744.1" height="1052.4" transform="translate(56.7 18.9)" xlink:href="#b"/>
      <use width="744.1" height="1052.4" transform="translate(56.7 28.35)" xlink:href="#b"/>
      <use width="744.1" height="1052.4" transform="translate(66.15)" xlink:href="#b"/>
      <use width="744.1" height="1052.4" transform="translate(66.15 9.45)" xlink:href="#b"/>
      <use width="744.1" height="1052.4" transform="translate(66.15 18.9)" xlink:href="#b"/>
      <use width="744.1" height="1052.4" transform="translate(66.15 28.35)" xlink:href="#b"/>
      <use width="744.1" height="1052.4" transform="translate(75.6)" xlink:href="#b"/>
      <use width="744.1" height="1052.4" transform="translate(75.6 9.45)" xlink:href="#b"/>
      <use width="744.1" height="1052.4" transform="translate(75.6 18.9)" xlink:href="#b"/>
      <use width="744.1" height="1052.4" transform="translate(75.6 28.35)" xlink:href="#b"/>
      <use width="744.1" height="1052.4" transform="translate(85.05)" xlink:href="#b"/>
      <use width="744.1" height="1052.4" transform="translate(85.05 9.45)" xlink:href="#b"/>
      <use width="744.1" height="1052.4" transform="translate(85.05 18.9)" xlink:href="#b"/>
      <use width="744.1" height="1052.4" transform="translate(85.05 28.35)" xlink:href="#b"/>
      <use width="744.1" height="1052.4" transform="translate(94.5)" xlink:href="#b"/>
      <use width="744.1" height="1052.4" transform="translate(94.5 9.45)" xlink:href="#b"/>
      <use width="744.1" height="1052.4" transform="translate(94.5 18.9)" xlink:href="#b"/>
      <use width="744.1" height="1052.4" transform="translate(94.5 28.35)" xlink:href="#b"/>
      <use width="744.1" height="1052.4" transform="translate(103.95)" xlink:href="#b"/>
      <use width="744.1" height="1052.4" transform="translate(103.95 9.45)" xlink:href="#b"/>
      <use width="744.1" height="1052.4" transform="translate(103.95 18.9)" xlink:href="#b"/>
      <use width="744.1" height="1052.4" transform="translate(103.95 28.35)" xlink:href="#b"/>
      <use width="744.1" height="1052.4" transform="translate(113.4)" xlink:href="#b"/>
      <use width="744.1" height="1052.4" transform="translate(113.4 9.45)" xlink:href="#b"/>
      <use width="744.1" height="1052.4" transform="translate(113.4 18.9)" xlink:href="#b"/>
      <use width="744.1" height="1052.4" transform="translate(113.4 28.35)" xlink:href="#b"/>
      <use width="744.1" height="1052.4" transform="translate(122.85)" xlink:href="#b"/>
      <use width="744.1" height="1052.4" transform="translate(122.85 9.45)" xlink:href="#b"/>
      <use width="744.1" height="1052.4" transform="translate(122.85 18.9)" xlink:href="#b"/>
      <use width="744.1" height="1052.4" transform="translate(122.85 28.35)" xlink:href="#b"/>
      <use width="744.1" height="1052.4" transform="translate(132.3)" xlink:href="#b"/>
      <use width="744.1" height="1052.4" transform="translate(132.3 9.45)" xlink:href="#b"/>
      <use width="744.1" height="1052.4" transform="translate(132.3 18.9)" xlink:href="#b"/>
      <use width="744.1" height="1052.4" transform="translate(132.3 28.35)" xlink:href="#b"/>
      <use width="744.1" height="1052.4" transform="translate(141.75)" xlink:href="#b"/>
      <use width="744.1" height="1052.4" transform="translate(141.75 9.45)" xlink:href="#b"/>
      <use width="744.1" height="1052.4" transform="translate(141.75 18.9)" xlink:href="#b"/>
      <use width="744.1" height="1052.4" transform="translate(141.75 28.35)" xlink:href="#b"/>
      <use width="744.1" height="1052.4" transform="translate(151.2)" xlink:href="#b"/>
      <use width="744.1" height="1052.4" transform="translate(151.2 9.45)" xlink:href="#b"/>
      <use width="744.1" height="1052.4" transform="translate(151.2 18.9)" xlink:href="#b"/>
      <use width="744.1" height="1052.4" transform="translate(151.2 28.35)" xlink:href="#b"/>
      <use width="744.1" height="1052.4" transform="translate(160.65)" xlink:href="#b"/>
      <use width="744.1" height="1052.4" transform="translate(160.65 9.45)" xlink:href="#b"/>
      <use width="744.1" height="1052.4" transform="translate(160.65 18.9)" xlink:href="#b"/>
      <use width="744.1" height="1052.4" transform="translate(160.65 28.35)" xlink:href="#b"/>
      <use width="744.1" height="1052.4" transform="translate(170.1)" xlink:href="#b"/>
      <use width="744.1" height="1052.4" transform="translate(170.1 9.45)" xlink:href="#b"/>
      <use width="744.1" height="1052.4" transform="translate(170.1 18.9)" xlink:href="#b"/>
      <use width="744.1" height="1052.4" transform="translate(170.1 28.35)" xlink:href="#b"/>
      <use width="744.1" height="1052.4" transform="translate(179.55)" xlink:href="#b"/>
      <use width="744.1" height="1052.4" transform="translate(179.55 9.45)" xlink:href="#b"/>
      <use width="744.1" height="1052.4" transform="translate(179.55 18.9)" xlink:href="#b"/>
      <use width="744.1" height="1052.4" transform="translate(179.55 28.35)" xlink:href="#b"/>
      <use width="744.1" height="1052.4" transform="translate(189)" xlink:href="#b"/>
      <use width="744.1" height="1052.4" transform="translate(189 9.45)" xlink:href="#b"/>
      <use width="744.1" height="1052.4" transform="translate(189 18.9)" xlink:href="#b"/>
      <use width="744.1" height="1052.4" transform="translate(189 28.35)" xlink:href="#b"/>
      <use width="744.1" height="1052.4" transform="translate(198.45)" xlink:href="#b"/>
      <use width="744.1" height="1052.4" transform="translate(198.45 9.45)" xlink:href="#b"/>
      <use width="744.1" height="1052.4" transform="translate(198.45 18.9)" xlink:href="#b"/>
      <use width="744.1" height="1052.4" transform="translate(198.45 28.35)" xlink:href="#b"/>
      <use width="744.1" height="1052.4" transform="translate(207.9)" xlink:href="#b"/>
      <use width="744.1" height="1052.4" transform="translate(207.9 9.45)" xlink:href="#b"/>
      <use width="744.1" height="1052.4" transform="translate(207.9 18.9)" xlink:href="#b"/>
      <use width="744.1" height="1052.4" transform="translate(207.9 28.35)" xlink:href="#b"/>
      <use width="744.1" height="1052.4" transform="translate(217.35)" xlink:href="#b"/>
      <use width="744.1" height="1052.4" transform="translate(217.35 9.45)" xlink:href="#b"/>
      <use width="744.1" height="1052.4" transform="translate(217.35 18.9)" xlink:href="#b"/>
      <use width="744.1" height="1052.4" transform="translate(217.35 28.35)" xlink:href="#b"/>
      <use width="744.1" height="1052.4" transform="translate(226.8)" xlink:href="#b"/>
      <use width="744.1" height="1052.4" transform="translate(226.8 9.45)" xlink:href="#b"/>
      <use width="744.1" height="1052.4" transform="translate(226.8 18.9)" xlink:href="#b"/>
      <use width="744.1" height="1052.4" transform="translate(226.8 28.35)" xlink:href="#b"/>
      <use width="744.1" height="1052.4" transform="translate(236.25)" xlink:href="#b"/>
      <use width="744.1" height="1052.4" transform="translate(236.25 9.45)" xlink:href="#b"/>
      <use width="744.1" height="1052.4" transform="translate(236.25 18.9)" xlink:href="#b"/>
      <use width="744.1" height="1052.4" transform="translate(236.25 28.35)" xlink:href="#b"/>
      <use width="744.1" height="1052.4" transform="translate(245.7)" xlink:href="#b"/>
      <use width="744.1" height="1052.4" transform="translate(245.7 9.45)" xlink:href="#b"/>
      <use width="744.1" height="1052.4" transform="translate(245.7 18.9)" xlink:href="#b"/>
      <use width="744.1" height="1052.4" transform="translate(245.7 28.35)" xlink:href="#b"/>
      <use width="744.1" height="1052.4" transform="translate(255.15)" xlink:href="#b"/>
      <use width="744.1" height="1052.4" transform="translate(255.15 9.45)" xlink:href="#b"/>
      <use width="744.1" height="1052.4" transform="translate(255.15 18.9)" xlink:href="#b"/>
      <use width="744.1" height="1052.4" transform="translate(255.15 28.35)" xlink:href="#b"/>
      <use width="744.1" height="1052.4" transform="translate(264.6)" xlink:href="#b"/>
      <use width="744.1" height="1052.4" transform="translate(264.6 9.45)" xlink:href="#b"/>
      <use width="744.1" height="1052.4" transform="translate(264.6 18.9)" xlink:href="#b"/>
      <use width="744.1" height="1052.4" transform="translate(264.6 28.35)" xlink:href="#b"/>
      <use width="744.1" height="1052.4" transform="translate(274.05)" xlink:href="#b"/>
      <use width="744.1" height="1052.4" transform="translate(274.05 9.45)" xlink:href="#b"/>
      <use width="744.1" height="1052.4" transform="translate(274.05 18.9)" xlink:href="#b"/>
      <use width="744.1" height="1052.4" transform="translate(274.05 28.35)" xlink:href="#b"/>
      <use width="744.1" height="1052.4" transform="translate(283.5)" xlink:href="#b"/>
      <use width="744.1" height="1052.4" transform="translate(283.5 9.45)" xlink:href="#b"/>
      <use width="744.1" height="1052.4" transform="translate(283.5 18.9)" xlink:href="#b"/>
      <use width="744.1" height="1052.4" transform="translate(283.5 28.35)" xlink:href="#b"/>
      <use width="744.1" height="1052.4" transform="translate(292.95)" xlink:href="#b"/>
      <use width="744.1" height="1052.4" transform="translate(292.95 9.45)" xlink:href="#b"/>
      <use width="744.1" height="1052.4" transform="translate(292.95 18.9)" xlink:href="#b"/>
      <use width="744.1" height="1052.4" transform="translate(292.95 28.35)" xlink:href="#b"/>
      <use width="744.1" height="1052.4" transform="translate(302.4)" xlink:href="#b"/>
      <use width="744.1" height="1052.4" transform="translate(302.4 9.45)" xlink:href="#b"/>
      <use width="744.1" height="1052.4" transform="translate(302.4 18.9)" xlink:href="#b"/>
      <use width="744.1" height="1052.4" transform="translate(302.4 28.35)" xlink:href="#b"/>
      <use width="744.1" height="1052.4" transform="translate(311.85)" xlink:href="#b"/>
      <use width="744.1" height="1052.4" transform="translate(311.85 9.45)" xlink:href="#b"/>
      <use width="744.1" height="1052.4" transform="translate(311.85 18.9)" xlink:href="#b"/>
      <use width="744.1" height="1052.4" transform="translate(311.85 28.35)" xlink:href="#b"/>
      <use width="744.1" height="1052.4" transform="translate(321.3)" xlink:href="#b"/>
      <use width="744.1" height="1052.4" transform="translate(321.3 9.45)" xlink:href="#b"/>
      <use width="744.1" height="1052.4" transform="translate(321.3 18.9)" xlink:href="#b"/>
      <use width="744.1" height="1052.4" transform="translate(321.3 28.35)" xlink:href="#b"/>
      <use width="744.1" height="1052.4" transform="translate(330.75)" xlink:href="#b"/>
      <use width="744.1" height="1052.4" transform="translate(330.75 9.45)" xlink:href="#b"/>
      <use width="744.1" height="1052.4" transform="translate(330.75 18.9)" xlink:href="#b"/>
      <use width="744.1" height="1052.4" transform="translate(330.75 28.35)" xlink:href="#b"/>
      <use width="744.1" height="1052.4" transform="translate(340.2)" xlink:href="#b"/>
      <use width="744.1" height="1052.4" transform="translate(340.2 9.45)" xlink:href="#b"/>
      <use width="744.1" height="1052.4" transform="translate(340.2 18.9)" xlink:href="#b"/>
      <use width="744.1" height="1052.4" transform="translate(340.2 28.35)" xlink:href="#b"/>
      <use width="744.1" height="1052.4" transform="translate(349.65)" xlink:href="#b"/>
      <use width="744.1" height="1052.4" transform="translate(349.65 9.45)" xlink:href="#b"/>
      <use width="744.1" height="1052.4" transform="translate(349.65 18.9)" xlink:href="#b"/>
      <use width="744.1" height="1052.4" transform="translate(349.65 28.35)" xlink:href="#b"/>
      <use width="744.1" height="1052.4" transform="translate(359.1)" xlink:href="#b"/>
      <use width="744.1" height="1052.4" transform="translate(359.1 9.45)" xlink:href="#b"/>
      <use width="744.1" height="1052.4" transform="translate(359.1 18.9)" xlink:href="#b"/>
      <use width="744.1" height="1052.4" transform="translate(359.1 28.35)" xlink:href="#b"/>
      <use width="744.1" height="1052.4" transform="translate(368.55)" xlink:href="#b"/>
      <use width="744.1" height="1052.4" transform="translate(368.55 9.45)" xlink:href="#b"/>
      <use width="744.1" height="1052.4" transform="translate(368.55 18.9)" xlink:href="#b"/>
      <use width="744.1" height="1052.4" transform="translate(368.55 28.35)" xlink:href="#b"/>
      <use width="744.1" height="1052.4" transform="translate(378)" xlink:href="#b"/>
      <use width="744.1" height="1052.4" transform="translate(378 9.45)" xlink:href="#b"/>
      <use width="744.1" height="1052.4" transform="translate(378 18.9)" xlink:href="#b"/>
      <use width="744.1" height="1052.4" transform="translate(378 28.35)" xlink:href="#b"/>
      <use width="744.1" height="1052.4" transform="translate(387.45)" xlink:href="#b"/>
      <use width="744.1" height="1052.4" transform="translate(387.45 9.45)" xlink:href="#b"/>
      <use width="744.1" height="1052.4" transform="translate(387.45 18.9)" xlink:href="#b"/>
      <use width="744.1" height="1052.4" transform="translate(387.45 28.35)" xlink:href="#b"/>
      <use width="744.1" height="1052.4" transform="translate(396.9)" xlink:href="#b"/>
      <use width="744.1" height="1052.4" transform="translate(396.9 9.45)" xlink:href="#b"/>
      <use width="744.1" height="1052.4" transform="translate(396.9 18.9)" xlink:href="#b"/>
      <use width="744.1" height="1052.4" transform="translate(396.9 28.35)" xlink:href="#b"/>
      <use width="744.1" height="1052.4" transform="translate(406.35)" xlink:href="#b"/>
      <use width="744.1" height="1052.4" transform="translate(406.35 9.45)" xlink:href="#b"/>
      <use width="744.1" height="1052.4" transform="translate(406.35 18.9)" xlink:href="#b"/>
      <use width="744.1" height="1052.4" transform="translate(406.35 28.35)" xlink:href="#b"/>
      <use width="744.1" height="1052.4" transform="translate(415.8)" xlink:href="#b"/>
      <use width="744.1" height="1052.4" transform="translate(415.8 9.45)" xlink:href="#b"/>
      <use width="744.1" height="1052.4" transform="translate(415.8 18.9)" xlink:href="#b"/>
      <use width="744.1" height="1052.4" transform="translate(415.8 28.35)" xlink:href="#b"/>
      <use width="744.1" height="1052.4" transform="translate(425.25)" xlink:href="#b"/>
      <use width="744.1" height="1052.4" transform="translate(425.25 9.45)" xlink:href="#b"/>
      <use width="744.1" height="1052.4" transform="translate(425.25 18.9)" xlink:href="#b"/>
      <use width="744.1" height="1052.4" transform="translate(425.25 28.35)" xlink:href="#b"/>
      <use width="744.1" height="1052.4" transform="translate(434.7)" xlink:href="#b"/>
      <use width="744.1" height="1052.4" transform="translate(434.7 9.45)" xlink:href="#b"/>
      <use width="744.1" height="1052.4" transform="translate(434.7 18.9)" xlink:href="#b"/>
      <use width="744.1" height="1052.4" transform="translate(434.7 28.35)" xlink:href="#b"/>
      <use width="744.1" height="1052.4" transform="translate(444.15)" xlink:href="#b"/>
      <use width="744.1" height="1052.4" transform="translate(444.15 9.45)" xlink:href="#b"/>
      <use width="744.1" height="1052.4" transform="translate(444.15 18.9)" xlink:href="#b"/>
      <use width="744.1" height="1052.4" transform="translate(444.15 28.35)" xlink:href="#b"/>
    </g>
    <path fill="#222" d="M1055 555a35 35 0 1 1-70 0 35 35 0 1 1 70 0z"/>
    <path fill="#333" d="M1047.5 555a27.5 27.5 0 1 1-55 0 27.5 27.5 0 1 1 55 0z"/>
    <path fill="#535353" d="M1039 555a19 19 0 1 1-38 0 19 19 0 1 1 38 0z"/>
    <path fill="#707070" d="M1032 555a12 12 0 1 1-24 0 12 12 0 1 1 24 0z"/>
    <g fill="#1f1f1f">
      <path d="M476 564.5a10.5 10.5 0 1 1-21 0 10.5 10.5 0 1 1 21 0zM442 564.5a10.5 10.5 0 1 1-21 0 10.5 10.5 0 1 1 21 0z"/>
    </g>
  </g>
</svg>
