<svg xmlns="http://www.w3.org/2000/svg" width="1440" height="2560">
  <path d="M675.97 523.03C572.804 523.46 328 529.82 328 585.47v1441.06c0 89.907 365.187 82.314 392 82.314 20.083 0 392 1.785 392-82.313V585.47c0-68.68-375.108-62.314-392-62.314-3.973 0-20.224-.223-44.03-.125zM360 640h720v1280H360V640z" fill="#505050"/>
  <path d="M676.406 527.03C574.296 527.458 332 533.788 332 589.157V2022.97c0 89.45 361.46 81.874 388 81.874 19.878 0 388 1.798 388-81.875V589.155c0-68.333-371.28-62-388-62-3.933 0-20.03-.223-43.594-.125zM360 640h720v1280H360V640z" fill="#181818"/>
  <g>
    <path fill="#505050" d="M1112 750h7v120h-7zM321 875h7v260h-7z"/>
    <path d="M737 590a17 17 0 1 1-34 0 17 17 0 1 1 34 0z" fill="#353535"/>
    <path d="M485 590a10 10 0 1 1-20 0 10 10 0 1 1 20 0z" fill="#404040"/>
    <path d="M484 590a9 9 0 1 1-18 0 9 9 0 1 1 18 0z"/>
  </g>
</svg>
