<?xml version="1.0" encoding="UTF-8" standalone="no"?>
<!-- Created with Inkscape (http://www.inkscape.org/) -->

<svg
   xmlns:dc="http://purl.org/dc/elements/1.1/"
   xmlns:cc="http://creativecommons.org/ns#"
   xmlns:rdf="http://www.w3.org/1999/02/22-rdf-syntax-ns#"
   xmlns:svg="http://www.w3.org/2000/svg"
   xmlns="http://www.w3.org/2000/svg"
   xmlns:xlink="http://www.w3.org/1999/xlink"
   xmlns:sodipodi="http://sodipodi.sourceforge.net/DTD/sodipodi-0.dtd"
   xmlns:inkscape="http://www.inkscape.org/namespaces/inkscape"
   version="1.1"
   width="192"
   height="192"
   id="svg2"
   style="enable-background:new"
   inkscape:version="0.48.4 r9939"
   sodipodi:docname="v.svg">
  <sodipodi:namedview
     pagecolor="#ffffff"
     bordercolor="#666666"
     borderopacity="1"
     objecttolerance="10"
     gridtolerance="10"
     guidetolerance="10"
     inkscape:pageopacity="0"
     inkscape:pageshadow="2"
     inkscape:window-width="1301"
     inkscape:window-height="744"
     id="namedview57"
     showgrid="false"
     inkscape:zoom="3.203125"
     inkscape:cx="149.85366"
     inkscape:cy="96"
     inkscape:window-x="65"
     inkscape:window-y="24"
     inkscape:window-maximized="1"
     inkscape:current-layer="svg2" />
  <defs
     id="defs4">
    <linearGradient
       id="linearGradient3799">
      <stop
         id="stop3801"
         style="stop-color:#eeeeee;stop-opacity:1"
         offset="0" />
      <stop
         id="stop3803"
         style="stop-color:#eeeeee;stop-opacity:0"
         offset="1" />
    </linearGradient>
    <linearGradient
       id="linearGradient4961">
      <stop
         id="stop4963"
         style="stop-color:#8c8c8c;stop-opacity:1"
         offset="0" />
      <stop
         id="stop4965"
         style="stop-color:#e0e0e0;stop-opacity:0.09803922"
         offset="1" />
    </linearGradient>
    <filter
       color-interpolation-filters="sRGB"
       id="filter3923">
      <feFlood
         id="feFlood3925"
         flood-opacity="0.3"
         flood-color="rgb(0,0,0)"
         result="flood" />
      <feComposite
         in2="SourceGraphic"
         operator="in"
         in="flood"
         result="composite1"
         id="feComposite3927" />
      <feGaussianBlur
         id="feGaussianBlur3929"
         stdDeviation="1"
         result="blur" />
      <feOffset
         id="feOffset3931"
         dx="0"
         dy="1"
         result="offset" />
      <feComposite
         in2="offset"
         operator="over"
         in="SourceGraphic"
         result="fbSourceGraphic"
         id="feComposite3933" />
      <feColorMatrix
         result="fbSourceGraphicAlpha"
         in="fbSourceGraphic"
         values="0 0 0 -1 0 0 0 0 -1 0 0 0 0 -1 0 0 0 0 1 0"
         id="feColorMatrix3935" />
      <feFlood
         id="feFlood3937"
         flood-opacity="0.2"
         flood-color="rgb(0,0,0)"
         result="flood"
         in="fbSourceGraphic" />
      <feComposite
         in2="fbSourceGraphic"
         operator="in"
         in="flood"
         result="composite1"
         id="feComposite3939" />
      <feGaussianBlur
         id="feGaussianBlur3941"
         stdDeviation="0.4"
         result="blur" />
      <feOffset
         id="feOffset3943"
         dx="0"
         dy="0.8"
         result="offset" />
      <feComposite
         in2="offset"
         operator="over"
         in="fbSourceGraphic"
         result="composite2"
         id="feComposite3945" />
    </filter>
    <filter
       color-interpolation-filters="sRGB"
       id="filter4049">
      <feFlood
         id="feFlood4051"
         flood-opacity="0.25"
         flood-color="rgb(26,35,126)"
         result="flood" />
      <feComposite
         in2="SourceGraphic"
         operator="in"
         in="flood"
         result="composite1"
         id="feComposite4053" />
      <feGaussianBlur
         id="feGaussianBlur4055"
         stdDeviation="4.0999999999999996"
         result="blur" />
      <feOffset
         id="feOffset4057"
         dx="2.5"
         dy="4"
         result="offset" />
      <feComposite
         in2="offset"
         operator="over"
         in="SourceGraphic"
         result="fbSourceGraphic"
         id="feComposite4059" />
      <feColorMatrix
         result="fbSourceGraphicAlpha"
         in="fbSourceGraphic"
         values="0 0 0 -1 0 0 0 0 -1 0 0 0 0 -1 0 0 0 0 1 0"
         id="feColorMatrix4061" />
      <feFlood
         id="feFlood4063"
         flood-opacity="0.20000000000000001"
         flood-color="rgb(26,35,126)"
         result="flood"
         in="fbSourceGraphic" />
      <feComposite
         in2="fbSourceGraphic"
         operator="in"
         in="flood"
         result="composite1"
         id="feComposite4065" />
      <feGaussianBlur
         id="feGaussianBlur4067"
         stdDeviation="0.29999999999999999"
         result="blur" />
      <feOffset
         id="feOffset4069"
         dx="0"
         dy="1.5"
         result="offset" />
      <feComposite
         in2="offset"
         operator="over"
         in="fbSourceGraphic"
         result="composite2"
         id="feComposite4071" />
    </filter>
    <linearGradient
       x1="50"
       y1="52"
       x2="155"
       y2="157"
       id="linearGradient4967"
       xlink:href="#linearGradient4961"
       gradientUnits="userSpaceOnUse" />
    <filter
       color-interpolation-filters="sRGB"
       id="filter4971">
      <feBlend
         in2="BackgroundImage"
         mode="multiply"
         id="feBlend4973" />
    </filter>
    <linearGradient
       x1="8.9365854"
       y1="9.2097559"
       x2="111.25854"
       y2="106.61463"
       id="linearGradient3805"
       xlink:href="#linearGradient3799"
       gradientUnits="userSpaceOnUse" />
    <linearGradient
       id="linearGradient3799-8">
      <stop
         id="stop3801-6"
         style="stop-color:#eeeeee;stop-opacity:1"
         offset="0" />
      <stop
         id="stop3803-8"
         style="stop-color:#eeeeee;stop-opacity:0"
         offset="1" />
    </linearGradient>
    <linearGradient
       y2="106.61463"
       x2="111.25854"
       y1="9.2097559"
       x1="8.9365854"
       gradientUnits="userSpaceOnUse"
       id="linearGradient3051"
       xlink:href="#linearGradient3799-8"
       inkscape:collect="always" />
    <linearGradient
       id="linearGradient3799-8-9">
      <stop
         id="stop3801-6-9"
         style="stop-color:#eeeeee;stop-opacity:1"
         offset="0" />
      <stop
         id="stop3803-8-0"
         style="stop-color:#eeeeee;stop-opacity:0"
         offset="1" />
    </linearGradient>
    <linearGradient
       y2="106.61463"
       x2="111.25854"
       y1="9.2097559"
       x1="8.9365854"
       gradientUnits="userSpaceOnUse"
       id="linearGradient3132"
       xlink:href="#linearGradient3799-8-9"
       inkscape:collect="always" />
  </defs>
  <metadata
     id="metadata7">
    <rdf:RDF>
      <cc:Work
         rdf:about="">
        <dc:format>image/svg+xml</dc:format>
        <dc:type
           rdf:resource="http://purl.org/dc/dcmitype/StillImage" />
        <dc:title />
      </cc:Work>
    </rdf:RDF>
  </metadata>
  <g
     id="g3919"
     style="display:inline">
    <path
       d="M 184,96.000002 C 184,144.60106 144.60106,184 96.000004,184 47.398943,184 8,144.60106 8,96.000002 8,47.398944 47.398943,8 96.000004,8 144.60106,8 184,47.398944 184,96.000002 z"
       id="path3921"
       style="fill:#ffc107;fill-opacity:1;fill-rule:nonzero;stroke:none;filter:url(#filter3923)" />
  </g>
  <g
     id="layer2"
     style="display:inline">
    <path
       d="M 184,96.000002 C 184,144.60106 144.60106,184 96.000004,184 47.398943,184 8,144.60106 8,96.000002 8,47.398944 47.398943,8 96.000004,8 144.60106,8 184,47.398944 184,96.000002 z"
       id="path3051"
       style="fill:#ffc107;fill-opacity:1;fill-rule:nonzero;stroke:none" />
  </g>
  <g
     id="g3951"
     style="opacity:0.5;display:inline">
    <path
       d="M 96,8 C 47.825509,8 8.7144807,46.706683 8.03125,94.71875 9.2359721,47.167413 48.158331,9 96,9 143.84166,9 182.76403,47.167413 183.96875,94.71875 183.28552,46.706683 144.17449,8 96,8 z M 8.8125,108.03125 c 0.1542334,1.1289 0.3346195,2.22891 0.53125,3.34375 -0.1963207,-1.11423 -0.3772792,-2.21547 -0.53125,-3.34375 z m 174.375,0 c -0.15397,1.12828 -0.33493,2.22952 -0.53125,3.34375 0.19663,-1.11484 0.37702,-2.21485 0.53125,-3.34375 z M 9.75,113.5 c 0.110013,0.54548 0.2236988,1.08322 0.34375,1.625 C 9.9749229,114.58851 9.858984,114.04013 9.75,113.5 z m 172.5,0 c -0.10898,0.54013 -0.22492,1.08851 -0.34375,1.625 0.12005,-0.54178 0.23374,-1.07952 0.34375,-1.625 z M 19.34375,139.21875 c 0.457975,0.81062 0.923568,1.61186 1.40625,2.40625 -0.482959,-0.79472 -0.948024,-1.59528 -1.40625,-2.40625 z m 153.3125,0 c -0.45823,0.81097 -0.92329,1.61153 -1.40625,2.40625 0.48268,-0.79439 0.94827,-1.59563 1.40625,-2.40625 z M 24.4375,147.1875 c 0.59395,0.82896 1.190813,1.66163 1.8125,2.46875 -0.623967,-0.81 -1.216476,-1.63675 -1.8125,-2.46875 z m 143.125,0 c -0.59602,0.832 -1.18853,1.65875 -1.8125,2.46875 0.62169,-0.80712 1.21855,-1.63979 1.8125,-2.46875 z M 41.65625,165.21875 c 0.71365,0.56083 1.456324,1.11726 2.1875,1.65625 -0.739976,-0.54533 -1.465476,-1.08856 -2.1875,-1.65625 z m 108.6875,0 c -0.72202,0.56769 -1.44752,1.11092 -2.1875,1.65625 0.73118,-0.53899 1.47385,-1.09542 2.1875,-1.65625 z m -102.75,4.25 c 0.918514,0.60642 1.839097,1.20878 2.78125,1.78125 -0.942882,-0.57282 -1.862048,-1.17443 -2.78125,-1.78125 z m 96.8125,0 c -0.9192,0.60682 -1.83837,1.20843 -2.78125,1.78125 0.94215,-0.57247 1.86274,-1.17483 2.78125,-1.78125 z M 51,171.625 c 1.006774,0.60033 2.030254,1.18925 3.0625,1.75 -1.038158,-0.56358 -2.050099,-1.14639 -3.0625,-1.75 z m 90,0 c -1.0124,0.60361 -2.02434,1.18642 -3.0625,1.75 1.03225,-0.56075 2.05573,-1.14967 3.0625,-1.75 z"
       id="path3953"
       style="fill:#f5f5f5;fill-opacity:1;fill-rule:nonzero;stroke:none;display:inline" />
    <path
       d="m 54.06225,18.625002 c -1.032246,0.56075 -2.055726,1.149667 -3.0625,1.75 1.012401,-0.603606 2.024342,-1.186422 3.0625,-1.75 z m 83.875,0 c 1.03816,0.563578 2.0501,1.146394 3.0625,1.75 -1.00677,-0.600333 -2.03025,-1.18925 -3.0625,-1.75 z m -87.5625,2.125 c -0.942153,0.572466 -1.862736,1.174833 -2.78125,1.78125 0.919202,-0.606824 1.838368,-1.208428 2.78125,-1.78125 z m 91.25,0 c 0.94288,0.572822 1.86205,1.174426 2.78125,1.78125 -0.91851,-0.606417 -1.8391,-1.208784 -2.78125,-1.78125 z m -97.78125,4.375 c -0.731176,0.53899 -1.47385,1.095421 -2.1875,1.65625 0.722024,-0.567694 1.447524,-1.110921 2.1875,-1.65625 z m 104.3125,0 c 0.73998,0.545329 1.46548,1.088556 2.1875,1.65625 -0.71365,-0.560829 -1.45632,-1.11726 -2.1875,-1.65625 z M 26.24975,42.343752 c -0.621687,0.807121 -1.21855,1.639792 -1.8125,2.46875 0.596024,-0.832002 1.188533,-1.658748 1.8125,-2.46875 z m 139.5,0 c 0.62397,0.810002 1.21648,1.636748 1.8125,2.46875 -0.59395,-0.828958 -1.19081,-1.661629 -1.8125,-2.46875 z m -145,8.03125 c -0.482682,0.794389 -0.948275,1.595626 -1.40625,2.40625 0.458226,-0.810973 0.923291,-1.611535 1.40625,-2.40625 z m 150.5,0 c 0.48296,0.794715 0.94802,1.595277 1.40625,2.40625 -0.45798,-0.810624 -0.92357,-1.611861 -1.40625,-2.40625 z m -161.15625,26.5 c -0.1200512,0.541777 -0.233737,1.079518 -0.34375,1.625 0.108984,-0.54013 0.2249229,-1.088506 0.34375,-1.625 z m 171.8125,0 c 0.11883,0.536494 0.23477,1.08487 0.34375,1.625 -0.11001,-0.545482 -0.2237,-1.083223 -0.34375,-1.625 z m -172.5625,3.75 c -0.1966305,1.114841 -0.3770166,2.214854 -0.53125,3.34375 0.1539708,-1.128277 0.3349293,-2.229518 0.53125,-3.34375 z m 173.3125,0 c 0.19632,1.114232 0.37728,2.215473 0.53125,3.34375 -0.15423,-1.128896 -0.33462,-2.228909 -0.53125,-3.34375 z M 8.031,97.281252 C 8.7142307,145.29332 47.825259,184 95.99975,184 144.17424,184 183.28527,145.29332 183.9685,97.281252 182.76378,144.83259 143.84141,183 95.99975,183 48.158081,183 9.2357221,144.83259 8.031,97.281252 z"
       id="path3953-0"
       style="fill:#c62828;fill-opacity:1;fill-rule:nonzero;stroke:none;display:inline" />
  </g>
  <g
     id="g4124"
     style="opacity:0.65;display:inline;filter:url(#filter4971)">
    <path
       d="M 147.8125,45.59375 88.25,124.09375 38.21875,74.0625 c -3.348261,-3.62671 -8.300221,0.19199 -6.9375,3.875 l 32.5625,81.53125 c 0.273222,0.69322 0.74457,1.30707 1.34375,1.75 l 22.375,22.375 C 90.338196,183.85767 93.155191,184 96,184 c 48.60106,0 88,-39.39894 88,-88 0,-8.318753 -1.15537,-16.371863 -3.3125,-24 L 154.21875,45.5625 c -1.90352,-1.977016 -4.82945,-2.040022 -6.40625,0.03125 z"
       id="path4126"
       style="font-size:medium;font-style:normal;font-variant:normal;font-weight:normal;font-stretch:normal;text-indent:0;text-align:start;text-decoration:none;line-height:normal;letter-spacing:normal;word-spacing:normal;text-transform:none;direction:ltr;block-progression:tb;writing-mode:lr-tb;text-anchor:start;baseline-shift:baseline;color:#000000;fill:url(#linearGradient4967);fill-opacity:1;stroke:none;stroke-width:8;marker:none;visibility:visible;display:inline;overflow:visible;enable-background:accumulate;font-family:Sans;-inkscape-font-specification:Sans" />
  </g>
  <g
     id="g4013"
     style="display:inline">
    <path
       d="m 150.78125,43.96875 a 4.0004,4.0004 0 0 0 -2.96875,1.625 L 68.65625,149.9375 38.71875,74.96875 a 4.0040568,4.0040568 0 1 0 -7.4375,2.96875 l 32.5625,81.53125 a 4.0004,4.0004 0 0 0 6.90625,0.9375 l 83.4375,-110 a 4.0004,4.0004 0 0 0 -3.40625,-6.4375 z m -26.4375,91.375 c -3.68333,0 -6.6875,2.97292 -6.6875,6.65625 0,3.68334 3.00417,6.65625 6.6875,6.65625 3.68333,0 6.65625,-2.97291 6.65625,-6.65625 0,-3.68333 -2.97292,-6.65625 -6.65625,-6.65625 z m 0,16.65625 C 119.89375,152 111,154.22292 111,158.65625 l 0,3.34375 26.65625,0 0,-3.34375 c 0,-4.43333 -8.8625,-6.65625 -13.3125,-6.65625 z"
       id="path4015"
       style="font-size:medium;font-style:normal;font-variant:normal;font-weight:normal;font-stretch:normal;text-indent:0;text-align:start;text-decoration:none;line-height:normal;letter-spacing:normal;word-spacing:normal;text-transform:none;direction:ltr;block-progression:tb;writing-mode:lr-tb;text-anchor:start;baseline-shift:baseline;color:#000000;fill:#1a237e;fill-opacity:1;stroke:none;stroke-width:8;marker:none;visibility:visible;display:inline;overflow:visible;filter:url(#filter4049);enable-background:accumulate;font-family:Sans;-inkscape-font-specification:Sans" />
  </g>
  <g
     id="layer3"
     style="display:inline;fill:#3f51b5">
    <path
       d="m 150.78125,43.96875 a 4.0004,4.0004 0 0 0 -2.96875,1.625 L 68.65625,149.9375 38.71875,74.96875 a 4.0040568,4.0040568 0 1 0 -7.4375,2.96875 l 32.5625,81.53125 a 4.0004,4.0004 0 0 0 6.90625,0.9375 l 83.4375,-110 a 4.0004,4.0004 0 0 0 -3.40625,-6.4375 z m -26.4375,91.375 c -3.68333,0 -6.6875,2.97292 -6.6875,6.65625 0,3.68334 3.00417,6.65625 6.6875,6.65625 3.68333,0 6.65625,-2.97291 6.65625,-6.65625 0,-3.68333 -2.97292,-6.65625 -6.65625,-6.65625 z m 0,16.65625 C 119.89375,152 111,154.22292 111,158.65625 l 0,3.34375 26.65625,0 0,-3.34375 c 0,-4.43333 -8.8625,-6.65625 -13.3125,-6.65625 z"
       id="path3055"
       style="font-size:medium;font-style:normal;font-variant:normal;font-weight:normal;font-stretch:normal;text-indent:0;text-align:start;text-decoration:none;line-height:normal;letter-spacing:normal;word-spacing:normal;text-transform:none;direction:ltr;block-progression:tb;writing-mode:lr-tb;text-anchor:start;baseline-shift:baseline;color:#000000;fill:#3f51b5;fill-opacity:1;stroke:none;stroke-width:8;marker:none;visibility:visible;display:inline;overflow:visible;enable-background:accumulate;font-family:Sans;-inkscape-font-specification:Sans" />
  </g>
  <g
     id="g4021"
     style="opacity:0.45;display:inline">
    <path
       d="m 150.78125,43.96875 a 4.0004,4.0004 0 0 0 -2.96875,1.625 L 68.65625,149.9375 38.71875,74.96875 A 4.0040568,4.0040568 0 0 0 31.03125,77 4.0040568,4.0040568 0 0 1 38.71875,75.96875 L 68.65625,150.9375 147.8125,46.59375 a 4.0004,4.0004 0 0 1 2.96875,-1.625 4.0004,4.0004 0 0 1 4.1875,3.4375 4.0004,4.0004 0 0 0 -4.1875,-4.4375 z m 4.09375,5 a 4.0004,4.0004 0 0 1 -0.46875,1.09375 4.0004,4.0004 0 0 0 0.46875,-1.09375 z m -30.53125,86.375 c -3.68333,0 -6.6875,2.97292 -6.6875,6.65625 0,0.16755 0.019,0.3356 0.0312,0.5 0.25629,-3.44962 3.14047,-6.15625 6.65625,-6.15625 3.51578,0 6.3713,2.70663 6.625,6.15625 0.0121,-0.1644 0.0312,-0.33245 0.0312,-0.5 0,-3.68333 -2.97292,-6.65625 -6.65625,-6.65625 z m 6.625,7.15625 c -0.0159,0.2156 -0.0268,0.41568 -0.0625,0.625 0.0349,-0.206 0.0469,-0.41294 0.0625,-0.625 z m -0.0625,0.625 c -0.0357,0.20932 -0.10164,0.42293 -0.15625,0.625 0.0568,-0.20837 0.11964,-0.40893 0.15625,-0.625 z M 117.6875,142.5 c 0.0323,0.43448 0.10673,0.84296 0.21875,1.25 -0.11026,-0.40415 -0.18671,-0.8188 -0.21875,-1.25 z m 6.65625,9.5 C 119.89375,152 111,154.22292 111,158.65625 l 0,1 C 111,155.22292 119.89375,153 124.34375,153 c 4.45,0 13.3125,2.22292 13.3125,6.65625 l 0,-1 c 0,-4.43333 -8.8625,-6.65625 -13.3125,-6.65625 z"
       id="path4023"
       style="font-size:medium;font-style:normal;font-variant:normal;font-weight:normal;font-stretch:normal;text-indent:0;text-align:start;text-decoration:none;line-height:normal;letter-spacing:normal;word-spacing:normal;text-transform:none;direction:ltr;block-progression:tb;writing-mode:lr-tb;text-anchor:start;baseline-shift:baseline;color:#000000;fill:#eeeeee;fill-opacity:1;stroke:none;stroke-width:8;marker:none;visibility:visible;display:inline;overflow:visible;enable-background:accumulate;font-family:Sans;-inkscape-font-specification:Sans" />
    <path
       d="m 152.31215,44.187497 a 4.0004,4.0004 0 0 1 0.71875,0.3125 4.0004,4.0004 0 0 0 -0.71875,-0.3125 z m 1.0625,0.53125 a 4.0004,4.0004 0 0 1 0.3125,0.28125 4.0004,4.0004 0 0 0 -0.3125,-0.28125 z m 1.59375,2.75 a 4.0004,4.0004 0 0 1 -0.78125,1.9375 L 70.749646,159.40625 a 4.0004,4.0004 0 0 1 -6.90625,-0.9375 l -32.5625,-81.531253 a 4.0040568,4.0040568 0 0 1 -0.25,-0.9375 4.0040568,4.0040568 0 0 0 0.25,1.9375 l 32.5625,81.531253 a 4.0004,4.0004 0 0 0 6.90625,0.9375 L 154.18715,50.406247 a 4.0004,4.0004 0 0 0 0.78125,-2.9375 z M 34.968396,72.437497 a 4.0040568,4.0040568 0 0 0 -1.90625,0.53125 4.0040568,4.0040568 0 0 1 2.28125,-0.5 4.0040568,4.0040568 0 0 0 -0.375,-0.03125 z m 2.59375,0.9375 a 4.0040568,4.0040568 0 0 1 0.28125,0.28125 4.0040568,4.0040568 0 0 0 -0.28125,-0.28125 z m 0.28125,0.28125 a 4.0040568,4.0040568 0 0 1 0.5,0.59375 4.0040568,4.0040568 0 0 0 -0.5,-0.59375 z m -6.28125,0.78125 a 4.0040568,4.0040568 0 0 0 -0.3125,0.59375 4.0040568,4.0040568 0 0 1 0.3125,-0.59375 z M 117.9059,140.25 c -0.11202,0.40704 -0.18647,0.81552 -0.21875,1.25 0.032,-0.4312 0.10849,-0.84585 0.21875,-1.25 z m -0.21875,1.25 c -0.0122,0.1644 -0.0312,0.33245 -0.0312,0.5 0,3.68334 3.00417,6.65625 6.6875,6.65625 3.68333,0 6.65625,-2.97291 6.65625,-6.65625 0,-0.16755 -0.0192,-0.3356 -0.0312,-0.5 -0.2537,3.44962 -3.10922,6.15625 -6.625,6.15625 -3.51578,0 -6.39996,-2.70663 -6.65625,-6.15625 z m 13.28125,0 c -0.0156,-0.21206 -0.0276,-0.419 -0.0625,-0.625 0.0357,0.20932 0.0466,0.4094 0.0625,0.625 z m -0.0625,-0.625 c -0.0366,-0.21607 -0.0994,-0.41663 -0.15625,-0.625 0.0546,0.20207 0.12054,0.41568 0.15625,0.625 z M 110.99965,161 l 0,1 26.65625,0 0,-1 -26.65625,0 z"
       id="path4023-3"
       style="font-size:medium;font-style:normal;font-variant:normal;font-weight:normal;font-stretch:normal;text-indent:0;text-align:start;text-decoration:none;line-height:normal;letter-spacing:normal;word-spacing:normal;text-transform:none;direction:ltr;block-progression:tb;writing-mode:lr-tb;text-anchor:start;baseline-shift:baseline;color:#000000;fill:#212121;fill-opacity:1;stroke:none;stroke-width:8;marker:none;visibility:visible;display:inline;overflow:visible;enable-background:accumulate;font-family:Sans;-inkscape-font-specification:Sans" />
  </g>
  <g
     id="g3027"
     style="opacity:0.1;display:inline;enable-background:new">
    <path
       inkscape:connector-curvature="0"
       d="M 184,96.000002 C 184,144.60106 144.60106,184 96.000004,184 47.398943,184 8,144.60106 8,96.000002 8,47.398944 47.398943,8 96.000004,8 144.60106,8 184,47.398944 184,96.000002 z"
       id="path3029"
       style="fill:url(#linearGradient3132);fill-opacity:1;fill-rule:nonzero;stroke:none" />
  </g>
</svg>
